<?xml version="1.0" encoding="UTF-8"?>
<!DOCTYPE svg PUBLIC "-//W3C//DTD SVG 1.1//EN" "http://www.w3.org/Graphics/SVG/1.1/DTD/svg11.dtd">
<svg xmlns="http://www.w3.org/2000/svg" version="1.1" width="5000px" height="987px" style="shape-rendering:geometricPrecision; text-rendering:geometricPrecision; image-rendering:optimizeQuality; fill-rule:evenodd; clip-rule:evenodd" xmlns:xlink="http://www.w3.org/1999/xlink">
<g><path style="opacity:0.979" fill="#fefffe" d="M 3949.5,193.5 C 3962.85,193.167 3976.18,193.501 3989.5,194.5C 3947.64,312.758 3905.97,431.091 3864.5,549.5C 3851.17,550.833 3837.83,550.833 3824.5,549.5C 3866.18,430.805 3907.84,312.138 3949.5,193.5 Z"/></g>
<g><path style="opacity:0.991" fill="#fefffe" d="M 4152.5,225.5 C 4168.04,225.291 4182.04,229.791 4194.5,239C 4215.5,257.333 4235.17,277 4253.5,298C 4358.17,298.667 4462.83,298.667 4567.5,298C 4581.13,282.699 4595.13,267.699 4609.5,253C 4620.7,241.898 4633.7,233.564 4648.5,228C 4668.58,222.139 4684.75,227.639 4697,244.5C 4708.54,265.068 4712.54,287.068 4709,310.5C 4703.86,346.572 4693.86,381.239 4679,414.5C 4675.5,423.999 4674.83,433.665 4677,443.5C 4678.41,446.661 4680.08,449.661 4682,452.5C 4701.43,475.928 4720.1,499.928 4738,524.5C 4741.14,529.108 4743.47,534.108 4745,539.5C 4745.75,543.493 4744.25,546.326 4740.5,548C 4727.99,548.54 4715.99,546.207 4704.5,541C 4638.24,512.704 4572.57,483.038 4507.5,452C 4471.98,433.684 4448.48,443.517 4437,481.5C 4434.72,489.701 4434.05,498.034 4435,506.5C 4439.25,523.378 4449.09,527.878 4464.5,520C 4473.72,512.219 4484.05,506.219 4495.5,502C 4508.27,498.457 4520.94,498.79 4533.5,503C 4611.6,540.549 4689.26,578.883 4766.5,618C 4774.11,624.152 4775.28,631.319 4770,639.5C 4763.8,646.014 4756.64,651.181 4748.5,655C 4685.06,688.223 4620.72,719.556 4555.5,749C 4540.79,754.683 4525.62,758.517 4510,760.5C 4500.49,760.144 4498.49,756.144 4504,748.5C 4513.57,737.588 4521.57,725.588 4528,712.5C 4532.47,698.411 4530.8,685.078 4523,672.5C 4511.29,655.014 4495.96,642.014 4477,633.5C 4472.5,634.557 4468.33,636.391 4464.5,639C 4454.83,646.633 4448.5,656.3 4445.5,668C 4445.8,672.889 4447.3,677.389 4450,681.5C 4456.93,689.69 4462.6,698.69 4467,708.5C 4471.3,720.555 4469.97,731.888 4463,742.5C 4460.44,745.531 4457.27,747.698 4453.5,749C 4428.73,755.084 4403.73,756.084 4378.5,752C 4355.77,747.743 4347.27,734.243 4353,711.5C 4354.45,706.601 4356.45,701.935 4359,697.5C 4364.49,690.513 4369.49,683.18 4374,675.5C 4376.33,669.175 4375.67,663.175 4372,657.5C 4366.45,647.614 4358.61,640.114 4348.5,635C 4346.57,634.749 4344.73,634.249 4343,633.5C 4336.57,635.467 4330.74,638.634 4325.5,643C 4312.44,653.052 4301.94,665.218 4294,679.5C 4289.09,692.313 4289.43,704.98 4295,717.5C 4297.75,722.666 4300.75,727.666 4304,732.5C 4309.38,738.884 4314.38,745.55 4319,752.5C 4319.9,755.025 4319.4,757.192 4317.5,759C 4315.09,759.935 4312.59,760.435 4310,760.5C 4285.03,756.621 4261.2,749.121 4238.5,738C 4177.63,709.231 4117.63,678.898 4058.5,647C 4043.84,636.288 4043.84,625.621 4058.5,615C 4132.99,577.949 4207.66,541.282 4282.5,505C 4302.48,496.666 4321.81,497.999 4340.5,509C 4346.83,513.333 4353.17,517.667 4359.5,522C 4373.9,526.634 4382.73,521.468 4386,506.5C 4387.21,485.799 4381.04,467.632 4367.5,452C 4358.82,444.662 4348.82,441.996 4337.5,444C 4328.22,446.138 4319.22,449.138 4310.5,453C 4246.98,483.096 4182.98,512.096 4118.5,540C 4109.67,543.276 4100.67,545.942 4091.5,548C 4086.44,549.01 4081.61,548.51 4077,546.5C 4075.63,544.305 4075.29,541.971 4076,539.5C 4077.11,535.281 4078.78,531.281 4081,527.5C 4099.19,501.643 4118.52,476.643 4139,452.5C 4146.59,440.798 4147.59,428.464 4142,415.5C 4131.14,389.908 4122.47,363.575 4116,336.5C 4110.34,313.593 4109.67,290.593 4114,267.5C 4117.68,251.606 4126.18,239.106 4139.5,230C 4143.85,228.164 4148.18,226.664 4152.5,225.5 Z M 4300.5,534.5 C 4325.64,533.476 4337.48,545.476 4336,570.5C 4326.89,591.159 4312.06,596.659 4291.5,587C 4274.27,570.934 4274.27,554.934 4291.5,539C 4294.59,537.454 4297.59,535.954 4300.5,534.5 Z M 4505.5,534.5 C 4530.64,533.476 4542.48,545.476 4541,570.5C 4534.85,586.998 4523.01,593.831 4505.5,591C 4492.18,586.347 4484.84,577.013 4483.5,563C 4485.11,548.912 4492.44,539.412 4505.5,534.5 Z"/></g>
<g><path style="opacity:0.972" fill="#fefffe" d="M 323.5,227.5 C 336.159,227.232 348.493,229.065 360.5,233C 364.759,234.934 368.759,237.268 372.5,240C 375.272,241.531 377.272,243.698 378.5,246.5C 373.76,257.645 368.76,268.645 363.5,279.5C 359.691,276.858 356.024,274.025 352.5,271C 340.814,264.546 328.814,263.879 316.5,269C 312.266,272.639 309.432,277.139 308,282.5C 306.748,291.12 306.248,299.787 306.5,308.5C 326.167,308.5 345.833,308.5 365.5,308.5C 365.5,320.833 365.5,333.167 365.5,345.5C 346.167,345.5 326.833,345.5 307.5,345.5C 307.5,401.833 307.5,458.167 307.5,514.5C 293.5,514.5 279.5,514.5 265.5,514.5C 265.5,458.167 265.5,401.833 265.5,345.5C 254.167,345.5 242.833,345.5 231.5,345.5C 231.5,333.167 231.5,320.833 231.5,308.5C 242.833,308.5 254.167,308.5 265.5,308.5C 263.28,288.013 267.447,269.013 278,251.5C 289.771,237.032 304.937,229.032 323.5,227.5 Z"/></g>
<g><path style="opacity:0.966" fill="#fefffe" d="M 2420.5,228.5 C 2421.67,323.999 2421.83,419.666 2421,515.5C 2407.25,514.51 2393.41,514.177 2379.5,514.5C 2379.83,419.596 2379.5,324.763 2378.5,230C 2392.67,229.831 2406.67,229.331 2420.5,228.5 Z"/></g>
<g><path style="opacity:0.978" fill="#fefffe" d="M 1920.5,229.5 C 1934.41,229.177 1948.25,229.51 1962,230.5C 1962.33,262.833 1962.67,295.167 1963,327.5C 1977.9,315.196 1995.06,308.363 2014.5,307C 2039.95,304.111 2062.95,310.111 2083.5,325C 2099.72,340.279 2108.89,359.113 2111,381.5C 2111.5,425.832 2111.67,470.165 2111.5,514.5C 2097.83,514.5 2084.17,514.5 2070.5,514.5C 2070.67,474.832 2070.5,435.165 2070,395.5C 2069.29,362.792 2052.63,346.125 2020,345.5C 1987.84,345.996 1968.84,361.996 1963,393.5C 1962.5,433.832 1962.33,474.165 1962.5,514.5C 1948.5,514.5 1934.5,514.5 1920.5,514.5C 1920.5,419.5 1920.5,324.5 1920.5,229.5 Z"/></g>
<g><path style="opacity:0.966" fill="#fefffe" d="M 2476.5,229.5 C 2490.5,229.5 2504.5,229.5 2518.5,229.5C 2518.5,324.5 2518.5,419.5 2518.5,514.5C 2504.5,514.5 2490.5,514.5 2476.5,514.5C 2476.5,419.5 2476.5,324.5 2476.5,229.5 Z"/></g>
<g><path style="opacity:0.967" fill="#fefffe" d="M 3693.5,229.5 C 3716.06,229.223 3726.23,240.223 3724,262.5C 3719.99,275.178 3711.32,281.844 3698,282.5C 3679.07,279.646 3670.4,268.646 3672,249.5C 3675.55,238.777 3682.72,232.11 3693.5,229.5 Z"/></g>
<g><path style="opacity:0.966" fill="#fefffe" d="M 3774.5,229.5 C 3788.5,229.5 3802.5,229.5 3816.5,229.5C 3816.67,324.834 3816.5,420.167 3816,515.5C 3802.25,514.51 3788.41,514.177 3774.5,514.5C 3774.5,419.5 3774.5,324.5 3774.5,229.5 Z"/></g>
<g><path style="opacity:0.974" fill="#fefffe" d="M 612.5,266.5 C 626.5,266.5 640.5,266.5 654.5,266.5C 654.5,280.5 654.5,294.5 654.5,308.5C 673.833,308.5 693.167,308.5 712.5,308.5C 712.5,320.833 712.5,333.167 712.5,345.5C 693.167,345.5 673.833,345.5 654.5,345.5C 654.03,384.873 654.53,424.207 656,463.5C 660.189,473.352 667.689,478.352 678.5,478.5C 690.898,477.383 701.398,472.383 710,463.5C 715.484,474.469 720.984,485.469 726.5,496.5C 712.134,510.408 694.8,517.074 674.5,516.5C 637.076,514.905 616.576,495.571 613,458.5C 612.5,420.835 612.333,383.168 612.5,345.5C 601.167,345.5 589.833,345.5 578.5,345.5C 578.5,333.167 578.5,320.833 578.5,308.5C 589.833,308.5 601.167,308.5 612.5,308.5C 612.5,294.5 612.5,280.5 612.5,266.5 Z"/></g>
<g><path style="opacity:0.977" fill="#fefffe" d="M 455.5,306.5 C 489.74,303.855 519.24,314.188 544,337.5C 566.054,362.672 575.054,392.006 571,425.5C 563.502,473.664 536.002,503.164 488.5,514C 445.456,521.545 409.956,508.711 382,475.5C 364.236,449.348 358.236,420.682 364,389.5C 373.131,348.703 397.631,322.203 437.5,310C 443.626,308.741 449.626,307.574 455.5,306.5 Z M 462.5,344.5 C 500.075,344.91 522.241,363.577 529,400.5C 532.537,424.89 525.704,445.723 508.5,463C 480.792,482.329 453.125,482.329 425.5,463C 406.317,443.111 399.817,419.611 406,392.5C 414.302,364.027 433.135,348.027 462.5,344.5 Z"/></g>
<g><path style="opacity:0.978" fill="#fefffe" d="M 823.5,306.5 C 862.489,303.257 894.322,316.591 919,346.5C 936.281,371.561 942.615,399.227 938,429.5C 928.913,475.218 901.747,503.385 856.5,514C 818.232,520.907 785.065,511.073 757,484.5C 732.969,456.385 724.635,424.052 732,387.5C 744.247,339.747 774.747,312.747 823.5,306.5 Z M 830.5,344.5 C 873.114,346.448 895.448,368.781 897.5,411.5C 897.633,440.093 884.967,460.593 859.5,473C 827.168,483.885 801.001,475.718 781,448.5C 768.713,424.33 768.379,399.997 780,375.5C 791.609,356.614 808.442,346.281 830.5,344.5 Z"/></g>
<g><path style="opacity:0.975" fill="#fefffe" d="M 1026.5,306.5 C 1051.82,305.054 1076.16,309.22 1099.5,319C 1105.83,322.165 1111.83,325.831 1117.5,330C 1111.54,340.754 1105.71,351.587 1100,362.5C 1099.44,363.022 1098.77,363.355 1098,363.5C 1072.22,345.611 1044.05,340.445 1013.5,348C 999.165,354.153 994.999,364.32 1001,378.5C 1008.75,384.623 1017.59,388.456 1027.5,390C 1050.19,393.171 1072.19,398.838 1093.5,407C 1115.59,419.344 1124.75,438.177 1121,463.5C 1115.41,486.431 1101.41,501.764 1079,509.5C 1044.34,519.655 1010.18,518.155 976.5,505C 965.78,500.317 956.113,494.15 947.5,486.5C 953.427,474.965 960.094,463.965 967.5,453.5C 994.445,474.319 1024.78,481.819 1058.5,476C 1070.79,474.04 1078.12,467.04 1080.5,455C 1078.47,444.636 1072.13,438.636 1061.5,437C 1045.28,433.13 1028.95,429.796 1012.5,427C 995.367,423.851 980.534,416.351 968,404.5C 956.514,388.387 953.514,370.72 959,351.5C 965.409,333.424 977.576,320.924 995.5,314C 1005.7,310.365 1016.04,307.865 1026.5,306.5 Z"/></g>
<g><path style="opacity:0.976" fill="#fefffe" d="M 1325.5,306.5 C 1372.5,303.571 1407,322.571 1429,363.5C 1440.9,393.56 1441.57,423.893 1431,454.5C 1418.25,483.461 1396.75,502.628 1366.5,512C 1338.31,519.559 1311.31,516.559 1285.5,503C 1280.71,499.882 1276.21,496.382 1272,492.5C 1271.5,523.165 1271.33,553.832 1271.5,584.5C 1257.5,584.5 1243.5,584.5 1229.5,584.5C 1229.5,492.5 1229.5,400.5 1229.5,308.5C 1243.17,308.5 1256.83,308.5 1270.5,308.5C 1270.33,315.841 1270.5,323.174 1271,330.5C 1286.62,316.607 1304.78,308.607 1325.5,306.5 Z M 1330.5,344.5 C 1372.47,347.133 1394.8,369.466 1397.5,411.5C 1393.36,459.479 1367.36,480.979 1319.5,476C 1287.39,466.694 1271.39,445.194 1271.5,411.5C 1271.08,379.105 1286.08,357.605 1316.5,347C 1321.31,346.197 1325.98,345.363 1330.5,344.5 Z"/></g>
<g><path style="opacity:0.976" fill="#fefffe" d="M 1795.5,306.5 C 1822.82,304.327 1847.49,311.16 1869.5,327C 1877.97,335.13 1885.3,344.13 1891.5,354C 1881.07,361.296 1870.57,368.463 1860,375.5C 1855.41,370.526 1850.91,365.36 1846.5,360C 1826.95,344.562 1805.28,340.896 1781.5,349C 1759.37,358.146 1746.53,374.646 1743,398.5C 1738.49,425.644 1746.66,448.144 1767.5,466C 1792.57,481.3 1817.57,481.3 1842.5,466C 1849.07,460.096 1854.91,453.596 1860,446.5C 1870.64,453.639 1881.14,460.972 1891.5,468.5C 1872.16,500.427 1843.66,516.427 1806,516.5C 1770.89,515.943 1742.23,502.276 1720,475.5C 1701.48,447.59 1695.82,417.256 1703,384.5C 1716.6,338.066 1747.43,312.066 1795.5,306.5 Z"/></g>
<g><path style="opacity:0.974" fill="#fefffe" d="M 2226.5,306.5 C 2245.72,305.069 2264.39,307.569 2282.5,314C 2309.86,327.072 2324.03,348.906 2325,379.5C 2325.5,424.499 2325.67,469.499 2325.5,514.5C 2311.83,514.5 2298.17,514.5 2284.5,514.5C 2284.83,509.125 2284.49,503.792 2283.5,498.5C 2266.64,510.897 2247.64,516.897 2226.5,516.5C 2206.38,516.722 2188.04,511.222 2171.5,500C 2147.19,476.446 2143.03,449.613 2159,419.5C 2172.44,402.862 2189.94,393.695 2211.5,392C 2235.48,390.676 2259.48,390.176 2283.5,390.5C 2283.9,359.564 2268.56,344.23 2237.5,344.5C 2212.09,345.128 2190.26,354.128 2172,371.5C 2165.5,360.5 2159,349.5 2152.5,338.5C 2173.73,319.868 2198.4,309.201 2226.5,306.5 Z M 2216.5,426.5 C 2238.83,426.5 2261.17,426.5 2283.5,426.5C 2283.67,433.175 2283.5,439.842 2283,446.5C 2273.38,469.741 2255.88,481.074 2230.5,480.5C 2221.06,480.178 2212.06,478.012 2203.5,474C 2189.97,463.707 2187.47,451.207 2196,436.5C 2201.75,430.762 2208.58,427.428 2216.5,426.5 Z"/></g>
<g><path style="opacity:0.973" fill="#fefffe" d="M 2635.5,306.5 C 2654.72,305.069 2673.38,307.569 2691.5,314C 2719.16,327.789 2733.33,350.289 2734,381.5C 2734.5,425.832 2734.67,470.165 2734.5,514.5C 2720.83,514.5 2707.17,514.5 2693.5,514.5C 2693.83,509.125 2693.49,503.792 2692.5,498.5C 2675.49,511.002 2656.32,517.002 2635,516.5C 2615.05,516.642 2596.89,511.142 2580.5,500C 2555.97,476.483 2551.8,449.65 2568,419.5C 2581.44,402.862 2598.94,393.695 2620.5,392C 2644.48,390.676 2668.48,390.176 2692.5,390.5C 2692.91,359.573 2677.57,344.239 2646.5,344.5C 2621.09,345.128 2599.26,354.128 2581,371.5C 2574.67,361.167 2568.33,350.833 2562,340.5C 2561.33,339.5 2561.33,338.5 2562,337.5C 2583.36,319.66 2607.86,309.327 2635.5,306.5 Z M 2625.5,426.5 C 2647.83,426.5 2670.17,426.5 2692.5,426.5C 2692.67,433.175 2692.5,439.842 2692,446.5C 2682.05,469.253 2664.55,480.586 2639.5,480.5C 2629.22,480.342 2619.55,477.842 2610.5,473C 2598.44,462.352 2596.6,450.186 2605,436.5C 2610.75,430.762 2617.58,427.428 2625.5,426.5 Z"/></g>
<g><path style="opacity:0.972" fill="#fefffe" d="M 2931.5,306.5 C 2990.27,304.939 3026.44,332.606 3040,389.5C 3042.83,391.254 3042.99,393.088 3040.5,395C 3041.65,405.423 3041.82,415.923 3041,426.5C 2988.57,427.497 2936.07,427.831 2883.5,427.5C 2887.57,449.744 2900.24,464.911 2921.5,473C 2955.83,484.046 2984.5,475.879 3007.5,448.5C 3015.99,457.826 3024.32,467.326 3032.5,477C 3010.87,503.309 2982.87,516.476 2948.5,516.5C 2907.45,516.569 2875.95,499.569 2854,465.5C 2837.62,432.447 2836.28,398.78 2850,364.5C 2866.79,330.537 2893.96,311.204 2931.5,306.5 Z M 2932.5,344.5 C 2967.43,342.269 2989.76,357.769 2999.5,391C 2960.83,391.5 2922.17,391.667 2883.5,391.5C 2889.73,365.264 2906.07,349.598 2932.5,344.5 Z"/></g>
<g><path style="opacity:0.976" fill="#fefffe" d="M 3170.5,306.5 C 3195.32,304.118 3217.65,310.285 3237.5,325C 3242.05,329.877 3246.21,335.044 3250,340.5C 3269.02,316.912 3293.86,305.579 3324.5,306.5C 3378.52,309.024 3406.69,337.357 3409,391.5C 3409.5,432.499 3409.67,473.499 3409.5,514.5C 3395.5,514.5 3381.5,514.5 3367.5,514.5C 3367.67,472.499 3367.5,430.499 3367,388.5C 3364.07,360.234 3348.4,345.9 3320,345.5C 3295.22,345.378 3278.22,356.712 3269,379.5C 3266.37,387.958 3265.03,396.625 3265,405.5C 3264.5,441.832 3264.33,478.165 3264.5,514.5C 3250.83,514.5 3237.17,514.5 3223.5,514.5C 3223.67,473.499 3223.5,432.499 3223,391.5C 3221.34,361.169 3205.34,345.836 3175,345.5C 3143.36,346.804 3125.36,363.137 3121,394.5C 3120.5,434.499 3120.33,474.499 3120.5,514.5C 3106.5,514.5 3092.5,514.5 3078.5,514.5C 3078.5,445.833 3078.5,377.167 3078.5,308.5C 3092.17,308.5 3105.83,308.5 3119.5,308.5C 3119.33,314.842 3119.5,321.175 3120,327.5C 3134.81,315.512 3151.64,308.512 3170.5,306.5 Z"/></g>
<g><path style="opacity:0.973" fill="#fefffe" d="M 3524.5,306.5 C 3544.51,304.918 3563.85,307.751 3582.5,315C 3610.53,329.86 3624.03,353.36 3623,385.5C 3623.5,428.499 3623.67,471.499 3623.5,514.5C 3609.83,514.5 3596.17,514.5 3582.5,514.5C 3582.67,508.824 3582.5,503.157 3582,497.5C 3564.95,510.905 3545.45,517.239 3523.5,516.5C 3498,516.731 3476.5,507.731 3459,489.5C 3444.84,467.144 3443.84,444.144 3456,420.5C 3469.59,403.287 3487.42,393.787 3509.5,392C 3533.48,390.676 3557.48,390.176 3581.5,390.5C 3581.91,359.576 3566.58,344.243 3535.5,344.5C 3510.09,345.128 3488.26,354.128 3470,371.5C 3463.67,361.167 3457.33,350.833 3451,340.5C 3450.33,339.5 3450.33,338.5 3451,337.5C 3472.36,319.659 3496.86,309.326 3524.5,306.5 Z M 3514.5,426.5 C 3536.83,426.5 3559.17,426.5 3581.5,426.5C 3581.67,433.175 3581.5,439.842 3581,446.5C 3571.04,469.242 3553.54,480.576 3528.5,480.5C 3514.46,481.214 3502.63,476.548 3493,466.5C 3485.73,453.581 3487.57,442.081 3498.5,432C 3503.72,429.429 3509.05,427.596 3514.5,426.5 Z"/></g>
<g><path style="opacity:0.973" fill="#fefffe" d="M 1473.5,308.5 C 1487.5,308.5 1501.5,308.5 1515.5,308.5C 1515.33,350.501 1515.5,392.501 1516,434.5C 1519.66,462.49 1535.66,476.823 1564,477.5C 1597.08,476.744 1616.08,460.077 1621,427.5C 1621.5,387.835 1621.67,348.168 1621.5,308.5C 1635.5,308.5 1649.5,308.5 1663.5,308.5C 1663.5,377.167 1663.5,445.833 1663.5,514.5C 1649.83,514.5 1636.17,514.5 1622.5,514.5C 1622.67,507.825 1622.5,501.158 1622,494.5C 1609.29,505.768 1594.46,512.601 1577.5,515C 1552.12,518.758 1528.46,514.091 1506.5,501C 1488.09,486.7 1477.59,467.866 1475,444.5C 1473.57,399.185 1473.07,353.852 1473.5,308.5 Z"/></g>
<g><path style="opacity:0.991" fill="#fefffe" d="M 3677.5,308.5 C 3691.17,308.5 3704.83,308.5 3718.5,308.5C 3718.5,377.167 3718.5,445.833 3718.5,514.5C 3704.83,514.5 3691.17,514.5 3677.5,514.5C 3677.5,445.833 3677.5,377.167 3677.5,308.5 Z"/></g>
<g><path style="opacity:0.968" fill="#fefffe" d="M 1161.5,460.5 C 1182.07,462.57 1191.57,473.904 1190,494.5C 1186.09,508.072 1177.09,515.405 1163,516.5C 1141.68,512.546 1133.34,499.879 1138,478.5C 1142.55,468.104 1150.38,462.104 1161.5,460.5 Z"/></g>
<g><path style="opacity:0.967" fill="#fefffe" d="M 2796.5,460.5 C 2817.83,462.482 2827.33,474.149 2825,495.5C 2816.81,515.121 2802.97,520.621 2783.5,512C 2770.75,500.826 2768.25,487.659 2776,472.5C 2781.32,465.637 2788.15,461.637 2796.5,460.5 Z"/></g>
<g><path style="opacity:0.936" fill="#fefffe" d="M 1428.5,588.5 C 1431.83,588.5 1435.17,588.5 1438.5,588.5C 1438.33,601.837 1438.5,615.171 1439,628.5C 1451.45,616.943 1465.62,614.443 1481.5,621C 1488,625.165 1492.17,630.998 1494,638.5C 1494.5,655.497 1494.67,672.497 1494.5,689.5C 1491.17,689.5 1487.83,689.5 1484.5,689.5C 1484.67,674.496 1484.5,659.496 1484,644.5C 1481.8,632.966 1474.8,627.3 1463,627.5C 1448.61,627.895 1440.61,635.228 1439,649.5C 1438.5,662.829 1438.33,676.163 1438.5,689.5C 1435.17,689.5 1431.83,689.5 1428.5,689.5C 1428.5,655.833 1428.5,622.167 1428.5,588.5 Z"/></g>
<g><path style="opacity:0.966" fill="#fefffe" d="M 1729.5,588.5 C 1732.83,588.5 1736.17,588.5 1739.5,588.5C 1739.5,622.167 1739.5,655.833 1739.5,689.5C 1736.17,689.5 1732.83,689.5 1729.5,689.5C 1729.5,655.833 1729.5,622.167 1729.5,588.5 Z"/></g>
<g><path style="opacity:0.869" fill="#fefffe" d="M 1822.5,588.5 C 1829.03,586.779 1833.03,589.112 1834.5,595.5C 1833.19,601.643 1829.52,603.809 1823.5,602C 1822.07,601.535 1820.9,600.701 1820,599.5C 1818.81,595.259 1819.65,591.592 1822.5,588.5 Z"/></g>
<g><path style="opacity:0.869" fill="#fefffe" d="M 2481.5,588.5 C 2491.81,587.624 2494.81,591.79 2490.5,601C 2483.86,604.33 2479.53,602.497 2477.5,595.5C 2478.09,592.651 2479.42,590.318 2481.5,588.5 Z"/></g>
<g><path style="opacity:0.878" fill="#fefffe" d="M 2926.5,588.5 C 2930.17,588.5 2933.83,588.5 2937.5,588.5C 2937.5,622.167 2937.5,655.833 2937.5,689.5C 2933.83,689.5 2930.17,689.5 2926.5,689.5C 2926.5,655.833 2926.5,622.167 2926.5,588.5 Z"/></g>
<g><path style="opacity:0.869" fill="#fefffe" d="M 3174.5,588.5 C 3184.81,587.624 3187.81,591.79 3183.5,601C 3176.86,604.33 3172.53,602.497 3170.5,595.5C 3171.09,592.651 3172.42,590.318 3174.5,588.5 Z"/></g>
<g><path style="opacity:0.878" fill="#fefffe" d="M 3698.5,588.5 C 3702.17,588.5 3705.83,588.5 3709.5,588.5C 3709.5,622.167 3709.5,655.833 3709.5,689.5C 3705.83,689.5 3702.17,689.5 3698.5,689.5C 3698.5,655.833 3698.5,622.167 3698.5,588.5 Z"/></g>
<g><path style="opacity:0.907" fill="#fefffe" d="M 3967.5,588.5 C 3970.83,588.5 3974.17,588.5 3977.5,588.5C 3977.5,622.167 3977.5,655.833 3977.5,689.5C 3974.17,689.5 3970.83,689.5 3967.5,689.5C 3967.67,685.486 3967.5,681.486 3967,677.5C 3962.17,684.838 3955.33,689.004 3946.5,690C 3925.05,692.198 3911.21,683.031 3905,662.5C 3901.83,635.69 3913.5,620.69 3940,617.5C 3951.41,617.042 3960.41,621.375 3967,630.5C 3967.5,616.504 3967.67,602.504 3967.5,588.5 Z M 3939.5,626.5 C 3955.32,626.978 3964.48,634.978 3967,650.5C 3966.84,672.682 3955.67,682.516 3933.5,680C 3918.87,673.587 3913.04,662.421 3916,646.5C 3919.79,634.862 3927.62,628.195 3939.5,626.5 Z"/></g>
<g><path style="opacity:0.879" fill="#fefffe" d="M 1374.5,601.5 C 1378.17,601.5 1381.83,601.5 1385.5,601.5C 1385.5,607.167 1385.5,612.833 1385.5,618.5C 1392.83,618.5 1400.17,618.5 1407.5,618.5C 1407.78,621.448 1407.44,624.281 1406.5,627C 1399.51,627.5 1392.51,627.666 1385.5,627.5C 1385.05,643.571 1385.55,659.571 1387,675.5C 1393.06,682.643 1399.9,683.31 1407.5,677.5C 1411.91,680.862 1412.24,684.362 1408.5,688C 1399.66,691.589 1390.99,691.255 1382.5,687C 1377.76,683.351 1375.26,678.518 1375,672.5C 1374.5,657.504 1374.33,642.504 1374.5,627.5C 1370.5,627.5 1366.5,627.5 1362.5,627.5C 1362.5,624.5 1362.5,621.5 1362.5,618.5C 1366.5,618.5 1370.5,618.5 1374.5,618.5C 1374.5,612.833 1374.5,607.167 1374.5,601.5 Z"/></g>
<g><path style="opacity:0.879" fill="#fefffe" d="M 1767.5,601.5 C 1771.17,601.5 1774.83,601.5 1778.5,601.5C 1778.5,607.167 1778.5,612.833 1778.5,618.5C 1785.83,618.5 1793.17,618.5 1800.5,618.5C 1800.78,621.448 1800.44,624.281 1799.5,627C 1792.51,627.5 1785.51,627.666 1778.5,627.5C 1778.05,643.571 1778.55,659.571 1780,675.5C 1786.06,682.643 1792.9,683.31 1800.5,677.5C 1804.91,680.862 1805.24,684.362 1801.5,688C 1792.66,691.589 1783.99,691.255 1775.5,687C 1770.76,683.351 1768.26,678.518 1768,672.5C 1767.5,657.504 1767.33,642.504 1767.5,627.5C 1763.5,627.5 1759.5,627.5 1755.5,627.5C 1755.5,624.5 1755.5,621.5 1755.5,618.5C 1759.5,618.5 1763.5,618.5 1767.5,618.5C 1767.5,612.833 1767.5,607.167 1767.5,601.5 Z"/></g>
<g><path style="opacity:0.879" fill="#fefffe" d="M 2083.5,601.5 C 2087.17,601.5 2090.83,601.5 2094.5,601.5C 2094.5,607.167 2094.5,612.833 2094.5,618.5C 2101.83,618.5 2109.17,618.5 2116.5,618.5C 2116.78,621.448 2116.44,624.281 2115.5,627C 2108.51,627.5 2101.51,627.666 2094.5,627.5C 2094.05,643.571 2094.55,659.571 2096,675.5C 2102.06,682.643 2108.9,683.31 2116.5,677.5C 2120.91,680.862 2121.24,684.362 2117.5,688C 2108.66,691.589 2099.99,691.255 2091.5,687C 2086.76,683.351 2084.26,678.518 2084,672.5C 2083.5,657.504 2083.33,642.504 2083.5,627.5C 2079.5,627.5 2075.5,627.5 2071.5,627.5C 2071.5,624.5 2071.5,621.5 2071.5,618.5C 2075.5,618.5 2079.5,618.5 2083.5,618.5C 2083.5,612.833 2083.5,607.167 2083.5,601.5 Z"/></g>
<g><path style="opacity:0.912" fill="#fefffe" d="M 2426.5,601.5 C 2429.83,601.5 2433.17,601.5 2436.5,601.5C 2436.5,607.167 2436.5,612.833 2436.5,618.5C 2443.83,618.5 2451.17,618.5 2458.5,618.5C 2458.5,621.5 2458.5,624.5 2458.5,627.5C 2451.17,627.5 2443.83,627.5 2436.5,627.5C 2436.1,643.21 2436.6,658.877 2438,674.5C 2444.08,682.545 2451.25,683.545 2459.5,677.5C 2465.39,682.676 2464.73,686.509 2457.5,689C 2447.79,692.073 2438.96,690.573 2431,684.5C 2430,682.833 2429,681.167 2428,679.5C 2426.56,662.223 2426.06,644.889 2426.5,627.5C 2422.17,627.5 2417.83,627.5 2413.5,627.5C 2413.5,624.5 2413.5,621.5 2413.5,618.5C 2417.83,618.5 2422.17,618.5 2426.5,618.5C 2426.5,612.833 2426.5,607.167 2426.5,601.5 Z"/></g>
<g><path style="opacity:0.88" fill="#fefffe" d="M 3288.5,601.5 C 3292.17,601.5 3295.83,601.5 3299.5,601.5C 3299.5,607.167 3299.5,612.833 3299.5,618.5C 3306.5,618.5 3313.5,618.5 3320.5,618.5C 3320.5,621.5 3320.5,624.5 3320.5,627.5C 3313.5,627.5 3306.5,627.5 3299.5,627.5C 3299.33,642.837 3299.5,658.17 3300,673.5C 3301.84,678.594 3305.51,681.261 3311,681.5C 3314.91,681.152 3318.41,679.818 3321.5,677.5C 3327.39,682.676 3326.73,686.509 3319.5,689C 3311.55,691.398 3303.88,690.732 3296.5,687C 3293.57,684.736 3291.4,681.902 3290,678.5C 3288.56,661.556 3288.06,644.556 3288.5,627.5C 3284.49,627.666 3280.49,627.499 3276.5,627C 3275.56,624.281 3275.22,621.448 3275.5,618.5C 3279.83,618.5 3284.17,618.5 3288.5,618.5C 3288.5,612.833 3288.5,607.167 3288.5,601.5 Z"/></g>
<g><path style="opacity:0.899" fill="#fefffe" d="M 1541.5,617.5 C 1569.04,616.041 1583.04,629.041 1583.5,656.5C 1563.5,656.5 1543.5,656.5 1523.5,656.5C 1524.58,669.085 1531.25,676.918 1543.5,680C 1554.98,682.509 1564.81,679.675 1573,671.5C 1575.17,673.667 1577.33,675.833 1579.5,678C 1569.73,688.367 1557.73,692.367 1543.5,690C 1518.18,682.88 1508.68,666.38 1515,640.5C 1519.98,628.278 1528.82,620.611 1541.5,617.5 Z M 1545.5,626.5 C 1560.54,626.676 1569.87,634.009 1573.5,648.5C 1556.85,649.499 1540.18,649.833 1523.5,649.5C 1525.47,636.538 1532.8,628.871 1545.5,626.5 Z"/></g>
<g><path style="opacity:0.906" fill="#fefffe" d="M 1887.5,617.5 C 1900.82,615.599 1911.48,619.932 1919.5,630.5C 1932.72,616.618 1948.06,613.785 1965.5,622C 1971.15,626.139 1974.65,631.639 1976,638.5C 1976.5,655.497 1976.67,672.497 1976.5,689.5C 1973.17,689.5 1969.83,689.5 1966.5,689.5C 1966.94,673.11 1966.44,656.776 1965,640.5C 1961.98,631.494 1955.64,627.161 1946,627.5C 1932.64,628.19 1924.97,635.19 1923,648.5C 1922.5,662.163 1922.33,675.829 1922.5,689.5C 1919.17,689.5 1915.83,689.5 1912.5,689.5C 1912.92,673.118 1912.42,656.785 1911,640.5C 1906.23,629.113 1897.73,624.946 1885.5,628C 1877.89,630.222 1872.72,635.056 1870,642.5C 1868.58,658.117 1868.08,673.784 1868.5,689.5C 1864.83,689.5 1861.17,689.5 1857.5,689.5C 1857.5,665.833 1857.5,642.167 1857.5,618.5C 1861.17,618.5 1864.83,618.5 1868.5,618.5C 1868.33,621.85 1868.5,625.183 1869,628.5C 1873.87,622.425 1880.04,618.759 1887.5,617.5 Z"/></g>
<g><path style="opacity:0.876" fill="#fefffe" d="M 2020.5,617.5 C 2030.99,616.296 2040.65,618.463 2049.5,624C 2054.05,628.928 2056.55,634.761 2057,641.5C 2057.5,657.497 2057.67,673.497 2057.5,689.5C 2053.83,689.5 2050.17,689.5 2046.5,689.5C 2046.66,686.813 2046.5,684.146 2046,681.5C 2034.86,690.803 2022.36,692.97 2008.5,688C 1996.35,681.206 1993.18,671.373 1999,658.5C 2004.05,652.476 2010.55,649.309 2018.5,649C 2027.83,648.5 2037.16,648.334 2046.5,648.5C 2047.27,634.772 2040.77,627.439 2027,626.5C 2017.98,626.948 2009.98,629.948 2003,635.5C 1999.91,632.854 1998.74,629.688 1999.5,626C 2006.01,621.67 2013.01,618.836 2020.5,617.5 Z M 2024.5,656.5 C 2031.83,656.5 2039.17,656.5 2046.5,656.5C 2047.69,672.309 2040.36,680.642 2024.5,681.5C 2014.73,682.469 2008.73,678.303 2006.5,669C 2007.13,665.416 2008.79,662.416 2011.5,660C 2015.76,658.154 2020.1,656.987 2024.5,656.5 Z"/></g>
<g><path style="opacity:0.896" fill="#fefffe" d="M 2156.5,617.5 C 2183.34,616.669 2197.34,629.669 2198.5,656.5C 2178.5,656.5 2158.5,656.5 2138.5,656.5C 2139.53,667.057 2144.86,674.557 2154.5,679C 2167.24,682.945 2178.4,680.445 2188,671.5C 2191.07,673.513 2192.74,676.18 2193,679.5C 2183.34,688.773 2171.84,692.273 2158.5,690C 2139.23,685.727 2128.9,673.727 2127.5,654C 2128.17,634.511 2137.84,622.344 2156.5,617.5 Z M 2159.5,626.5 C 2175.15,626.318 2184.82,633.818 2188.5,649C 2171.84,649.5 2155.17,649.667 2138.5,649.5C 2140.33,637.005 2147.33,629.338 2159.5,626.5 Z"/></g>
<g><path style="opacity:0.889" fill="#fefffe" d="M 2270.5,617.5 C 2280.51,616.28 2289.85,618.113 2298.5,623C 2303,626.84 2305.84,631.673 2307,637.5C 2307.5,654.83 2307.67,672.163 2307.5,689.5C 2304.17,689.5 2300.83,689.5 2297.5,689.5C 2297.66,686.482 2297.5,683.482 2297,680.5C 2288.64,689.137 2278.47,692.303 2266.5,690C 2247.66,685.141 2242.49,673.974 2251,656.5C 2256.19,651.659 2262.35,649.159 2269.5,649C 2278.83,648.5 2288.16,648.334 2297.5,648.5C 2298.16,634.495 2291.5,627.162 2277.5,626.5C 2268.57,627.141 2260.57,630.141 2253.5,635.5C 2251.83,632.833 2250.17,630.167 2248.5,627.5C 2255.11,622.414 2262.45,619.08 2270.5,617.5 Z M 2275.5,656.5 C 2282.83,656.5 2290.17,656.5 2297.5,656.5C 2298.57,672.598 2291.07,680.931 2275,681.5C 2267.53,682.463 2261.86,679.796 2258,673.5C 2256.71,668.331 2257.87,663.831 2261.5,660C 2266.14,658.223 2270.8,657.056 2275.5,656.5 Z"/></g>
<g><path style="opacity:0.897" fill="#fefffe" d="M 2363.5,617.5 C 2372.78,616.488 2381.45,618.321 2389.5,623C 2394.77,627.276 2397.94,632.776 2399,639.5C 2399.5,656.163 2399.67,672.83 2399.5,689.5C 2396.17,689.5 2392.83,689.5 2389.5,689.5C 2389.91,673.124 2389.41,656.79 2388,640.5C 2384.48,631.403 2377.82,627.07 2368,627.5C 2357.06,627.471 2349.39,632.471 2345,642.5C 2343.58,658.117 2343.08,673.784 2343.5,689.5C 2339.83,689.5 2336.17,689.5 2332.5,689.5C 2332.5,665.833 2332.5,642.167 2332.5,618.5C 2336.17,618.5 2339.83,618.5 2343.5,618.5C 2343.33,621.85 2343.5,625.183 2344,628.5C 2349.34,622.584 2355.84,618.918 2363.5,617.5 Z"/></g>
<g><path style="opacity:0.895" fill="#fefffe" d="M 2592.5,617.5 C 2605.93,615.696 2617.1,619.696 2626,629.5C 2626.5,625.848 2626.67,622.182 2626.5,618.5C 2629.83,618.5 2633.17,618.5 2636.5,618.5C 2636.67,642.836 2636.5,667.169 2636,691.5C 2633.69,703.81 2626.52,711.644 2614.5,715C 2602.66,717.364 2590.99,716.697 2579.5,713C 2574.66,711.086 2570.33,708.419 2566.5,705C 2568.15,702.187 2570.15,699.687 2572.5,697.5C 2583.57,705.517 2595.91,708.35 2609.5,706C 2617.56,704.268 2622.73,699.435 2625,691.5C 2626.38,685.891 2626.72,680.225 2626,674.5C 2613.17,687.038 2598.34,689.871 2581.5,683C 2566.97,674.769 2560.8,662.269 2563,645.5C 2566.57,629.424 2576.41,620.091 2592.5,617.5 Z M 2598.5,626.5 C 2617.35,627.839 2626.51,637.839 2626,656.5C 2623.61,666.558 2617.44,673.058 2607.5,676C 2584.11,678.927 2572.94,668.76 2574,645.5C 2578.26,634.062 2586.43,627.729 2598.5,626.5 Z"/></g>
<g><path style="opacity:0.883" fill="#fefffe" d="M 2685.5,617.5 C 2715.49,616.322 2729.99,630.656 2729,660.5C 2723.23,682.909 2708.73,692.742 2685.5,690C 2662.09,683.221 2652.59,667.721 2657,643.5C 2661.63,629.443 2671.13,620.776 2685.5,617.5 Z M 2691.5,626.5 C 2711.69,628.868 2720.52,640.201 2718,660.5C 2712.9,676.306 2702.07,682.806 2685.5,680C 2671.27,674.391 2665.1,663.891 2667,648.5C 2670.01,635.322 2678.17,627.988 2691.5,626.5 Z"/></g>
<g><path style="opacity:0.888" fill="#fefffe" d="M 2771.5,617.5 C 2791.25,615.614 2805.08,623.614 2813,641.5C 2818.67,664.228 2810.83,680.061 2789.5,689C 2771.43,693.536 2756.93,688.369 2746,673.5C 2741.7,664.3 2740.37,654.633 2742,644.5C 2746.66,629.667 2756.49,620.667 2771.5,617.5 Z M 2776.5,626.5 C 2797.23,629.073 2806.06,640.739 2803,661.5C 2795.29,680.185 2782.13,685.352 2763.5,677C 2749.52,664.156 2748.02,649.99 2759,634.5C 2764.12,630.022 2769.95,627.355 2776.5,626.5 Z"/></g>
<g><path style="opacity:0.89" fill="#fefffe" d="M 2855.5,617.5 C 2869.08,615.858 2880.58,619.858 2890,629.5C 2890.5,625.848 2890.67,622.182 2890.5,618.5C 2893.83,618.5 2897.17,618.5 2900.5,618.5C 2900.67,642.169 2900.5,665.836 2900,689.5C 2898.78,701.449 2892.62,709.615 2881.5,714C 2867.63,717.696 2853.96,717.029 2840.5,712C 2836.59,710.218 2833.26,707.718 2830.5,704.5C 2831.86,701.772 2833.69,699.439 2836,697.5C 2850.69,707.566 2866.19,709.066 2882.5,702C 2885.93,698.896 2888.1,695.063 2889,690.5C 2889.85,685.174 2890.19,679.84 2890,674.5C 2877.91,686.395 2863.74,689.562 2847.5,684C 2830.8,676.097 2823.96,662.93 2827,644.5C 2830.87,629.462 2840.37,620.462 2855.5,617.5 Z M 2862.5,626.5 C 2883.1,628.254 2891.94,639.254 2889,659.5C 2886.1,668.07 2880.26,673.57 2871.5,676C 2847.32,679.155 2836.16,668.655 2838,644.5C 2842.66,633.669 2850.83,627.669 2862.5,626.5 Z"/></g>
<g><path style="opacity:0.899" fill="#fefffe" d="M 2984.5,617.5 C 3012.04,616.041 3026.04,629.041 3026.5,656.5C 3006.5,656.5 2986.5,656.5 2966.5,656.5C 2967.58,669.085 2974.25,676.918 2986.5,680C 2997.98,682.509 3007.81,679.675 3016,671.5C 3018.17,673.667 3020.33,675.833 3022.5,678C 3012.73,688.367 3000.73,692.367 2986.5,690C 2961.18,682.88 2951.68,666.38 2958,640.5C 2962.98,628.278 2971.82,620.611 2984.5,617.5 Z M 2988.5,626.5 C 3003.54,626.676 3012.87,634.009 3016.5,648.5C 2999.85,649.499 2983.18,649.833 2966.5,649.5C 2968.47,636.538 2975.8,628.871 2988.5,626.5 Z"/></g>
<g><path style="opacity:0.887" fill="#fefffe" d="M 3111.5,617.5 C 3143.22,617.389 3157.06,633.056 3153,664.5C 3144.99,685.592 3129.82,693.759 3107.5,689C 3101.42,686.873 3096.25,683.373 3092,678.5C 3091.5,690.829 3091.33,703.162 3091.5,715.5C 3087.83,715.5 3084.17,715.5 3080.5,715.5C 3080.5,683.167 3080.5,650.833 3080.5,618.5C 3083.83,618.5 3087.17,618.5 3090.5,618.5C 3090.33,622.514 3090.5,626.514 3091,630.5C 3096.33,623.754 3103.16,619.421 3111.5,617.5 Z M 3116.5,626.5 C 3135.78,629.03 3144.61,640.03 3143,659.5C 3138.43,676.045 3127.6,682.878 3110.5,680C 3095.43,674.377 3089.27,663.543 3092,647.5C 3095.48,634.839 3103.65,627.839 3116.5,626.5 Z"/></g>
<g><path style="opacity:0.869" fill="#fefffe" d="M 3232.5,617.5 C 3242.95,616.365 3252.62,618.531 3261.5,624C 3264.21,626.371 3266.54,629.037 3268.5,632C 3265.97,634.029 3263.3,635.862 3260.5,637.5C 3246.41,622.937 3232.24,622.937 3218,637.5C 3212,648.5 3212,659.5 3218,670.5C 3225.59,679.251 3235.09,682.418 3246.5,680C 3252.15,678.166 3256.82,674.999 3260.5,670.5C 3263.3,672.138 3265.97,673.971 3268.5,676C 3259.4,687.707 3247.4,692.374 3232.5,690C 3209.57,684 3199.74,669.167 3203,645.5C 3207.2,630.127 3217.04,620.794 3232.5,617.5 Z"/></g>
<g><path style="opacity:0.888" fill="#fefffe" d="M 3462.5,617.5 C 3465.17,617.5 3467.83,617.5 3470.5,617.5C 3470.5,620.833 3470.5,624.167 3470.5,627.5C 3459.05,626.635 3450.89,631.302 3446,641.5C 3444.56,657.443 3444.06,673.443 3444.5,689.5C 3440.83,689.5 3437.17,689.5 3433.5,689.5C 3433.5,665.833 3433.5,642.167 3433.5,618.5C 3436.83,618.5 3440.17,618.5 3443.5,618.5C 3443.33,622.182 3443.5,625.848 3444,629.5C 3448.65,623.095 3454.82,619.095 3462.5,617.5 Z"/></g>
<g><path style="opacity:0.899" fill="#fefffe" d="M 3507.5,617.5 C 3535.04,616.041 3549.04,629.041 3549.5,656.5C 3529.5,656.5 3509.5,656.5 3489.5,656.5C 3490.58,669.085 3497.25,676.918 3509.5,680C 3520.98,682.509 3530.81,679.675 3539,671.5C 3541.17,673.667 3543.33,675.833 3545.5,678C 3535.73,688.367 3523.73,692.367 3509.5,690C 3484.18,682.88 3474.68,666.38 3481,640.5C 3485.98,628.278 3494.82,620.611 3507.5,617.5 Z M 3511.5,626.5 C 3526.54,626.676 3535.87,634.009 3539.5,648.5C 3522.85,649.499 3506.18,649.833 3489.5,649.5C 3491.47,636.538 3498.8,628.871 3511.5,626.5 Z"/></g>
<g><path style="opacity:0.878" fill="#fefffe" d="M 3646.5,617.5 C 3661.02,615.552 3672.69,620.219 3681.5,631.5C 3679.31,633.85 3676.81,635.85 3674,637.5C 3662.41,625.262 3649.57,623.762 3635.5,633C 3624.55,645.464 3623.72,658.631 3633,672.5C 3642.61,680.945 3653.44,682.778 3665.5,678C 3668.63,675.872 3671.46,673.372 3674,670.5C 3676.33,672.167 3678.67,673.833 3681,675.5C 3677.77,682.362 3672.27,686.862 3664.5,689C 3635.89,694.214 3619.55,682.548 3615.5,654C 3616.88,633.996 3627.21,621.83 3646.5,617.5 Z"/></g>
<g><path style="opacity:0.883" fill="#fefffe" d="M 3757.5,617.5 C 3787.49,616.322 3801.99,630.656 3801,660.5C 3795.23,682.909 3780.73,692.742 3757.5,690C 3734.09,683.221 3724.59,667.721 3729,643.5C 3733.63,629.443 3743.13,620.776 3757.5,617.5 Z M 3763.5,626.5 C 3783.69,628.868 3792.52,640.201 3790,660.5C 3784.9,676.306 3774.07,682.806 3757.5,680C 3743.27,674.391 3737.1,663.891 3739,648.5C 3742.01,635.322 3750.17,627.988 3763.5,626.5 Z"/></g>
<g><path style="opacity:0.905" fill="#fefffe" d="M 1637.5,618.5 C 1640.83,618.5 1644.17,618.5 1647.5,618.5C 1647.33,632.504 1647.5,646.504 1648,660.5C 1648.85,673.685 1655.85,680.352 1669,680.5C 1679.47,680.688 1686.8,676.022 1691,666.5C 1692.44,650.557 1692.94,634.557 1692.5,618.5C 1696.17,618.5 1699.83,618.5 1703.5,618.5C 1703.5,642.167 1703.5,665.833 1703.5,689.5C 1700.17,689.5 1696.83,689.5 1693.5,689.5C 1693.67,685.818 1693.5,682.152 1693,678.5C 1686.82,686.756 1678.49,690.756 1668,690.5C 1651.77,690.741 1641.77,683.074 1638,667.5C 1637.5,651.17 1637.33,634.837 1637.5,618.5 Z"/></g>
<g><path style="opacity:0.966" fill="#fefffe" d="M 1821.5,618.5 C 1824.83,618.5 1828.17,618.5 1831.5,618.5C 1831.5,642.167 1831.5,665.833 1831.5,689.5C 1828.17,689.5 1824.83,689.5 1821.5,689.5C 1821.5,665.833 1821.5,642.167 1821.5,618.5 Z"/></g>
<g><path style="opacity:0.878" fill="#fefffe" d="M 2479.5,618.5 C 2483.17,618.5 2486.83,618.5 2490.5,618.5C 2490.5,642.167 2490.5,665.833 2490.5,689.5C 2486.83,689.5 2483.17,689.5 2479.5,689.5C 2479.5,665.833 2479.5,642.167 2479.5,618.5 Z"/></g>
<g><path style="opacity:0.878" fill="#fefffe" d="M 3172.5,618.5 C 3176.17,618.5 3179.83,618.5 3183.5,618.5C 3183.5,642.167 3183.5,665.833 3183.5,689.5C 3179.83,689.5 3176.17,689.5 3172.5,689.5C 3172.5,665.833 3172.5,642.167 3172.5,618.5 Z"/></g>
<g><path style="opacity:0.887" fill="#fefffe" d="M 3341.5,618.5 C 3345.17,618.5 3348.83,618.5 3352.5,618.5C 3352.33,634.503 3352.5,650.503 3353,666.5C 3355.98,676.329 3362.64,680.996 3373,680.5C 3385.02,680.662 3392.69,674.995 3396,663.5C 3396.5,648.504 3396.67,633.504 3396.5,618.5C 3400.17,618.5 3403.83,618.5 3407.5,618.5C 3407.5,642.167 3407.5,665.833 3407.5,689.5C 3404.17,689.5 3400.83,689.5 3397.5,689.5C 3397.67,685.818 3397.5,682.152 3397,678.5C 3390.82,686.756 3382.49,690.756 3372,690.5C 3355.41,690.568 3345.41,682.568 3342,666.5C 3341.5,650.503 3341.33,634.503 3341.5,618.5 Z"/></g>
<g><path style="opacity:0.887" fill="#fefffe" d="M 3819.5,618.5 C 3823.17,618.5 3826.83,618.5 3830.5,618.5C 3830.33,634.503 3830.5,650.503 3831,666.5C 3833.98,676.329 3840.64,680.996 3851,680.5C 3863.02,680.662 3870.69,674.995 3874,663.5C 3874.5,648.504 3874.67,633.504 3874.5,618.5C 3878.17,618.5 3881.83,618.5 3885.5,618.5C 3885.5,642.167 3885.5,665.833 3885.5,689.5C 3882.17,689.5 3878.83,689.5 3875.5,689.5C 3875.67,685.818 3875.5,682.152 3875,678.5C 3868.82,686.756 3860.49,690.756 3850,690.5C 3833.41,690.568 3823.41,682.568 3820,666.5C 3819.5,650.503 3819.33,634.503 3819.5,618.5 Z"/></g>
<g><path style="opacity:0.926" fill="#fefffe" d="M 2511.5,647.5 C 2523.5,647.5 2535.5,647.5 2547.5,647.5C 2547.5,650.5 2547.5,653.5 2547.5,656.5C 2535.5,656.5 2523.5,656.5 2511.5,656.5C 2511.5,653.5 2511.5,650.5 2511.5,647.5 Z"/></g>
<g><path style="opacity:0.901" fill="#fefffe" d="M 3564.5,647.5 C 3576.83,647.5 3589.17,647.5 3601.5,647.5C 3601.5,650.5 3601.5,653.5 3601.5,656.5C 3589.17,656.5 3576.83,656.5 3564.5,656.5C 3564.5,653.5 3564.5,650.5 3564.5,647.5 Z"/></g>
</svg>
