<?xml version="1.0" encoding="UTF-8"?>
<!DOCTYPE svg PUBLIC "-//W3C//DTD SVG 1.1//EN" "http://www.w3.org/Graphics/SVG/1.1/DTD/svg11.dtd">
<svg xmlns="http://www.w3.org/2000/svg" version="1.1" width="1125px" height="222px" style="shape-rendering:geometricPrecision; text-rendering:geometricPrecision; image-rendering:optimizeQuality; fill-rule:evenodd; clip-rule:evenodd" xmlns:xlink="http://www.w3.org/1999/xlink">
<g><path style="opacity:0.894" fill="#020202" d="M 887.5,42.5 C 890.833,42.5 894.167,42.5 897.5,42.5C 888.648,69.2217 879.481,95.8883 870,122.5C 866.545,123.791 863.045,123.791 859.5,122.5C 869.429,96.0468 878.762,69.3801 887.5,42.5 Z"/></g>
<g><path style="opacity:0.964" fill="#010101" d="M 934.5,49.5 C 943.92,52.0697 951.253,57.5697 956.5,66C 980.167,66.6667 1003.83,66.6667 1027.5,66C 1032.64,58.0165 1039.64,52.5165 1048.5,49.5C 1056.74,51.7824 1060.41,57.2824 1059.5,66C 1058.67,76.8203 1056,87.1536 1051.5,97C 1056.53,104.221 1061.7,111.387 1067,118.5C 1067.49,120.134 1067.66,121.801 1067.5,123.5C 1062.6,123.276 1057.94,122.109 1053.5,120C 1038.06,112.614 1022.4,105.78 1006.5,99.5C 1005.06,99.7189 1003.73,100.219 1002.5,101C 999.756,104.157 998.089,107.823 997.5,112C 997.817,114.328 998.984,116.161 1001,117.5C 1006.03,113.044 1011.87,111.211 1018.5,112C 1036.46,120.597 1054.46,129.263 1072.5,138C 1075.17,140.333 1075.17,142.667 1072.5,145C 1055.65,154.424 1038.32,162.757 1020.5,170C 1017.83,170.567 1015.17,171.067 1012.5,171.5C 1013.49,167.191 1015.32,163.191 1018,159.5C 1018.67,157.5 1018.67,155.5 1018,153.5C 1015.65,148.487 1011.99,144.821 1007,142.5C 1002.39,144.41 1000.39,147.744 1001,152.5C 1005.25,156.41 1006.41,161.076 1004.5,166.5C 1003.33,167.584 1002,168.417 1000.5,169C 993.751,169.877 987.084,169.544 980.5,168C 977.291,162.17 978.124,157.003 983,152.5C 983.61,147.744 981.61,144.41 977,142.5C 964.046,149.06 962.213,157.893 971.5,169C 971.333,170.5 970.5,171.333 969,171.5C 949.066,164.451 929.899,155.618 911.5,145C 908.833,142.667 908.833,140.333 911.5,138C 930.227,127.991 949.394,119.157 969,111.5C 973.11,111.646 976.61,113.146 979.5,116C 983.442,117.418 985.775,116.084 986.5,112C 985.91,107.821 984.243,104.155 981.5,101C 979.305,99.627 976.971,99.2937 974.5,100C 958.285,107.608 941.952,114.941 925.5,122C 922.568,122.953 919.568,123.453 916.5,123.5C 916.34,121.801 916.506,120.134 917,118.5C 921.667,112.5 926.333,106.5 931,100.5C 931.667,97.8333 931.667,95.1667 931,92.5C 925.487,81.7838 923.487,70.4504 925,58.5C 926.809,53.8523 929.975,50.8523 934.5,49.5 Z M 966.5,120.5 C 973.162,119.997 975.662,122.997 974,129.5C 967.441,134.281 963.774,132.614 963,124.5C 963.69,122.65 964.856,121.316 966.5,120.5 Z M 1012.5,120.5 C 1019.75,119.899 1022.25,122.899 1020,129.5C 1016.67,133.5 1013.33,133.5 1010,129.5C 1008.78,125.718 1009.61,122.718 1012.5,120.5 Z"/></g>
<g><path style="opacity:0.9" fill="#040404" d="M 69.5,50.5 C 75.6292,49.5899 80.9625,51.0899 85.5,55C 84.6302,57.911 83.1302,60.411 81,62.5C 73.3761,57.3956 69.2094,59.3956 68.5,68.5C 73.1667,68.5 77.8333,68.5 82.5,68.5C 82.5,71.5 82.5,74.5 82.5,77.5C 78.1667,77.5 73.8333,77.5 69.5,77.5C 69.5,90.1667 69.5,102.833 69.5,115.5C 65.8333,115.5 62.1667,115.5 58.5,115.5C 58.5,102.833 58.5,90.1667 58.5,77.5C 56.1667,77.5 53.8333,77.5 51.5,77.5C 51.5,74.5 51.5,71.5 51.5,68.5C 54.1873,68.6641 56.854,68.4974 59.5,68C 57.89,59.3221 61.2233,53.4888 69.5,50.5 Z"/></g>
<g><path style="opacity:0.93" fill="#010101" d="M 431.5,50.5 C 434.833,50.5 438.167,50.5 441.5,50.5C 441.17,57.5316 441.503,64.5316 442.5,71.5C 451.31,67.3463 459.977,67.513 468.5,72C 472.574,75.5426 474.741,80.0426 475,85.5C 475.5,95.4944 475.666,105.494 475.5,115.5C 472.167,115.5 468.833,115.5 465.5,115.5C 465.875,104.778 465.375,94.1112 464,83.5C 459.344,77.0267 453.511,75.86 446.5,80C 444.951,81.214 443.785,82.714 443,84.5C 441.574,94.7544 441.074,105.088 441.5,115.5C 438.167,115.5 434.833,115.5 431.5,115.5C 431.5,93.8333 431.5,72.1667 431.5,50.5 Z"/></g>
<g><path style="opacity:0.903" fill="#000000" d="M 534.5,50.5 C 537.833,50.5 541.167,50.5 544.5,50.5C 544.5,72.1667 544.5,93.8333 544.5,115.5C 541.167,115.5 537.833,115.5 534.5,115.5C 534.5,93.8333 534.5,72.1667 534.5,50.5 Z"/></g>
<g><path style="opacity:0.928" fill="#010101" d="M 556.5,50.5 C 559.833,50.5 563.167,50.5 566.5,50.5C 566.5,72.1667 566.5,93.8333 566.5,115.5C 563.167,115.5 559.833,115.5 556.5,115.5C 556.5,93.8333 556.5,72.1667 556.5,50.5 Z"/></g>
<g><path style="opacity:0.843" fill="#050505" d="M 830.5,50.5 C 838.966,52.5715 840.299,56.7382 834.5,63C 827.167,63.9968 824.334,60.8301 826,53.5C 827.409,52.2189 828.909,51.2189 830.5,50.5 Z"/></g>
<g><path style="opacity:0.902" fill="#000000" d="M 848.5,50.5 C 851.833,50.5 855.167,50.5 858.5,50.5C 858.5,72.1667 858.5,93.8333 858.5,115.5C 855.167,115.5 851.833,115.5 848.5,115.5C 848.5,93.8333 848.5,72.1667 848.5,50.5 Z"/></g>
<g><path style="opacity:0.91" fill="#020202" d="M 137.5,59.5 C 140.833,59.5 144.167,59.5 147.5,59.5C 147.5,62.5 147.5,65.5 147.5,68.5C 151.833,68.5 156.167,68.5 160.5,68.5C 160.5,71.5 160.5,74.5 160.5,77.5C 156.167,77.5 151.833,77.5 147.5,77.5C 147.334,86.5062 147.5,95.5062 148,104.5C 151.989,107.203 155.823,106.87 159.5,103.5C 161.042,105.879 162.375,108.379 163.5,111C 162.48,113.026 160.813,114.359 158.5,115C 153.03,117.069 147.696,116.735 142.5,114C 140.383,112.269 138.883,110.102 138,107.5C 137.5,97.5056 137.334,87.5056 137.5,77.5C 134.833,77.5 132.167,77.5 129.5,77.5C 129.5,74.5 129.5,71.5 129.5,68.5C 132.167,68.5 134.833,68.5 137.5,68.5C 137.5,65.5 137.5,62.5 137.5,59.5 Z"/></g>
<g><path style="opacity:0.91" fill="#030303" d="M 97.5,68.5 C 121.807,67.3057 131.64,78.639 127,102.5C 120.012,114.277 109.845,118.444 96.5,115C 86.3474,111.002 81.0141,103.502 80.5,92.5C 80.7772,80.5732 86.4439,72.5732 97.5,68.5 Z M 101.5,77.5 C 116.441,78.7074 121.275,86.374 116,100.5C 111.036,106.485 104.869,107.985 97.5,105C 91.7803,100.116 89.9469,93.9495 92,86.5C 93.775,81.888 96.9417,78.888 101.5,77.5 Z"/></g>
<g><path style="opacity:0.911" fill="#030303" d="M 180.5,68.5 C 198.837,66.0225 209.17,73.8558 211.5,92C 211.237,103.253 205.904,110.92 195.5,115C 170.985,117.816 160.819,106.982 165,82.5C 168.425,75.8762 173.592,71.2095 180.5,68.5 Z M 183.5,77.5 C 197.606,77.7066 203.106,84.7066 200,98.5C 195.395,106.214 188.895,108.381 180.5,105C 173.267,99.0333 171.767,91.8667 176,83.5C 178.114,80.8792 180.614,78.8792 183.5,77.5 Z"/></g>
<g><path style="opacity:0.894" fill="#030303" d="M 226.5,68.5 C 231.511,68.3341 236.511,68.5007 241.5,69C 245.381,69.6072 248.714,71.2738 251.5,74C 250.192,76.7951 248.526,79.2951 246.5,81.5C 240.972,77.9137 234.972,76.7471 228.5,78C 223.167,80.6667 223.167,83.3333 228.5,86C 236.209,87.1244 243.376,89.6244 250,93.5C 254.576,102.074 252.743,108.907 244.5,114C 235.393,117.144 226.393,116.811 217.5,113C 215.415,111.959 213.748,110.459 212.5,108.5C 213.811,105.865 215.478,103.531 217.5,101.5C 223.864,106.002 230.864,107.502 238.5,106C 243.824,102.912 243.491,100.246 237.5,98C 231.224,97.2648 225.224,95.5981 219.5,93C 212.668,85.4468 213.001,78.1135 220.5,71C 222.611,70.1553 224.611,69.322 226.5,68.5 Z"/></g>
<g><path style="opacity:0.914" fill="#020202" d="M 275.5,68.5 C 278.833,68.5 282.167,68.5 285.5,68.5C 285.238,69.9778 285.571,71.3112 286.5,72.5C 290.616,69.3513 295.283,68.018 300.5,68.5C 315.356,69.1904 323.023,77.0237 323.5,92C 322.855,106.98 315.021,115.147 300,116.5C 295.538,116.063 291.371,114.73 287.5,112.5C 286.504,118.798 286.17,125.132 286.5,131.5C 282.833,131.5 279.167,131.5 275.5,131.5C 275.5,110.5 275.5,89.5 275.5,68.5 Z M 296.5,77.5 C 310.749,78.3116 315.915,85.6449 312,99.5C 306.532,106.794 299.699,108.294 291.5,104C 286.701,99.1584 285.201,93.3251 287,86.5C 288.775,81.888 291.942,78.888 296.5,77.5 Z"/></g>
<g><path style="opacity:0.904" fill="#010101" d="M 330.5,68.5 C 333.833,68.5 337.167,68.5 340.5,68.5C 340.097,79.231 340.597,89.8977 342,100.5C 346.128,106.485 351.628,107.985 358.5,105C 360.378,103.457 361.878,101.624 363,99.5C 364.399,89.2317 364.899,78.8983 364.5,68.5C 367.833,68.5 371.167,68.5 374.5,68.5C 374.5,84.1667 374.5,99.8333 374.5,115.5C 371.167,115.5 367.833,115.5 364.5,115.5C 364.719,114.325 364.386,113.325 363.5,112.5C 352.671,118.215 342.837,116.881 334,108.5C 332.25,105.754 331.25,102.754 331,99.5C 330.5,89.172 330.334,78.8387 330.5,68.5 Z"/></g>
<g><path style="opacity:0.9" fill="#030303" d="M 398.5,68.5 C 404.577,68.1959 410.577,68.6959 416.5,70C 420.358,72.3581 423.358,75.5248 425.5,79.5C 422.897,81.0486 420.397,82.7153 418,84.5C 412.467,77.1844 405.633,75.6844 397.5,80C 392.755,85.2693 391.255,91.436 393,98.5C 400.887,108.775 409.22,109.108 418,99.5C 420.333,101.167 422.667,102.833 425,104.5C 421.513,112.44 415.18,116.44 406,116.5C 383.91,112.327 376.91,99.6605 385,78.5C 388.579,73.7307 393.079,70.3974 398.5,68.5 Z"/></g>
<g><path style="opacity:0.924" fill="#020202" d="M 495.5,68.5 C 501.909,68.1827 508.243,68.6827 514.5,70C 519.436,72.6975 522.27,76.8641 523,82.5C 523.5,93.495 523.667,104.495 523.5,115.5C 520.167,115.5 516.833,115.5 513.5,115.5C 513.649,114.448 513.483,113.448 513,112.5C 504.964,117.608 496.797,117.775 488.5,113C 480.5,105.333 480.5,97.6667 488.5,90C 490.087,89.1376 491.754,88.4709 493.5,88C 500.191,87.8309 506.858,87.3309 513.5,86.5C 512.523,80.1879 508.856,77.1879 502.5,77.5C 497.115,77.86 492.448,79.86 488.5,83.5C 486.455,81.2412 484.789,78.7412 483.5,76C 487.064,72.7225 491.064,70.2225 495.5,68.5 Z M 498.5,95.5 C 503.5,95.5 508.5,95.5 513.5,95.5C 513.049,102.732 509.216,106.732 502,107.5C 499.097,107.089 496.431,106.089 494,104.5C 492.422,99.7863 493.922,96.7863 498.5,95.5 Z"/></g>
<g><path style="opacity:0.913" fill="#020202" d="M 587.5,68.5 C 593.909,68.1827 600.243,68.6827 606.5,70C 611.436,72.6975 614.27,76.8641 615,82.5C 615.5,93.495 615.667,104.495 615.5,115.5C 612.167,115.5 608.833,115.5 605.5,115.5C 605.649,114.448 605.483,113.448 605,112.5C 596.946,117.553 588.78,117.719 580.5,113C 572.626,105.357 572.626,97.69 580.5,90C 582.087,89.1376 583.754,88.4709 585.5,88C 592.191,87.8309 598.858,87.3309 605.5,86.5C 602.325,77.7555 596.325,75.2555 587.5,79C 584.827,80.0014 582.493,81.5014 580.5,83.5C 578.461,81.2581 576.795,78.7581 575.5,76C 579.093,72.711 583.093,70.211 587.5,68.5 Z M 590.5,95.5 C 595.5,95.5 600.5,95.5 605.5,95.5C 605.118,103.039 601.118,107.039 593.5,107.5C 590.789,106.986 588.289,105.986 586,104.5C 584.422,99.7863 585.922,96.7863 590.5,95.5 Z"/></g>
<g><path style="opacity:0.897" fill="#020202" d="M 654.5,68.5 C 674.767,66.2711 684.6,75.2711 684,95.5C 672.581,96.4878 661.081,96.8211 649.5,96.5C 650.235,101.737 653.235,104.904 658.5,106C 665.549,107.483 671.549,105.65 676.5,100.5C 679.024,102.19 681.024,104.357 682.5,107C 677.443,113.025 670.943,116.191 663,116.5C 643.139,113.612 635.472,102.278 640,82.5C 642.774,75.5569 647.607,70.8903 654.5,68.5 Z M 657.5,77.5 C 663.291,76.4888 668.124,78.1555 672,82.5C 673.009,84.0249 673.509,85.6916 673.5,87.5C 665.5,87.5 657.5,87.5 649.5,87.5C 650.328,82.6741 652.995,79.3408 657.5,77.5 Z"/></g>
<g><path style="opacity:0.906" fill="#020202" d="M 691.5,68.5 C 694.833,68.5 698.167,68.5 701.5,68.5C 701.343,69.8734 701.51,71.2068 702,72.5C 703.8,70.683 705.966,69.5163 708.5,69C 717.438,66.7378 724.938,68.9045 731,75.5C 737.456,68.861 745.29,66.6943 754.5,69C 760.333,70.8333 764.167,74.6667 766,80.5C 767.332,92.1237 767.832,103.79 767.5,115.5C 763.833,115.5 760.167,115.5 756.5,115.5C 756.667,104.828 756.5,94.1615 756,83.5C 751.66,77.136 746.16,75.9694 739.5,80C 737.383,81.7309 735.883,83.8976 735,86.5C 734.5,96.1609 734.334,105.828 734.5,115.5C 731.167,115.5 727.833,115.5 724.5,115.5C 724.666,105.494 724.5,95.4944 724,85.5C 720.292,77.4875 714.458,75.6542 706.5,80C 704.959,81.5793 703.792,83.4127 703,85.5C 702.5,95.4944 702.334,105.494 702.5,115.5C 698.833,115.5 695.167,115.5 691.5,115.5C 691.5,99.8333 691.5,84.1667 691.5,68.5 Z"/></g>
<g><path style="opacity:0.909" fill="#020202" d="M 787.5,68.5 C 793.909,68.1827 800.243,68.6827 806.5,70C 811.436,72.6975 814.27,76.8641 815,82.5C 815.5,93.495 815.667,104.495 815.5,115.5C 812.167,115.5 808.833,115.5 805.5,115.5C 805.649,114.448 805.483,113.448 805,112.5C 796.916,117.309 788.749,117.476 780.5,113C 772.5,105.333 772.5,97.6667 780.5,90C 782.087,89.1376 783.754,88.4709 785.5,88C 792.191,87.8309 798.858,87.3309 805.5,86.5C 804.523,80.1879 800.856,77.1879 794.5,77.5C 789.115,77.86 784.448,79.86 780.5,83.5C 778.461,81.2581 776.795,78.7581 775.5,76C 778.935,72.4807 782.935,69.9807 787.5,68.5 Z M 790.5,95.5 C 795.5,95.5 800.5,95.5 805.5,95.5C 805.198,103.135 801.198,107.135 793.5,107.5C 788.966,107.251 785.966,105.085 784.5,101C 785.771,98.2227 787.771,96.3894 790.5,95.5 Z"/></g>
<g><path style="opacity:0.908" fill="#010101" d="M 826.5,68.5 C 829.833,68.5 833.167,68.5 836.5,68.5C 836.5,84.1667 836.5,99.8333 836.5,115.5C 833.167,115.5 829.833,115.5 826.5,115.5C 826.5,99.8333 826.5,84.1667 826.5,68.5 Z"/></g>
<g><path style="opacity:0.871" fill="#070707" d="M 260.5,102.5 C 267.103,103.351 269.27,107.018 267,113.5C 264.145,116.36 260.978,116.86 257.5,115C 253.086,109.488 254.086,105.322 260.5,102.5 Z"/></g>
<g><path style="opacity:0.881" fill="#040404" d="M 628.5,102.5 C 635.103,103.351 637.27,107.018 635,113.5C 629.447,117.652 625.28,116.485 622.5,110C 622.928,106.087 624.928,103.587 628.5,102.5 Z"/></g>
<g><path style="opacity:0.701" fill="#050505" d="M 320.5,131.5 C 321.5,131.5 322.5,131.5 323.5,131.5C 323.187,134.247 323.52,136.914 324.5,139.5C 328.262,137.91 331.762,138.243 335,140.5C 336.388,145.372 336.888,150.372 336.5,155.5C 335.5,155.5 334.5,155.5 333.5,155.5C 333.666,151.486 333.499,147.486 333,143.5C 329.661,140.701 326.661,141.034 324,144.5C 323.501,148.152 323.335,151.818 323.5,155.5C 322.5,155.5 321.5,155.5 320.5,155.5C 320.5,147.5 320.5,139.5 320.5,131.5 Z"/></g>
<g><path style="opacity:0.692" fill="#020202" d="M 388.5,131.5 C 389.5,131.5 390.5,131.5 391.5,131.5C 391.5,139.5 391.5,147.5 391.5,155.5C 390.5,155.5 389.5,155.5 388.5,155.5C 388.5,147.5 388.5,139.5 388.5,131.5 Z"/></g>
<g><path style="opacity:0.635" fill="#070707" d="M 409.5,131.5 C 410.5,131.5 411.5,131.5 412.5,131.5C 412.5,132.833 412.5,134.167 412.5,135.5C 409.046,135.733 408.046,134.4 409.5,131.5 Z"/></g>
<g><path style="opacity:0.645" fill="#020202" d="M 557.5,131.5 C 558.5,131.5 559.5,131.5 560.5,131.5C 560.5,132.833 560.5,134.167 560.5,135.5C 557.046,135.733 556.046,134.4 557.5,131.5 Z"/></g>
<g><path style="opacity:0.628" fill="#030303" d="M 657.5,131.5 C 658.5,131.5 659.5,131.5 660.5,131.5C 660.5,139.5 660.5,147.5 660.5,155.5C 659.5,155.5 658.5,155.5 657.5,155.5C 657.5,147.5 657.5,139.5 657.5,131.5 Z"/></g>
<g><path style="opacity:0.585" fill="#020202" d="M 713.5,131.5 C 714.5,131.5 715.5,131.5 716.5,131.5C 716.5,132.833 716.5,134.167 716.5,135.5C 713.046,135.733 712.046,134.4 713.5,131.5 Z"/></g>
<g><path style="opacity:0.722" fill="#030303" d="M 831.5,131.5 C 832.5,131.5 833.5,131.5 834.5,131.5C 834.5,139.5 834.5,147.5 834.5,155.5C 833.5,155.5 832.5,155.5 831.5,155.5C 831.5,147.5 831.5,139.5 831.5,131.5 Z"/></g>
<g><path style="opacity:0.7" fill="#080808" d="M 891.5,131.5 C 892.5,131.5 893.5,131.5 894.5,131.5C 894.5,139.5 894.5,147.5 894.5,155.5C 892.876,155.64 891.71,154.973 891,153.5C 883.607,156.886 879.107,154.553 877.5,146.5C 879.215,139.058 883.715,136.724 891,139.5C 891.497,136.854 891.664,134.187 891.5,131.5 Z M 883.5,141.5 C 890,140.499 892.5,143.165 891,149.5C 887.303,153.582 883.97,153.249 881,148.5C 880.683,145.793 881.516,143.46 883.5,141.5 Z"/></g>
<g><path style="opacity:0.727" fill="#0f0f0f" d="M 308.5,134.5 C 309.5,134.5 310.5,134.5 311.5,134.5C 311.5,135.833 311.5,137.167 311.5,138.5C 313.288,138.215 314.955,138.548 316.5,139.5C 316.167,140.5 315.5,141.167 314.5,141.5C 313.575,140.359 312.741,140.359 312,141.5C 311.333,144.833 311.333,148.167 312,151.5C 313.333,152.833 314.667,152.833 316,151.5C 318.089,153.991 317.423,155.324 314,155.5C 311.695,155.516 310.028,154.516 309,152.5C 308.667,148.5 308.333,144.5 308,140.5C 306.869,141.604 306.035,141.271 305.5,139.5C 306.325,138.614 307.325,138.281 308.5,138.5C 308.5,137.167 308.5,135.833 308.5,134.5 Z"/></g>
<g><path style="opacity:0.692" fill="#0e0e0e" d="M 396.5,134.5 C 397.833,134.5 399.167,134.5 400.5,134.5C 400.5,135.833 400.5,137.167 400.5,138.5C 402.288,138.215 403.955,138.548 405.5,139.5C 404.332,141.217 402.665,141.884 400.5,141.5C 400.335,144.85 400.502,148.183 401,151.5C 402.113,152.711 403.28,152.711 404.5,151.5C 405.5,151.833 406.167,152.5 406.5,153.5C 403.629,156.113 400.795,156.113 398,153.5C 397.266,148.866 396.099,144.366 394.5,140C 395.885,138.403 396.551,136.57 396.5,134.5 Z"/></g>
<g><path style="opacity:0.726" fill="#151515" d="M 545.5,134.5 C 546.5,134.5 547.5,134.5 548.5,134.5C 548.5,135.833 548.5,137.167 548.5,138.5C 550.288,138.215 551.955,138.548 553.5,139.5C 552.332,141.217 550.665,141.884 548.5,141.5C 548.335,144.85 548.502,148.183 549,151.5C 550.333,152.833 551.667,152.833 553,151.5C 553.692,152.025 554.192,152.692 554.5,153.5C 551.629,156.113 548.795,156.113 546,153.5C 545.501,149.514 545.334,145.514 545.5,141.5C 544.5,141.5 543.5,141.5 542.5,141.5C 542.5,140.5 542.5,139.5 542.5,138.5C 543.5,138.5 544.5,138.5 545.5,138.5C 545.5,137.167 545.5,135.833 545.5,134.5 Z"/></g>
<g><path style="opacity:0.714" fill="#0d0d0d" d="M 739.5,134.5 C 740.5,134.5 741.5,134.5 742.5,134.5C 742.5,135.833 742.5,137.167 742.5,138.5C 744.288,138.215 745.955,138.548 747.5,139.5C 746.332,141.217 744.665,141.884 742.5,141.5C 742.335,144.85 742.502,148.183 743,151.5C 744.333,152.833 745.667,152.833 747,151.5C 747.692,152.025 748.192,152.692 748.5,153.5C 745.629,156.113 742.795,156.113 740,153.5C 739.501,149.514 739.334,145.514 739.5,141.5C 738.5,141.5 737.5,141.5 736.5,141.5C 736.5,140.5 736.5,139.5 736.5,138.5C 737.5,138.5 738.5,138.5 739.5,138.5C 739.5,137.167 739.5,135.833 739.5,134.5 Z"/></g>
<g><path style="opacity:0.696" fill="#080808" d="M 344.5,138.5 C 351.979,136.988 355.979,139.988 356.5,147.5C 352.167,147.5 347.833,147.5 343.5,147.5C 343.137,149.911 344.137,151.411 346.5,152C 349.035,152.617 351.368,152.117 353.5,150.5C 354.308,150.808 354.975,151.308 355.5,152C 350.52,156.755 345.687,156.589 341,151.5C 338.348,146.039 339.514,141.706 344.5,138.5 Z M 347.5,140.5 C 350.374,140.845 352.374,142.345 353.5,145C 350.183,145.498 346.85,145.665 343.5,145.5C 343.281,144.325 343.614,143.325 344.5,142.5C 345.739,142.058 346.739,141.391 347.5,140.5 Z"/></g>
<g><path style="opacity:0.708" fill="#020202" d="M 367.5,138.5 C 368.5,138.5 369.5,138.5 370.5,138.5C 370.335,142.182 370.501,145.848 371,149.5C 374.523,153.701 377.523,153.368 380,148.5C 380.498,145.183 380.665,141.85 380.5,138.5C 381.5,138.5 382.5,138.5 383.5,138.5C 383.5,144.167 383.5,149.833 383.5,155.5C 381.876,155.64 380.71,154.973 380,153.5C 376.064,156.314 372.397,155.981 369,152.5C 367.621,147.964 367.121,143.297 367.5,138.5 Z"/></g>
<g><path style="opacity:0.667" fill="#020202" d="M 409.5,138.5 C 410.5,138.5 411.5,138.5 412.5,138.5C 412.5,144.167 412.5,149.833 412.5,155.5C 411.5,155.5 410.5,155.5 409.5,155.5C 409.5,149.833 409.5,144.167 409.5,138.5 Z"/></g>
<g><path style="opacity:0.741" fill="#060606" d="M 417.5,138.5 C 421.345,138.711 425.345,138.878 429.5,139C 430.025,139.692 430.692,140.192 431.5,140.5C 434.943,138.279 438.61,137.946 442.5,139.5C 443.192,140.025 443.692,140.692 444,141.5C 444.499,146.155 444.666,150.821 444.5,155.5C 443.5,155.5 442.5,155.5 441.5,155.5C 441.666,151.154 441.499,146.821 441,142.5C 437.606,140.725 434.94,141.392 433,144.5C 432.501,148.152 432.335,151.818 432.5,155.5C 431.5,155.5 430.5,155.5 429.5,155.5C 429.666,151.486 429.499,147.486 429,143.5C 426.333,140.833 423.667,140.833 421,143.5C 420.501,147.486 420.334,151.486 420.5,155.5C 419.5,155.5 418.5,155.5 417.5,155.5C 417.5,149.833 417.5,144.167 417.5,138.5 Z"/></g>
<g><path style="opacity:0.738" fill="#0c0c0c" d="M 451.5,138.5 C 454.518,138.335 457.518,138.502 460.5,139C 461,139.5 461.5,140 462,140.5C 462.499,145.489 462.666,150.489 462.5,155.5C 458.921,155.08 455.254,154.914 451.5,155C 448.022,152.294 447.689,149.294 450.5,146C 453.482,145.502 456.482,145.335 459.5,145.5C 459.67,144.178 459.337,143.011 458.5,142C 455.46,141.68 452.46,141.68 449.5,142C 449.167,141.667 448.833,141.333 448.5,141C 449.571,140.148 450.571,139.315 451.5,138.5 Z M 453.5,147.5 C 455.5,147.5 457.5,147.5 459.5,147.5C 459.582,150.585 458.082,152.252 455,152.5C 451.023,151.878 450.523,150.212 453.5,147.5 Z"/></g>
<g><path style="opacity:0.705" fill="#090909" d="M 482.5,138.5 C 489.979,136.988 493.979,139.988 494.5,147.5C 490.116,147.174 485.783,147.508 481.5,148.5C 482.652,150.825 484.485,152.158 487,152.5C 489.086,151.582 491.253,150.915 493.5,150.5C 492.554,153.83 490.22,155.496 486.5,155.5C 478.177,153.232 476.011,148.232 480,140.5C 480.995,139.934 481.828,139.267 482.5,138.5 Z M 485.5,140.5 C 488.374,140.845 490.374,142.345 491.5,145C 488.118,145.824 484.784,145.657 481.5,144.5C 482.549,142.784 483.882,141.451 485.5,140.5 Z"/></g>
<g><path style="opacity:0.651" fill="#060606" d="M 507.5,138.5 C 510.518,138.335 513.518,138.502 516.5,139C 517,139.5 517.5,140 518,140.5C 519.388,145.372 519.888,150.372 519.5,155.5C 517.876,155.64 516.71,154.973 516,153.5C 512.136,156.25 508.469,155.916 505,152.5C 504.365,150.365 504.699,148.365 506,146.5C 509.411,145.707 512.911,145.207 516.5,145C 515.663,143.989 515.33,142.822 515.5,141.5C 514.178,141.67 513.011,141.337 512,140.5C 509.993,141.669 507.827,142.335 505.5,142.5C 505.527,140.801 506.194,139.467 507.5,138.5 Z M 509.5,147.5 C 511.924,147.192 514.257,147.526 516.5,148.5C 514.116,153.015 511.116,153.515 507.5,150C 508.381,149.292 509.047,148.458 509.5,147.5 Z"/></g>
<g><path style="opacity:0.704" fill="#020202" d="M 524.5,138.5 C 528.345,138.711 532.345,138.878 536.5,139C 537.308,139.308 537.975,139.808 538.5,140.5C 539.448,145.435 539.781,150.435 539.5,155.5C 538.5,155.5 537.5,155.5 536.5,155.5C 536.666,151.154 536.499,146.821 536,142.5C 533.084,140.987 530.418,141.32 528,143.5C 527.501,147.486 527.334,151.486 527.5,155.5C 526.5,155.5 525.5,155.5 524.5,155.5C 524.5,149.833 524.5,144.167 524.5,138.5 Z"/></g>
<g><path style="opacity:0.679" fill="#020202" d="M 557.5,138.5 C 558.5,138.5 559.5,138.5 560.5,138.5C 560.5,144.167 560.5,149.833 560.5,155.5C 559.5,155.5 558.5,155.5 557.5,155.5C 557.5,149.833 557.5,144.167 557.5,138.5 Z"/></g>
<g><path style="opacity:0.696" fill="#060606" d="M 580.5,138.5 C 584.936,138.942 589.269,138.942 593.5,138.5C 593.877,145.257 593.377,151.924 592,158.5C 586.704,162.552 581.537,162.386 576.5,158C 577.025,157.308 577.692,156.808 578.5,156.5C 581.794,158.667 585.127,158.834 588.5,157C 589.731,155.817 589.731,154.651 588.5,153.5C 578.136,155.774 574.302,151.774 577,141.5C 578.145,140.364 579.312,139.364 580.5,138.5 Z M 581.5,141.5 C 586.155,140.416 589.155,142.083 590.5,146.5C 588.172,151.623 584.672,152.623 580,149.5C 579.109,146.502 579.609,143.836 581.5,141.5 Z"/></g>
<g><path style="opacity:0.697" fill="#0a0a0a" d="M 601.5,138.5 C 608.952,136.878 613.285,139.711 614.5,147C 611.123,156.312 605.623,157.812 598,151.5C 595.628,146.127 596.795,141.794 601.5,138.5 Z M 602.5,141.5 C 610.558,141.145 612.558,144.479 608.5,151.5C 603.72,153.274 600.72,151.607 599.5,146.5C 600.26,144.64 601.26,142.973 602.5,141.5 Z"/></g>
<g><path style="opacity:0.676" fill="#060606" d="M 620.5,138.5 C 632.665,137.851 635.998,142.851 630.5,153.5C 619.889,157.391 615.389,153.724 617,142.5C 617.69,140.65 618.856,139.316 620.5,138.5 Z M 621.5,141.5 C 629.162,141.027 631.496,144.193 628.5,151C 621.735,153.243 618.902,150.743 620,143.5C 620.717,142.956 621.217,142.289 621.5,141.5 Z"/></g>
<g><path style="opacity:0.718" fill="#050505" d="M 639.5,138.5 C 643.936,138.942 648.269,138.942 652.5,138.5C 652.92,145.284 652.42,151.95 651,158.5C 646.811,162.164 642.311,162.497 637.5,159.5C 636.614,158.675 636.281,157.675 636.5,156.5C 639.067,156.855 641.567,157.521 644,158.5C 647.893,158.16 649.56,156.16 649,152.5C 639.17,156.338 634.837,153.004 636,142.5C 636.69,140.65 637.856,139.316 639.5,138.5 Z M 640.5,141.5 C 643.119,141.232 645.619,141.565 648,142.5C 650.412,148.76 648.245,151.593 641.5,151C 637.956,148.127 637.623,144.96 640.5,141.5 Z"/></g>
<g><path style="opacity:0.718" fill="#070707" d="M 668.5,138.5 C 676.369,136.739 680.369,139.739 680.5,147.5C 676.116,147.174 671.783,147.508 667.5,148.5C 670.477,152.827 674.144,153.493 678.5,150.5C 679.9,152.782 679.234,154.282 676.5,155C 667.118,155.951 663.284,151.784 665,142.5C 666.376,141.295 667.542,139.962 668.5,138.5 Z M 672.5,140.5 C 674.723,141.114 676.389,142.448 677.5,144.5C 674.216,145.657 670.882,145.824 667.5,145C 668.445,142.554 670.111,141.054 672.5,140.5 Z"/></g>
<g><path style="opacity:0.75" fill="#080808" d="M 724.5,138.5 C 727.187,138.336 729.854,138.503 732.5,139C 735.346,140.4 735.679,141.9 733.5,143.5C 725.52,139.482 722.52,141.815 724.5,150.5C 725.611,151.611 726.945,152.278 728.5,152.5C 730.323,151.155 732.323,150.655 734.5,151C 735.458,152.147 735.125,153.147 733.5,154C 724.562,157.056 720.062,153.889 720,144.5C 720.599,141.746 722.099,139.746 724.5,138.5 Z"/></g>
<g><path style="opacity:0.74" fill="#040404" d="M 751.5,138.5 C 752.5,138.5 753.5,138.5 754.5,138.5C 754.334,142.514 754.501,146.514 755,150.5C 757.966,153.265 760.633,152.932 763,149.5C 763.499,145.848 763.665,142.182 763.5,138.5C 764.5,138.5 765.5,138.5 766.5,138.5C 766.5,144.167 766.5,149.833 766.5,155.5C 764.876,155.64 763.71,154.973 763,153.5C 759.136,156.25 755.469,155.916 752,152.5C 751.501,147.845 751.334,143.179 751.5,138.5 Z"/></g>
<g><path style="opacity:0.639" fill="#080808" d="M 771.5,138.5 C 774.458,139.541 777.458,139.541 780.5,138.5C 780.5,139.5 780.5,140.5 780.5,141.5C 778.61,141.297 777.11,141.963 776,143.5C 775.667,147.167 775.333,150.833 775,154.5C 773.989,155.337 772.822,155.67 771.5,155.5C 771.5,149.833 771.5,144.167 771.5,138.5 Z"/></g>
<g><path style="opacity:0.68" fill="#050505" d="M 786.5,138.5 C 793.979,136.988 797.979,139.988 798.5,147.5C 794.116,147.174 789.783,147.508 785.5,148.5C 786.652,150.825 788.485,152.158 791,152.5C 793.086,151.582 795.253,150.915 797.5,150.5C 796.554,153.83 794.22,155.496 790.5,155.5C 782.937,154.263 780.437,149.929 783,142.5C 783.69,140.65 784.856,139.316 786.5,138.5 Z M 789.5,140.5 C 792.374,140.845 794.374,142.345 795.5,145C 792.118,145.824 788.784,145.657 785.5,144.5C 786.549,142.784 787.882,141.451 789.5,140.5 Z"/></g>
<g><path style="opacity:0.691" fill="#0d0d0d" d="M 817.5,138.5 C 821.257,138.071 824.757,138.737 828,140.5C 828.049,143.557 826.883,144.057 824.5,142C 819.921,140.423 816.921,141.923 815.5,146.5C 817.622,152.657 821.455,153.99 827,150.5C 828.726,151.648 828.559,152.815 826.5,154C 817.547,157.039 813.047,153.872 813,144.5C 813.599,141.746 815.099,139.746 817.5,138.5 Z"/></g>
<g><path style="opacity:0.696" fill="#060606" d="M 842.5,138.5 C 851.658,136.835 855.825,140.501 855,149.5C 850.47,156.588 845.137,157.255 839,151.5C 837.017,146.287 838.184,141.953 842.5,138.5 Z M 843.5,141.5 C 851.162,141.027 853.496,144.193 850.5,151C 843.735,153.243 840.902,150.743 842,143.5C 842.717,142.956 843.217,142.289 843.5,141.5 Z"/></g>
<g><path style="opacity:0.699" fill="#030303" d="M 858.5,138.5 C 859.5,138.5 860.5,138.5 861.5,138.5C 861.335,142.182 861.501,145.848 862,149.5C 864.321,152.917 866.988,153.25 870,150.5C 871.266,146.605 871.766,142.605 871.5,138.5C 872.5,138.5 873.5,138.5 874.5,138.5C 874.5,144.167 874.5,149.833 874.5,155.5C 872.876,155.64 871.71,154.973 871,153.5C 865.891,156.68 861.891,155.68 859,150.5C 858.501,146.514 858.334,142.514 858.5,138.5 Z"/></g>
<g><path style="opacity:0.678" fill="#010101" d="M 713.5,138.5 C 714.5,138.5 715.5,138.5 716.5,138.5C 716.5,144.167 716.5,149.833 716.5,155.5C 715.5,155.5 714.5,155.5 713.5,155.5C 713.5,149.833 713.5,144.167 713.5,138.5 Z"/></g>
<g><path style="opacity:0.699" fill="#101010" d="M 468.5,134.5 C 469.5,134.5 470.5,134.5 471.5,134.5C 471.5,135.833 471.5,137.167 471.5,138.5C 473.288,138.215 474.955,138.548 476.5,139.5C 475.332,141.217 473.665,141.884 471.5,141.5C 471.335,144.85 471.502,148.183 472,151.5C 473.113,152.711 474.28,152.711 475.5,151.5C 478.044,152.735 478.044,153.901 475.5,155C 472.975,155.896 470.808,155.396 469,153.5C 468.667,149.167 468.333,144.833 468,140.5C 466.187,141.609 465.354,140.942 465.5,138.5C 466.5,138.5 467.5,138.5 468.5,138.5C 468.5,137.167 468.5,135.833 468.5,134.5 Z"/></g>
<g><path style="opacity:0.667" fill="#040404" d="M 564.5,144.5 C 567.5,144.5 570.5,144.5 573.5,144.5C 573.5,145.5 573.5,146.5 573.5,147.5C 570.5,147.5 567.5,147.5 564.5,147.5C 564.5,146.5 564.5,145.5 564.5,144.5 Z"/></g>
<g><path style="opacity:0.647" fill="#090909" d="M 801.5,144.5 C 804.5,144.5 807.5,144.5 810.5,144.5C 810.5,145.5 810.5,146.5 810.5,147.5C 807.5,147.5 804.5,147.5 801.5,147.5C 801.5,146.5 801.5,145.5 801.5,144.5 Z"/></g>
<g><path style="opacity:0.749" fill="#060606" d="M 692.5,138.5 C 696.739,138.776 701.072,138.943 705.5,139C 709.785,142.728 710.618,147.228 708,152.5C 704.183,155.87 700.183,156.203 696,153.5C 695.503,155.81 695.337,158.143 695.5,160.5C 694.5,160.5 693.5,160.5 692.5,160.5C 692.5,153.167 692.5,145.833 692.5,138.5 Z M 698.5,141.5 C 704.85,140.525 707.35,143.192 706,149.5C 699.412,154.509 696.078,152.842 696,144.5C 696.698,143.309 697.531,142.309 698.5,141.5 Z"/></g>
</svg>
