<?xml version="1.0" encoding="UTF-8"?>
<!DOCTYPE svg PUBLIC "-//W3C//DTD SVG 1.1//EN" "http://www.w3.org/Graphics/SVG/1.1/DTD/svg11.dtd">
<svg xmlns="http://www.w3.org/2000/svg" version="1.1" width="906px" height="275px" style="shape-rendering:geometricPrecision; text-rendering:geometricPrecision; image-rendering:optimizeQuality; fill-rule:evenodd; clip-rule:evenodd" xmlns:xlink="http://www.w3.org/1999/xlink">
<g><path style="opacity:0.733" fill="#050505" d="M 267.5,88.5 C 272.376,87.4044 274.043,89.0711 272.5,93.5C 267.134,95.4679 265.468,93.8012 267.5,88.5 Z"/></g>
<g><path style="opacity:0.808" fill="#010101" d="M 213.5,93.5 C 215.167,93.5 216.833,93.5 218.5,93.5C 218.5,95.8333 218.5,98.1667 218.5,100.5C 221.5,100.5 224.5,100.5 227.5,100.5C 227.5,101.833 227.5,103.167 227.5,104.5C 224.5,104.5 221.5,104.5 218.5,104.5C 218.253,110.541 218.586,116.541 219.5,122.5C 221.254,125.565 223.754,126.232 227,124.5C 229.783,125.886 229.95,127.386 227.5,129C 222.848,130.193 218.681,129.36 215,126.5C 213.609,119.254 213.109,111.921 213.5,104.5C 211.833,104.5 210.167,104.5 208.5,104.5C 208.5,103.167 208.5,101.833 208.5,100.5C 210.167,100.5 211.833,100.5 213.5,100.5C 213.5,98.1667 213.5,95.8333 213.5,93.5 Z"/></g>
<g><path style="opacity:0.782" fill="#0a0a09" d="M 133.5,52.5 C 134.822,52.33 135.989,52.6634 137,53.5C 146.513,68.533 156.013,83.533 165.5,98.5C 173.57,98.758 179.403,102.425 183,109.5C 183.657,115.434 183.157,121.267 181.5,127C 183.292,142.504 184.959,158.004 186.5,173.5C 194.665,172.164 197.831,175.497 196,183.5C 193.369,187.629 189.869,188.462 185.5,186C 184.277,183.948 183.277,181.781 182.5,179.5C 168.422,183.155 154.255,186.488 140,189.5C 111.435,180.463 82.9346,171.297 54.5,162C 53.4844,161.481 52.8178,160.647 52.5,159.5C 58.23,138.476 64.0634,117.476 70,96.5C 91.3456,81.9703 112.512,67.3036 133.5,52.5 Z M 146.5,98.5 C 148.027,98.427 149.027,99.0937 149.5,100.5C 147.973,100.573 146.973,99.9063 146.5,98.5 Z M 136.5,90.5 C 138.404,90.7376 139.738,91.7376 140.5,93.5C 138.596,93.2624 137.262,92.2624 136.5,90.5 Z M 131.5,86.5 C 133.404,86.7376 134.738,87.7376 135.5,89.5C 133.596,89.2624 132.262,88.2624 131.5,86.5 Z M 125.5,81.5 C 127.749,82.0798 129.415,83.4131 130.5,85.5C 128.251,84.9202 126.585,83.5869 125.5,81.5 Z M 119.5,76.5 C 121.749,77.0798 123.415,78.4131 124.5,80.5C 122.251,79.9202 120.585,78.5869 119.5,76.5 Z M 180.5,170.5 C 156.311,159.741 132.311,148.407 108.5,136.5C 107.908,128.752 108.574,121.085 110.5,113.5C 112.041,101.076 114.041,88.7425 116.5,76.5C 128.856,86.69 141.356,96.69 154,106.5C 150.836,124.837 158.336,132.17 176.5,128.5C 178.2,142.464 179.533,156.464 180.5,170.5 Z M 108.5,75.5 C 107.907,82.8406 107.24,90.174 106.5,97.5C 103.781,110.259 101.781,123.259 100.5,136.5C 92.6034,139.46 84.9367,142.793 77.5,146.5C 71.1667,149.167 64.8333,151.833 58.5,154.5C 60.0403,147.464 61.707,140.464 63.5,133.5C 64.404,132.791 64.7373,131.791 64.5,130.5C 67.7177,120.305 70.8843,109.971 74,99.5C 77.145,96.6962 80.3117,94.0296 83.5,91.5C 86.9432,89.8956 90.2766,88.0623 93.5,86C 94.7101,84.9609 95.7101,83.7942 96.5,82.5C 99.1979,82.1551 101.198,80.8218 102.5,78.5C 104.5,77.5 106.5,76.5 108.5,75.5 Z M 118.5,75.5 C 117.417,75.4606 116.417,75.1272 115.5,74.5C 112.918,87.3958 110.918,100.396 109.5,113.5C 108.062,120.885 106.729,128.385 105.5,136C 130.62,148.644 155.787,161.144 181,173.5C 182.546,172.497 182.713,171.497 181.5,170.5C 180.911,163.515 180.578,156.515 180.5,149.5C 182.139,157.954 183.139,166.621 183.5,175.5C 182.833,175.5 182.167,175.5 181.5,175.5C 155.958,162.48 130.125,149.813 104,137.5C 105.507,124.793 107.34,112.126 109.5,99.5C 110.458,90.0872 111.958,80.7539 114,71.5C 115.992,72.3281 117.492,73.6614 118.5,75.5 Z M 136.5,57.5 C 138.451,58.7158 139.951,60.3825 141,62.5C 148.833,75 156.667,87.5 164.5,100C 162.101,100.731 159.935,101.898 158,103.5C 151,97.5 144,91.5 137,85.5C 136.5,76.1726 136.334,66.8393 136.5,57.5 Z M 133.5,54.5 C 134.658,63.9911 134.825,73.6578 134,83.5C 128.266,79.5654 123.099,75.0654 118.5,70C 123.581,65.0832 128.581,59.9166 133.5,54.5 Z M 151.5,102.5 C 153.027,102.427 154.027,103.094 154.5,104.5C 152.973,104.573 151.973,103.906 151.5,102.5 Z M 130.5,104.5 C 136.961,103.141 141.461,105.475 144,111.5C 144.211,123.629 138.711,127.462 127.5,123C 122.291,115.97 123.291,109.804 130.5,104.5 Z M 173.5,114.5 C 169.715,112.097 166.048,109.43 162.5,106.5C 163.869,104.876 165.536,104.376 167.5,105C 169.636,108.11 171.636,111.277 173.5,114.5 Z M 169.5,105.5 C 171.936,104.428 174.103,105.095 176,107.5C 178.33,110.459 178.996,113.793 178,117.5C 175.304,113.32 172.47,109.32 169.5,105.5 Z M 165.5,113.5 C 163.456,112.969 161.789,111.802 160.5,110C 162.772,110.077 164.438,111.243 165.5,113.5 Z M 172.5,120.5 C 172.577,121.75 173.244,122.583 174.5,123C 167.915,126.808 162.748,125.308 159,118.5C 158.333,115.833 158.333,113.167 159,110.5C 163.114,114.461 167.614,117.794 172.5,120.5 Z M 166.5,114.5 C 168.404,114.738 169.738,115.738 170.5,117.5C 168.596,117.262 167.262,116.262 166.5,114.5 Z M 171.5,118.5 C 173.196,118.685 174.529,119.519 175.5,121C 174.423,121.47 173.423,121.303 172.5,120.5C 172.167,119.833 171.833,119.167 171.5,118.5 Z M 179.5,141.5 C 178.317,137.014 177.817,132.348 178,127.5C 179.437,131.972 179.937,136.639 179.5,141.5 Z M 181.5,176.5 C 179.842,178.654 177.842,178.987 175.5,177.5C 151.48,165.142 127.146,153.142 102.5,141.5C 96.2208,144.136 90.2208,147.136 84.5,150.5C 80.8976,150.692 77.8976,152.026 75.5,154.5C 71.9336,154.792 68.9336,156.126 66.5,158.5C 64.1346,159.008 61.8013,159.675 59.5,160.5C 58.1667,159.833 58.1667,159.167 59.5,158.5C 66.8594,155.152 74.1928,151.819 81.5,148.5C 87.8073,145.681 94.1406,142.848 100.5,140C 101.833,139.333 103.167,139.333 104.5,140C 129.915,152.708 155.582,164.874 181.5,176.5 Z M 174.5,178.5 C 164.149,180.504 153.816,182.67 143.5,185C 141.5,185.667 139.5,185.667 137.5,185C 112.738,177.309 88.0715,169.309 63.5,161C 64.9423,160.623 65.9423,159.79 66.5,158.5C 69.7704,157.611 72.7704,156.277 75.5,154.5C 78.6975,153.548 81.6975,152.215 84.5,150.5C 89.9148,148.629 95.2482,146.462 100.5,144C 101.833,143.333 103.167,143.333 104.5,144C 128.242,154.847 151.575,166.347 174.5,178.5 Z M 55.5,156.5 C 59.2434,156.459 59.4101,157.126 56,158.5C 55.5357,157.906 55.369,157.239 55.5,156.5 Z"/></g>
<g><path style="opacity:0.837" fill="#040404" d="M 131.5,99.5 C 144.472,99.3037 150.305,105.637 149,118.5C 145.898,127.997 139.398,131.497 129.5,129C 127.152,128.654 125.319,127.487 124,125.5C 123.501,130.155 123.334,134.821 123.5,139.5C 122.167,139.5 120.833,139.5 119.5,139.5C 119.5,126.5 119.5,113.5 119.5,100.5C 120.833,100.5 122.167,100.5 123.5,100.5C 123.343,101.873 123.51,103.207 124,104.5C 126.17,102.177 128.67,100.51 131.5,99.5 Z M 130.5,104.5 C 123.291,109.804 122.291,115.97 127.5,123C 138.711,127.462 144.211,123.629 144,111.5C 141.461,105.475 136.961,103.141 130.5,104.5 Z"/></g>
<g><path style="opacity:0.793" fill="#030303" d="M 242.5,99.5 C 248.164,98.8877 252.998,100.554 257,104.5C 257.5,112.827 257.666,121.16 257.5,129.5C 255.508,129.672 253.842,129.005 252.5,127.5C 247.994,129.384 243.327,129.884 238.5,129C 231.462,124.814 230.795,119.814 236.5,114C 242.072,112.649 247.738,112.149 253.5,112.5C 253.565,109.154 252.232,106.654 249.5,105C 244.725,103.841 240.392,104.674 236.5,107.5C 232.622,105.599 232.622,103.766 236.5,102C 238.611,101.155 240.611,100.322 242.5,99.5 Z M 240.5,116.5 C 244.833,116.5 249.167,116.5 253.5,116.5C 253.509,122.491 250.509,125.491 244.5,125.5C 238.279,124.773 236.946,121.773 240.5,116.5 Z"/></g>
<g><path style="opacity:0.861" fill="#040404" d="M 294.5,99.5 C 299.801,99.0993 304.301,100.766 308,104.5C 309.406,112.749 309.906,121.083 309.5,129.5C 308.167,129.5 306.833,129.5 305.5,129.5C 305.884,122.411 305.384,115.411 304,108.5C 298.36,102.953 293.027,103.286 288,109.5C 286.726,116.103 286.226,122.77 286.5,129.5C 285.167,129.5 283.833,129.5 282.5,129.5C 282.5,119.833 282.5,110.167 282.5,100.5C 283.833,100.5 285.167,100.5 286.5,100.5C 286.281,101.675 286.614,102.675 287.5,103.5C 289.525,101.436 291.858,100.102 294.5,99.5 Z"/></g>
<g><path style="opacity:0.771" fill="#070707" d="M 328.5,99.5 C 335.406,98.9277 340.573,101.594 344,107.5C 344.373,109.698 344.873,111.865 345.5,114C 345.355,114.772 345.022,115.439 344.5,116C 336.92,116.813 329.42,116.647 322,115.5C 322.21,121.659 325.543,124.993 332,125.5C 335.455,125.129 338.455,123.795 341,121.5C 344.286,123.809 344.119,125.976 340.5,128C 323.469,133.097 315.636,126.93 317,109.5C 319.245,104.157 323.078,100.824 328.5,99.5 Z M 326.5,104.5 C 333.101,103.134 337.768,105.467 340.5,111.5C 334.202,112.496 327.868,112.83 321.5,112.5C 321.351,111.448 321.517,110.448 322,109.5C 323.707,107.963 325.207,106.296 326.5,104.5 Z"/></g>
<g><path style="opacity:0.814" fill="#070707" d="M 363.5,99.5 C 364.833,99.5 366.167,99.5 367.5,99.5C 367.5,101.167 367.5,102.833 367.5,104.5C 362.938,104.361 359.771,106.361 358,110.5C 357.5,116.825 357.334,123.158 357.5,129.5C 355.833,129.5 354.167,129.5 352.5,129.5C 352.5,119.833 352.5,110.167 352.5,100.5C 353.833,100.5 355.167,100.5 356.5,100.5C 356.281,101.675 356.614,102.675 357.5,103.5C 359.29,101.684 361.29,100.351 363.5,99.5 Z"/></g>
<g><path style="opacity:0.83" fill="#070607" d="M 202.5,99.5 C 203.5,99.5 204.5,99.5 205.5,99.5C 205.5,101.167 205.5,102.833 205.5,104.5C 200.977,104.345 197.811,106.345 196,110.5C 195.5,116.825 195.334,123.158 195.5,129.5C 193.833,129.5 192.167,129.5 190.5,129.5C 190.5,119.833 190.5,110.167 190.5,100.5C 192.167,100.5 193.833,100.5 195.5,100.5C 195.351,101.552 195.517,102.552 196,103.5C 197.792,101.372 199.958,100.039 202.5,99.5 Z"/></g>
<g><path style="opacity:0.829" fill="#010101" d="M 267.5,100.5 C 269.167,100.5 270.833,100.5 272.5,100.5C 272.5,110.167 272.5,119.833 272.5,129.5C 270.833,129.5 269.167,129.5 267.5,129.5C 267.5,119.833 267.5,110.167 267.5,100.5 Z"/></g>
<g><path style="opacity:0.881" fill="#050505" d="M 842.5,110.5 C 845.833,110.5 849.167,110.5 852.5,110.5C 843.306,138.248 833.806,165.915 824,193.5C 820.851,195.362 817.351,196.029 813.5,195.5C 822.321,166.862 831.988,138.529 842.5,110.5 Z"/></g>
<g><path style="opacity:0.926" fill="#010101" d="M 367.5,119.5 C 370.833,119.5 374.167,119.5 377.5,119.5C 377.334,126.841 377.5,134.174 378,141.5C 386.208,135.653 394.708,135.153 403.5,140C 407.39,142.596 410.223,146.096 412,150.5C 412.5,162.495 412.667,174.495 412.5,186.5C 408.833,186.5 405.167,186.5 401.5,186.5C 401.667,175.495 401.5,164.495 401,153.5C 399.065,149.198 395.732,147.198 391,147.5C 385.847,147.216 381.847,149.216 379,153.5C 377.65,164.451 377.15,175.451 377.5,186.5C 374.167,186.5 370.833,186.5 367.5,186.5C 367.5,164.167 367.5,141.833 367.5,119.5 Z"/></g>
<g><path style="opacity:0.956" fill="#000000" d="M 474.5,119.5 C 477.833,119.5 481.167,119.5 484.5,119.5C 484.5,141.833 484.5,164.167 484.5,186.5C 481.167,186.5 477.833,186.5 474.5,186.5C 474.5,164.167 474.5,141.833 474.5,119.5 Z"/></g>
<g><path style="opacity:0.88" fill="#010101" d="M 497.5,119.5 C 501.167,119.5 504.833,119.5 508.5,119.5C 508.5,141.833 508.5,164.167 508.5,186.5C 504.833,186.5 501.167,186.5 497.5,186.5C 497.5,164.167 497.5,141.833 497.5,119.5 Z"/></g>
<g><path style="opacity:0.845" fill="#020202" d="M 780.5,119.5 C 790.766,119.262 793.099,123.428 787.5,132C 777.102,132.471 774.768,128.305 780.5,119.5 Z"/></g>
<g><path style="opacity:0.889" fill="#010101" d="M 801.5,119.5 C 805.167,119.5 808.833,119.5 812.5,119.5C 812.5,141.833 812.5,164.167 812.5,186.5C 808.833,186.5 805.167,186.5 801.5,186.5C 801.5,164.167 801.5,141.833 801.5,119.5 Z"/></g>
<g><path style="opacity:0.896" fill="#040404" d="M 228.5,136.5 C 248.907,138.755 257.407,150.089 254,170.5C 249.139,183.004 239.972,188.504 226.5,187C 222.674,186.168 219.174,184.668 216,182.5C 215.5,189.158 215.334,195.825 215.5,202.5C 211.833,202.5 208.167,202.5 204.5,202.5C 204.333,181.164 204.5,159.831 205,138.5C 208.394,137.544 211.894,137.211 215.5,137.5C 215.238,138.978 215.571,140.311 216.5,141.5C 220.27,139.028 224.27,137.362 228.5,136.5 Z M 229.5,146.5 C 238.581,147.917 243.581,153.25 244.5,162.5C 242.5,174.009 235.834,178.509 224.5,176C 215.675,170.517 213.508,163.017 218,153.5C 221.274,149.959 225.107,147.626 229.5,146.5 Z"/></g>
<g><path style="opacity:0.904" fill="#040404" d="M 339.5,136.5 C 349.055,136.603 356.055,140.769 360.5,149C 358.198,150.824 355.865,152.658 353.5,154.5C 345.782,145.437 337.615,144.771 329,152.5C 323.831,160.99 324.998,168.49 332.5,175C 340.867,178.878 347.7,177.044 353,169.5C 355.858,171.365 358.358,173.532 360.5,176C 358.446,181.052 354.779,184.385 349.5,186C 329.722,190.118 318.056,182.285 314.5,162.5C 316.108,147.227 324.442,138.56 339.5,136.5 Z"/></g>
<g><path style="opacity:0.898" fill="#030303" d="M 440.5,136.5 C 449.65,136.154 456.484,139.821 461,147.5C 462.443,160.426 462.943,173.426 462.5,186.5C 459.167,186.5 455.833,186.5 452.5,186.5C 452.649,185.448 452.483,184.448 452,183.5C 441.579,189.405 431.913,188.405 423,180.5C 417.269,166.882 421.769,159.048 436.5,157C 441.489,156.501 446.489,156.334 451.5,156.5C 451.231,150.231 447.898,146.898 441.5,146.5C 435.778,147.611 430.611,149.944 426,153.5C 424.247,150.995 422.747,148.329 421.5,145.5C 422.313,144.186 423.313,143.019 424.5,142C 429.639,139.226 434.972,137.393 440.5,136.5 Z M 440.5,165.5 C 444.182,165.335 447.848,165.501 451.5,166C 452.672,167.868 452.505,169.702 451,171.5C 446.451,177.537 440.618,179.037 433.5,176C 431.556,173.847 431.056,171.347 432,168.5C 434.804,167.132 437.638,166.132 440.5,165.5 Z"/></g>
<g><path style="opacity:0.896" fill="#030303" d="M 536.5,136.5 C 544.425,136.716 550.925,139.716 556,145.5C 556.667,147.5 557.333,149.5 558,151.5C 558.5,163.162 558.667,174.829 558.5,186.5C 554.241,186.997 550.241,186.331 546.5,184.5C 535.778,189.455 526.278,187.788 518,179.5C 513.763,166.74 518.263,159.24 531.5,157C 536.823,156.501 542.156,156.334 547.5,156.5C 547.231,150.231 543.898,146.898 537.5,146.5C 531.778,147.611 526.611,149.944 522,153.5C 520.23,150.958 518.73,148.291 517.5,145.5C 518.01,143.912 519.01,142.745 520.5,142C 525.639,139.226 530.972,137.393 536.5,136.5 Z M 536.5,165.5 C 540.106,165.211 543.606,165.544 547,166.5C 547.421,174.079 543.755,177.746 536,177.5C 529.364,177.87 526.697,174.87 528,168.5C 530.804,167.132 533.638,166.132 536.5,165.5 Z"/></g>
<g><path style="opacity:0.906" fill="#020202" d="M 660.5,136.5 C 667.975,136.373 674.142,139.04 679,144.5C 691.479,133.387 703.146,134.054 714,146.5C 714.973,148.392 715.64,150.392 716,152.5C 716.5,163.828 716.667,175.162 716.5,186.5C 712.833,186.5 709.167,186.5 705.5,186.5C 705.667,175.162 705.5,163.828 705,152.5C 700.402,147.355 694.902,146.188 688.5,149C 686.622,150.543 685.122,152.376 684,154.5C 682.597,165.102 682.097,175.769 682.5,186.5C 678.833,186.5 675.167,186.5 671.5,186.5C 671.667,175.162 671.5,163.828 671,152.5C 664.479,145.954 657.813,145.954 651,152.5C 650.178,154.788 649.511,157.122 649,159.5C 648.5,168.494 648.334,177.494 648.5,186.5C 645.167,186.5 641.833,186.5 638.5,186.5C 638.5,170.167 638.5,153.833 638.5,137.5C 641.833,137.5 645.167,137.5 648.5,137.5C 648.343,138.873 648.51,140.207 649,141.5C 652.723,139.324 656.556,137.657 660.5,136.5 Z"/></g>
<g><path style="opacity:0.903" fill="#030303" d="M 744.5,136.5 C 754.661,136.153 761.828,140.487 766,149.5C 766.5,161.829 766.667,174.162 766.5,186.5C 763.167,186.5 759.833,186.5 756.5,186.5C 756.649,185.448 756.483,184.448 756,183.5C 747.629,188.645 739.129,188.812 730.5,184C 722.5,176 722.5,168 730.5,160C 738.886,157.097 747.553,155.764 756.5,156C 753.681,147.613 748.014,144.946 739.5,148C 736.368,149.635 733.368,151.468 730.5,153.5C 728.833,150.833 727.167,148.167 725.5,145.5C 730.731,140.05 737.064,137.05 744.5,136.5 Z M 744.5,165.5 C 757.162,162.953 759.495,166.453 751.5,176C 745.956,178.42 740.789,177.92 736,174.5C 734.959,171.364 735.793,168.864 738.5,167C 740.708,166.809 742.708,166.309 744.5,165.5 Z"/></g>
<g><path style="opacity:0.892" fill="#020202" d="M 262.5,137.5 C 265.833,137.5 269.167,137.5 272.5,137.5C 272.174,148.877 272.674,160.21 274,171.5C 278.829,177.498 284.662,178.664 291.5,175C 293.81,173.363 295.31,171.196 296,168.5C 296.5,158.172 296.666,147.839 296.5,137.5C 300.167,137.5 303.833,137.5 307.5,137.5C 307.5,153.833 307.5,170.167 307.5,186.5C 304.167,186.5 300.833,186.5 297.5,186.5C 297.719,185.325 297.386,184.325 296.5,183.5C 286.224,189.152 276.39,188.486 267,181.5C 264.212,177.252 262.545,172.586 262,167.5C 261.193,157.423 261.36,147.423 262.5,137.5 Z"/></g>
<g><path style="opacity:0.897" fill="#030303" d="M 604.5,136.5 C 622.771,138.108 631.438,148.108 630.5,166.5C 618.162,166.333 605.829,166.5 593.5,167C 597.957,175.822 604.957,178.822 614.5,176C 617.52,173.999 620.52,172.332 623.5,171C 624.975,173.309 626.642,175.476 628.5,177.5C 623.362,184.152 616.529,187.485 608,187.5C 592.142,186.309 583.642,177.809 582.5,162C 583.292,147.716 590.625,139.216 604.5,136.5 Z M 604.5,146.5 C 611.933,146.797 616.933,150.297 619.5,157C 610.833,157.667 602.167,157.667 593.5,157C 595.737,151.928 599.404,148.428 604.5,146.5 Z"/></g>
<g><path style="opacity:0.87" fill="#030303" d="M 778.5,137.5 C 782.106,137.211 785.606,137.544 789,138.5C 789.5,154.497 789.667,170.497 789.5,186.5C 785.833,186.5 782.167,186.5 778.5,186.5C 778.5,170.167 778.5,153.833 778.5,137.5 Z"/></g>
<g><path style="opacity:0.125" fill="#232223" d="M 175.5,177.5 C 175.5,178.167 175.167,178.5 174.5,178.5C 151.575,166.347 128.242,154.847 104.5,144C 103.167,143.333 101.833,143.333 100.5,144C 95.2482,146.462 89.9148,148.629 84.5,150.5C 90.2208,147.136 96.2208,144.136 102.5,141.5C 127.146,153.142 151.48,165.142 175.5,177.5 Z"/></g>
<g><path style="opacity:0.188" fill="#161616" d="M 84.5,150.5 C 81.6975,152.215 78.6975,153.548 75.5,154.5C 77.8976,152.026 80.8976,150.692 84.5,150.5 Z"/></g>
<g><path style="opacity:0.346" fill="#1c1b1d" d="M 106.5,97.5 C 107.167,97.5 107.5,97.8333 107.5,98.5C 106.663,105.141 106.663,105.474 107.5,99.5C 108.167,99.5 108.833,99.5 109.5,99.5C 107.34,112.126 105.507,124.793 104,137.5C 130.125,149.813 155.958,162.48 181.5,175.5C 181.5,175.833 181.5,176.167 181.5,176.5C 155.582,164.874 129.915,152.708 104.5,140C 103.167,139.333 101.833,139.333 100.5,140C 94.1406,142.848 87.8073,145.681 81.5,148.5C 81.5,147.833 81.1667,147.5 80.5,147.5C 79.791,146.596 78.791,146.263 77.5,146.5C 84.9367,142.793 92.6034,139.46 100.5,136.5C 101.781,123.259 103.781,110.259 106.5,97.5 Z"/></g>
<g><path style="opacity:0.135" fill="#242324" d="M 109.5,113.5 C 109.833,113.5 110.167,113.5 110.5,113.5C 108.574,121.085 107.908,128.752 108.5,136.5C 132.311,148.407 156.311,159.741 180.5,170.5C 180.833,170.5 181.167,170.5 181.5,170.5C 182.713,171.497 182.546,172.497 181,173.5C 155.787,161.144 130.62,148.644 105.5,136C 106.729,128.385 108.062,120.885 109.5,113.5 Z"/></g>
<g><path style="opacity:0.204" fill="#161516" d="M 75.5,154.5 C 72.7704,156.277 69.7704,157.611 66.5,158.5C 68.9336,156.126 71.9336,154.792 75.5,154.5 Z"/></g>
<g><path style="opacity:0.865" fill="#060606" d="M 569.5,173.5 C 575.295,172.137 578.961,174.304 580.5,180C 577.752,188.281 573.252,189.447 567,183.5C 565.861,179.579 566.695,176.246 569.5,173.5 Z"/></g>
<g><path style="opacity:0.943" fill="#010101" d="M 130.5,195.5 C 150.744,196.949 170.744,199.949 190.5,204.5C 159.064,210.434 127.564,216.101 96,221.5C 81.2906,215.727 67.4572,208.227 54.5,199C 79.9704,197.81 105.304,196.643 130.5,195.5 Z"/></g>
</svg>
