<?xml version="1.0" encoding="UTF-8"?>
<!DOCTYPE svg PUBLIC "-//W3C//DTD SVG 1.1//EN" "http://www.w3.org/Graphics/SVG/1.1/DTD/svg11.dtd">
<svg xmlns="http://www.w3.org/2000/svg" version="1.1" width="2000px" height="609px" style="shape-rendering:geometricPrecision; text-rendering:geometricPrecision; image-rendering:optimizeQuality; fill-rule:evenodd; clip-rule:evenodd" xmlns:xlink="http://www.w3.org/1999/xlink">
<g><path style="opacity:0.723" fill="#fefffe" d="M 297.5,116.5 C 298.675,116.281 299.675,116.614 300.5,117.5C 322.958,152.248 345.291,187.082 367.5,222C 395.544,222.702 407.711,236.869 404,264.5C 403.171,268.161 401.671,271.495 399.5,274.5C 403.92,312.115 408.087,349.782 412,387.5C 420.431,382.974 427.431,384.641 433,392.5C 436.837,404.842 432.503,412.175 420,414.5C 410.498,413.495 405.665,408.162 405.5,398.5C 373.514,405.496 341.514,412.496 309.5,419.5C 245.808,399.103 182.142,378.603 118.5,358C 117.422,357.326 116.755,356.326 116.5,355C 129.53,308.076 142.864,261.243 156.5,214.5C 189.553,190.649 223.22,167.816 257.5,146C 271.079,136.39 284.412,126.556 297.5,116.5 Z M 297.5,119.5 C 298.663,142.33 298.83,165.33 298,188.5C 285.035,177.942 272.201,167.275 259.5,156.5C 272.187,144.145 284.854,131.812 297.5,119.5 Z M 300.5,121.5 C 322.018,155.354 343.684,189.187 365.5,223C 359.594,224.037 354.427,226.537 350,230.5C 333.957,216.788 317.624,203.455 301,190.5C 300.5,167.502 300.333,144.502 300.5,121.5 Z M 280.5,132.5 C 272.826,140.338 264.66,147.671 256,154.5C 255.167,153.667 254.333,152.833 253.5,152C 262.117,144.869 271.117,138.369 280.5,132.5 Z M 247.5,156.5 C 241.164,206.015 233.998,255.682 226,305.5C 191.667,321.167 157.333,336.833 123,352.5C 134.654,307.523 147.154,262.689 160.5,218C 189.536,197.488 218.536,176.988 247.5,156.5 Z M 314.5,213.5 C 302.905,203.364 290.905,193.698 278.5,184.5C 271.169,177.842 263.502,171.509 255.5,165.5C 248.005,211.129 241.172,256.796 235,302.5C 290.247,329.692 345.58,356.692 401,383.5C 401.87,382.892 402.37,382.059 402.5,381C 398.797,348.51 395.131,316.01 391.5,283.5C 392.278,281.853 393.444,280.52 395,279.5C 399.705,316.887 403.538,354.22 406.5,391.5C 347.5,363 288.5,334.5 229.5,306C 235.803,256.217 242.969,206.384 251,156.5C 282.833,182.333 314.667,208.167 346.5,234C 345.687,235.885 344.353,236.551 342.5,236C 333.581,227.907 324.248,220.407 314.5,213.5 Z M 217.5,305.5 C 210.433,307.739 203.766,310.739 197.5,314.5C 194.088,315.042 191.088,316.375 188.5,318.5C 184.418,319.376 180.751,321.043 177.5,323.5C 174.088,324.042 171.088,325.375 168.5,327.5C 164.418,328.376 160.751,330.043 157.5,332.5C 154.088,333.042 151.088,334.375 148.5,336.5C 144.418,337.376 140.751,339.043 137.5,341.5C 134.088,342.042 131.088,343.375 128.5,345.5C 127.903,345.265 127.57,344.765 127.5,344C 129.053,339.953 130.053,335.787 130.5,331.5C 131.924,329.485 132.59,327.152 132.5,324.5C 133.924,322.485 134.59,320.152 134.5,317.5C 135.924,315.485 136.59,313.152 136.5,310.5C 137.924,308.485 138.59,306.152 138.5,303.5C 139.924,301.485 140.59,299.152 140.5,296.5C 141.924,294.485 142.59,292.152 142.5,289.5C 148.944,269.821 154.611,249.821 159.5,229.5C 160.924,227.485 161.59,225.152 161.5,222.5C 162.308,220.78 163.308,219.113 164.5,217.5C 167.37,216.567 169.704,214.9 171.5,212.5C 173.027,212.573 174.027,211.906 174.5,210.5C 176.027,210.573 177.027,209.906 177.5,208.5C 180.37,207.567 182.704,205.9 184.5,203.5C 186.027,203.573 187.027,202.906 187.5,201.5C 189.027,201.573 190.027,200.906 190.5,199.5C 194.392,197.938 197.725,195.605 200.5,192.5C 202.027,192.573 203.027,191.906 203.5,190.5C 207.392,188.938 210.725,186.605 213.5,183.5C 215.027,183.573 216.027,182.906 216.5,181.5C 218.027,181.573 219.027,180.906 219.5,179.5C 222.37,178.567 224.704,176.9 226.5,174.5C 228.027,174.573 229.027,173.906 229.5,172.5C 231.027,172.573 232.027,171.906 232.5,170.5C 235.37,169.567 237.704,167.9 239.5,165.5C 240.496,165.586 241.329,165.252 242,164.5C 236.207,210.593 229.541,256.593 222,302.5C 220.348,303.399 218.848,304.399 217.5,305.5 Z M 278.5,184.5 C 278.414,185.496 278.748,186.329 279.5,187C 289.833,195.333 300.167,203.667 310.5,212C 311.745,212.791 313.078,213.291 314.5,213.5C 314.414,214.496 314.748,215.329 315.5,216C 324.978,223.31 334.311,230.81 343.5,238.5C 335.408,258.387 340.408,273.887 358.5,285C 369.048,288.648 379.382,288.148 389.5,283.5C 394.208,316.036 397.708,348.703 400,381.5C 346.032,354.766 291.866,328.433 237.5,302.5C 237.167,301.333 236.833,300.167 236.5,299C 242.721,255.123 249.221,211.289 256,167.5C 262.074,172.786 268.241,177.952 274.5,183C 275.745,183.791 277.078,184.291 278.5,184.5 Z M 296.5,230.5 C 316.197,234.38 323.364,246.046 318,265.5C 309.533,279.071 298.033,282.238 283.5,275C 270.167,261.667 270.167,248.333 283.5,235C 287.715,232.763 292.048,231.263 296.5,230.5 Z M 387.5,259.5 C 378.061,252.573 368.728,245.406 359.5,238C 358.549,237.282 358.383,236.449 359,235.5C 362.369,232.728 366.203,231.561 370.5,232C 376.815,240.804 382.482,249.97 387.5,259.5 Z M 373.5,232.5 C 381.485,231.239 387.652,234.239 392,241.5C 395.732,248.881 396.398,256.548 394,264.5C 387.392,253.599 380.558,242.932 373.5,232.5 Z M 381.5,267.5 C 372.21,259.886 362.877,252.22 353.5,244.5C 352.051,241.984 352.718,240.817 355.5,241C 367.167,250.5 378.833,260 390.5,269.5C 390.081,270.672 389.415,271.672 388.5,272.5C 386.313,270.578 383.98,268.912 381.5,267.5 Z M 381.5,267.5 C 382.802,269.69 384.469,271.69 386.5,273.5C 384.543,275.485 382.21,276.985 379.5,278C 364.468,280.74 354.635,274.906 350,260.5C 349.412,255.472 349.578,250.472 350.5,245.5C 360.111,251.33 369.111,258.163 377.5,266C 378.745,266.791 380.078,267.291 381.5,267.5 Z M 392.5,395.5 C 338.503,368.503 284.17,342.003 229.5,316C 224.576,315.795 220.243,317.295 216.5,320.5C 213.088,321.042 210.088,322.375 207.5,324.5C 200.433,326.739 193.766,329.739 187.5,333.5C 184.088,334.042 181.088,335.375 178.5,337.5C 174.418,338.376 170.751,340.043 167.5,342.5C 164.088,343.042 161.088,344.375 158.5,346.5C 154.418,347.376 150.751,349.043 147.5,351.5C 144.088,352.042 141.088,353.375 138.5,355.5C 136.821,355.285 135.821,355.952 135.5,357.5C 131.526,357.231 127.86,356.064 124.5,354C 158.741,338.629 192.908,323.129 227,307.5C 285.757,336.128 344.59,364.628 403.5,393C 400.013,394.622 396.346,395.455 392.5,395.5 Z M 138.5,355.5 C 141.912,354.958 144.912,353.625 147.5,351.5C 151.582,350.624 155.249,348.957 158.5,346.5C 161.912,345.958 164.912,344.625 167.5,342.5C 171.582,341.624 175.249,339.957 178.5,337.5C 181.912,336.958 184.912,335.625 187.5,333.5C 194.567,331.261 201.234,328.261 207.5,324.5C 210.912,323.958 213.912,322.625 216.5,320.5C 220.478,318.996 224.478,317.83 228.5,317C 282.044,343.272 335.711,369.272 389.5,395C 364.167,400.667 338.833,406.333 313.5,412C 311.167,412.667 308.833,412.667 306.5,412C 250.167,393.667 193.833,375.333 137.5,357C 138.056,356.617 138.389,356.117 138.5,355.5 Z"/></g>
<g><path style="opacity:0.332" fill="#fefffe" d="M 217.5,305.5 C 218.848,304.399 220.348,303.399 222,302.5C 229.541,256.593 236.207,210.593 242,164.5C 241.329,165.252 240.496,165.586 239.5,165.5C 240.755,163.359 242.422,162.693 244.5,163.5C 237.473,210.185 230.307,256.852 223,303.5C 221.416,304.861 219.582,305.528 217.5,305.5 Z"/></g>
<g><path style="opacity:0.342" fill="#fefffe" d="M 239.5,165.5 C 237.704,167.9 235.37,169.567 232.5,170.5C 234.296,168.1 236.63,166.433 239.5,165.5 Z"/></g>
<g><path style="opacity:0.314" fill="#fefffe" d="M 232.5,170.5 C 232.027,171.906 231.027,172.573 229.5,172.5C 229.973,171.094 230.973,170.427 232.5,170.5 Z"/></g>
<g><path style="opacity:0.314" fill="#fefffe" d="M 229.5,172.5 C 229.027,173.906 228.027,174.573 226.5,174.5C 226.973,173.094 227.973,172.427 229.5,172.5 Z"/></g>
<g><path style="opacity:0.342" fill="#fefffe" d="M 226.5,174.5 C 224.704,176.9 222.37,178.567 219.5,179.5C 221.296,177.1 223.63,175.433 226.5,174.5 Z"/></g>
<g><path style="opacity:0.314" fill="#fefffe" d="M 219.5,179.5 C 219.027,180.906 218.027,181.573 216.5,181.5C 216.973,180.094 217.973,179.427 219.5,179.5 Z"/></g>
<g><path style="opacity:0.282" fill="#fefffe" d="M 216.5,181.5 C 216.027,182.906 215.027,183.573 213.5,183.5C 213.973,182.094 214.973,181.427 216.5,181.5 Z"/></g>
<g><path style="opacity:0.345" fill="#fefffe" d="M 213.5,183.5 C 210.725,186.605 207.392,188.938 203.5,190.5C 206.275,187.395 209.608,185.062 213.5,183.5 Z"/></g>
<g><path style="opacity:0.281" fill="#fefffe" d="M 278.5,184.5 C 290.905,193.698 302.905,203.364 314.5,213.5C 313.078,213.291 311.745,212.791 310.5,212C 300.167,203.667 289.833,195.333 279.5,187C 278.748,186.329 278.414,185.496 278.5,184.5 Z"/></g>
<g><path style="opacity:0.314" fill="#fefffe" d="M 203.5,190.5 C 203.027,191.906 202.027,192.573 200.5,192.5C 200.973,191.094 201.973,190.427 203.5,190.5 Z"/></g>
<g><path style="opacity:0.345" fill="#fefffe" d="M 200.5,192.5 C 197.725,195.605 194.392,197.938 190.5,199.5C 193.275,196.395 196.608,194.062 200.5,192.5 Z"/></g>
<g><path style="opacity:0.843" fill="#fefffe" d="M 592.5,196.5 C 600.321,194.833 603.821,197.833 603,205.5C 599.34,210.251 595.34,210.585 591,206.5C 590.037,202.851 590.537,199.518 592.5,196.5 Z"/></g>
<g><path style="opacity:0.314" fill="#fefffe" d="M 190.5,199.5 C 190.027,200.906 189.027,201.573 187.5,201.5C 187.973,200.094 188.973,199.427 190.5,199.5 Z"/></g>
<g><path style="opacity:0.376" fill="#fefffe" d="M 187.5,201.5 C 187.027,202.906 186.027,203.573 184.5,203.5C 184.973,202.094 185.973,201.427 187.5,201.5 Z"/></g>
<g><path style="opacity:0.342" fill="#fefffe" d="M 184.5,203.5 C 182.704,205.9 180.37,207.567 177.5,208.5C 179.296,206.1 181.63,204.433 184.5,203.5 Z"/></g>
<g><path style="opacity:0.314" fill="#fefffe" d="M 177.5,208.5 C 177.027,209.906 176.027,210.573 174.5,210.5C 174.973,209.094 175.973,208.427 177.5,208.5 Z"/></g>
<g><path style="opacity:0.902" fill="#fefffe" d="M 473.5,208.5 C 476.5,208.5 479.5,208.5 482.5,208.5C 482.5,213.5 482.5,218.5 482.5,223.5C 489.167,223.5 495.833,223.5 502.5,223.5C 502.5,226.167 502.5,228.833 502.5,231.5C 495.833,231.5 489.167,231.5 482.5,231.5C 482.091,245.551 482.591,259.551 484,273.5C 485.942,276.978 488.942,278.978 493,279.5C 496.649,278.923 499.983,277.589 503,275.5C 504.167,277.833 505.333,280.167 506.5,282.5C 502.42,286.069 497.587,287.736 492,287.5C 482.565,287.793 476.565,283.46 474,274.5C 473.5,260.171 473.333,245.837 473.5,231.5C 469.833,231.5 466.167,231.5 462.5,231.5C 462.5,228.833 462.5,226.167 462.5,223.5C 466.167,223.5 469.833,223.5 473.5,223.5C 473.5,218.5 473.5,213.5 473.5,208.5 Z"/></g>
<g><path style="opacity:0.314" fill="#fefffe" d="M 174.5,210.5 C 174.027,211.906 173.027,212.573 171.5,212.5C 171.973,211.094 172.973,210.427 174.5,210.5 Z"/></g>
<g><path style="opacity:0.342" fill="#fefffe" d="M 171.5,212.5 C 169.704,214.9 167.37,216.567 164.5,217.5C 166.296,215.1 168.63,213.433 171.5,212.5 Z"/></g>
<g><path style="opacity:0.376" fill="#fefffe" d="M 164.5,217.5 C 163.308,219.113 162.308,220.78 161.5,222.5C 160.916,219.715 161.916,218.048 164.5,217.5 Z"/></g>
<g><path style="opacity:0.376" fill="#fefffe" d="M 161.5,222.5 C 161.59,225.152 160.924,227.485 159.5,229.5C 159.41,226.848 160.076,224.515 161.5,222.5 Z"/></g>
<g><path style="opacity:0.892" fill="#fefffe" d="M 291.5,222.5 C 318.963,221.796 331.463,235.13 329,262.5C 322.519,282.93 308.686,290.764 287.5,286C 282.071,284.198 277.571,281.031 274,276.5C 273.5,287.495 273.333,298.495 273.5,309.5C 270.5,309.5 267.5,309.5 264.5,309.5C 264.5,280.833 264.5,252.167 264.5,223.5C 267.5,223.5 270.5,223.5 273.5,223.5C 273.335,226.85 273.502,230.183 274,233.5C 278.745,227.887 284.578,224.221 291.5,222.5 Z M 296.5,230.5 C 292.048,231.263 287.715,232.763 283.5,235C 270.167,248.333 270.167,261.667 283.5,275C 298.033,282.238 309.533,279.071 318,265.5C 323.364,246.046 316.197,234.38 296.5,230.5 Z"/></g>
<g><path style="opacity:0.868" fill="#fefffe" d="M 447.5,222.5 C 449.833,222.5 452.167,222.5 454.5,222.5C 454.5,225.5 454.5,228.5 454.5,231.5C 442.795,231.089 435.295,236.423 432,247.5C 431.5,260.496 431.333,273.496 431.5,286.5C 428.167,286.5 424.833,286.5 421.5,286.5C 421.5,265.5 421.5,244.5 421.5,223.5C 424.5,223.5 427.5,223.5 430.5,223.5C 430.335,226.85 430.502,230.183 431,233.5C 435.07,227.581 440.57,223.915 447.5,222.5 Z"/></g>
<g><path style="opacity:0.881" fill="#fefffe" d="M 536.5,222.5 C 545.303,221.554 553.636,223.054 561.5,227C 565.257,230.421 567.757,234.588 569,239.5C 569.5,255.163 569.667,270.83 569.5,286.5C 566.5,286.5 563.5,286.5 560.5,286.5C 560.663,284.143 560.497,281.81 560,279.5C 550.78,287.374 540.28,289.541 528.5,286C 515.748,279.745 512.582,270.245 519,257.5C 522.104,254.067 525.937,251.9 530.5,251C 540.494,250.5 550.494,250.334 560.5,250.5C 561.17,238.009 555.336,231.343 543,230.5C 535.161,231.001 528.161,233.668 522,238.5C 519.143,236.095 517.976,233.262 518.5,230C 524.149,226.402 530.149,223.902 536.5,222.5 Z M 534.5,257.5 C 543.167,257.5 551.833,257.5 560.5,257.5C 561.206,271.463 554.539,278.796 540.5,279.5C 528.213,279.733 523.713,274.066 527,262.5C 529.17,260.177 531.67,258.51 534.5,257.5 Z"/></g>
<g><path style="opacity:0.909" fill="#fefffe" d="M 651.5,222.5 C 660.199,221.509 668.199,223.342 675.5,228C 679.423,231.677 681.923,236.177 683,241.5C 683.5,256.496 683.667,271.496 683.5,286.5C 680.5,286.5 677.5,286.5 674.5,286.5C 674.913,271.783 674.413,257.116 673,242.5C 668.061,232.843 660.228,229.343 649.5,232C 642.427,234.072 637.594,238.572 635,245.5C 633.663,259.129 633.163,272.796 633.5,286.5C 630.5,286.5 627.5,286.5 624.5,286.5C 624.5,265.5 624.5,244.5 624.5,223.5C 627.5,223.5 630.5,223.5 633.5,223.5C 633.335,226.518 633.502,229.518 634,232.5C 638.669,226.921 644.502,223.588 651.5,222.5 Z"/></g>
<g><path style="opacity:0.858" fill="#fefffe" d="M 724.5,222.5 C 749.323,220.99 761.989,232.656 762.5,257.5C 744.833,257.5 727.167,257.5 709.5,257.5C 710.114,266.889 714.781,273.389 723.5,277C 734.567,280.65 744.234,278.483 752.5,270.5C 754.833,272.167 756.833,274.167 758.5,276.5C 751.888,284.322 743.388,287.989 733,287.5C 712.302,286.468 701.135,275.635 699.5,255C 700.212,238.14 708.545,227.307 724.5,222.5 Z M 728.5,230.5 C 742.351,230.364 750.351,237.031 752.5,250.5C 738.167,250.5 723.833,250.5 709.5,250.5C 711.089,239.246 717.423,232.579 728.5,230.5 Z"/></g>
<g><path style="opacity:0.868" fill="#fefffe" d="M 804.5,222.5 C 806.833,222.5 809.167,222.5 811.5,222.5C 811.5,225.5 811.5,228.5 811.5,231.5C 799.795,231.089 792.295,236.423 789,247.5C 788.5,260.496 788.333,273.496 788.5,286.5C 785.167,286.5 781.833,286.5 778.5,286.5C 778.5,265.5 778.5,244.5 778.5,223.5C 781.5,223.5 784.5,223.5 787.5,223.5C 787.335,226.85 787.502,230.183 788,233.5C 792.07,227.581 797.57,223.915 804.5,222.5 Z"/></g>
<g><path style="opacity:0.855" fill="#fefffe" d="M 591.5,223.5 C 594.833,223.5 598.167,223.5 601.5,223.5C 601.5,244.5 601.5,265.5 601.5,286.5C 598.167,286.5 594.833,286.5 591.5,286.5C 591.5,265.5 591.5,244.5 591.5,223.5 Z"/></g>
<g><path style="opacity:0.34" fill="#fefffe" d="M 159.5,229.5 C 154.611,249.821 148.944,269.821 142.5,289.5C 147.389,269.179 153.056,249.179 159.5,229.5 Z"/></g>
<g><path style="opacity:0.917" fill="#fefffe" d="M 1860.5,246.5 C 1867.5,246.5 1874.5,246.5 1881.5,246.5C 1860.97,308.436 1839.63,370.103 1817.5,431.5C 1810.53,432.497 1803.53,432.83 1796.5,432.5C 1796.94,427.673 1798.11,423.007 1800,418.5C 1820.28,361.148 1840.45,303.815 1860.5,246.5 Z"/></g>
<g><path style="opacity:0.947" fill="#fefffe" d="M 811.5,265.5 C 818.833,265.5 826.167,265.5 833.5,265.5C 833.167,281.847 833.501,298.18 834.5,314.5C 853.34,302.316 872.674,301.483 892.5,312C 902.034,319.206 907.867,328.706 910,340.5C 910.5,364.831 910.667,389.164 910.5,413.5C 903.167,413.5 895.833,413.5 888.5,413.5C 888.949,389.789 888.449,366.123 887,342.5C 882.908,331.445 874.908,326.112 863,326.5C 845.033,327.305 835.366,336.639 834,354.5C 833.5,374.164 833.333,393.831 833.5,413.5C 826.167,413.5 818.833,413.5 811.5,413.5C 811.5,364.167 811.5,314.833 811.5,265.5 Z"/></g>
<g><path style="opacity:0.949" fill="#fefffe" d="M 1048.5,265.5 C 1055.83,265.5 1063.17,265.5 1070.5,265.5C 1070.5,314.833 1070.5,364.167 1070.5,413.5C 1063.17,413.5 1055.83,413.5 1048.5,413.5C 1048.5,364.167 1048.5,314.833 1048.5,265.5 Z"/></g>
<g><path style="opacity:0.909" fill="#fefffe" d="M 1099.5,265.5 C 1106.75,265.187 1113.92,265.52 1121,266.5C 1121.83,315.404 1121.66,364.237 1120.5,413C 1113.25,413.812 1106.09,413.646 1099,412.5C 1098.17,363.429 1098.34,314.429 1099.5,265.5 Z"/></g>
<g><path style="opacity:0.892" fill="#fefffe" d="M 1726.5,265.5 C 1739.46,264.629 1745.63,270.629 1745,283.5C 1740.04,293.561 1732.54,296.061 1722.5,291C 1713.71,280.903 1715.04,272.403 1726.5,265.5 Z"/></g>
<g><path style="opacity:0.952" fill="#fefffe" d="M 1770.5,265.5 C 1777.83,265.5 1785.17,265.5 1792.5,265.5C 1792.5,314.833 1792.5,364.167 1792.5,413.5C 1785.17,413.5 1777.83,413.5 1770.5,413.5C 1770.5,364.167 1770.5,314.833 1770.5,265.5 Z"/></g>
<g><path style="opacity:0.376" fill="#fefffe" d="M 142.5,289.5 C 142.59,292.152 141.924,294.485 140.5,296.5C 140.41,293.848 141.076,291.515 142.5,289.5 Z"/></g>
<g><path style="opacity:0.392" fill="#fefffe" d="M 140.5,296.5 C 140.59,299.152 139.924,301.485 138.5,303.5C 138.41,300.848 139.076,298.515 140.5,296.5 Z"/></g>
<g><path style="opacity:0.376" fill="#fefffe" d="M 138.5,303.5 C 138.59,306.152 137.924,308.485 136.5,310.5C 136.41,307.848 137.076,305.515 138.5,303.5 Z"/></g>
<g><path style="opacity:0.928" fill="#fefffe" d="M 504.5,304.5 C 546.768,306.939 565.935,329.272 562,371.5C 558.211,389.962 547.711,403.129 530.5,411C 511.278,417.608 493.445,415.108 477,403.5C 476.5,418.83 476.333,434.163 476.5,449.5C 468.913,449.814 461.413,449.481 454,448.5C 453.333,401.5 453.333,354.5 454,307.5C 454.5,307 455,306.5 455.5,306C 461.5,305.333 467.5,305.333 473.5,306C 475.053,309.217 476.053,312.717 476.5,316.5C 484.816,309.956 494.15,305.956 504.5,304.5 Z M 506.5,325.5 C 532.951,329.032 543.784,344.032 539,370.5C 534.391,385.765 524.057,393.431 508,393.5C 487.882,391.382 477.382,380.216 476.5,360C 476.799,339.878 486.799,328.378 506.5,325.5 Z"/></g>
<g><path style="opacity:0.924" fill="#fefffe" d="M 747.5,304.5 C 769.239,303.103 785.573,311.603 796.5,330C 791.749,334.552 786.416,338.385 780.5,341.5C 776.591,336.55 771.924,332.383 766.5,329C 749.183,322.439 735.017,326.605 724,341.5C 715.653,360.114 719.153,375.948 734.5,389C 752.917,397.467 768.084,393.634 780,377.5C 785.507,380.92 790.841,384.586 796,388.5C 792.006,399.162 784.506,406.662 773.5,411C 746.353,419.762 723.853,413.262 706,391.5C 693.79,371.029 693.457,350.362 705,329.5C 715.681,315.082 729.848,306.748 747.5,304.5 Z"/></g>
<g><path style="opacity:0.928" fill="#fefffe" d="M 972.5,304.5 C 985.193,304.2 996.859,307.366 1007.5,314C 1015.25,320.327 1019.75,328.493 1021,338.5C 1021.5,363.498 1021.67,388.498 1021.5,413.5C 1014.17,413.5 1006.83,413.5 999.5,413.5C 999.808,411.076 999.474,408.743 998.5,406.5C 987.474,413.395 975.474,415.895 962.5,414C 939.517,410.694 928.683,397.527 930,374.5C 932.174,364.329 938.007,357.162 947.5,353C 952.735,351.255 958.068,349.921 963.5,349C 975.162,348.5 986.829,348.333 998.5,348.5C 998.634,333.466 991.134,325.8 976,325.5C 963.001,325.92 951.834,330.587 942.5,339.5C 937.871,334.693 934.204,329.193 931.5,323C 936.346,317.227 942.346,312.894 949.5,310C 957.194,307.7 964.86,305.866 972.5,304.5 Z M 972.5,367.5 C 980.84,367.334 989.173,367.5 997.5,368C 999.891,377.015 997.224,384.348 989.5,390C 979.436,395.076 969.103,395.743 958.5,392C 951.467,387.227 949.967,381.06 954,373.5C 955.214,371.951 956.714,370.785 958.5,370C 963.294,369.098 967.961,368.265 972.5,367.5 Z"/></g>
<g><path style="opacity:0.933" fill="#fefffe" d="M 1183.5,304.5 C 1197.01,304.162 1209.34,307.662 1220.5,315C 1227.1,321.04 1230.94,328.54 1232,337.5C 1232.5,362.831 1232.67,388.164 1232.5,413.5C 1225.49,413.666 1218.49,413.5 1211.5,413C 1210.89,410.853 1210.22,408.686 1209.5,406.5C 1196.5,414.364 1182.5,416.531 1167.5,413C 1142.46,404.401 1135.29,387.901 1146,363.5C 1153.5,354.834 1163,350.001 1174.5,349C 1186.5,348.5 1198.5,348.333 1210.5,348.5C 1210.25,333.524 1202.58,325.857 1187.5,325.5C 1174.55,326.31 1163.22,330.977 1153.5,339.5C 1149.6,334.04 1145.93,328.373 1142.5,322.5C 1147.94,317.606 1153.94,313.44 1160.5,310C 1168.26,307.975 1175.93,306.141 1183.5,304.5 Z M 1183.5,367.5 C 1192.22,367.196 1200.89,367.529 1209.5,368.5C 1211.1,382.755 1204.76,391.255 1190.5,394C 1182.8,395.334 1175.47,394.334 1168.5,391C 1161.38,383.216 1162.04,376.216 1170.5,370C 1174.94,369.034 1179.27,368.201 1183.5,367.5 Z"/></g>
<g><path style="opacity:0.93" fill="#fefffe" d="M 1334.5,304.5 C 1362.14,303.99 1380.64,316.657 1390,342.5C 1391.34,351.107 1391.84,359.774 1391.5,368.5C 1364.5,368.5 1337.5,368.5 1310.5,368.5C 1314.93,385.241 1325.93,393.574 1343.5,393.5C 1350.15,393.282 1356.48,391.782 1362.5,389C 1366.34,385.82 1370.18,382.653 1374,379.5C 1378.8,383.968 1383.3,388.801 1387.5,394C 1370.02,413.042 1348.69,419.042 1323.5,412C 1294.57,399.661 1282.74,377.828 1288,346.5C 1294.57,322.426 1310.07,308.426 1334.5,304.5 Z M 1335.5,325.5 C 1348.55,324.775 1358.72,329.775 1366,340.5C 1367.43,343.353 1368.26,346.353 1368.5,349.5C 1349.17,349.5 1329.83,349.5 1310.5,349.5C 1313.64,336.029 1321.97,328.029 1335.5,325.5 Z"/></g>
<g><path style="opacity:0.937" fill="#fefffe" d="M 1458.5,304.5 C 1474.96,303.756 1488.63,309.423 1499.5,321.5C 1511.12,309.232 1525.46,303.732 1542.5,305C 1563.54,307.375 1576.37,318.875 1581,339.5C 1581.5,364.164 1581.67,388.831 1581.5,413.5C 1574.17,413.5 1566.83,413.5 1559.5,413.5C 1559.95,389.456 1559.45,365.456 1558,341.5C 1554.16,331.153 1546.66,326.153 1535.5,326.5C 1522.14,326.59 1513.31,332.923 1509,345.5C 1507.55,368.122 1507.05,390.789 1507.5,413.5C 1499.91,413.814 1492.41,413.481 1485,412.5C 1484.67,389.5 1484.33,366.5 1484,343.5C 1478.9,329.029 1468.73,323.529 1453.5,327C 1442.97,329.527 1436.47,336.027 1434,346.5C 1432.58,368.798 1432.08,391.132 1432.5,413.5C 1425.17,413.5 1417.83,413.5 1410.5,413.5C 1410.17,377.827 1410.5,342.16 1411.5,306.5C 1417.45,305.376 1423.45,305.21 1429.5,306C 1430.42,306.374 1431.25,306.874 1432,307.5C 1432.19,309.9 1432.69,312.234 1433.5,314.5C 1441.27,309.581 1449.6,306.248 1458.5,304.5 Z"/></g>
<g><path style="opacity:0.929" fill="#fefffe" d="M 1643.5,304.5 C 1654.28,304.556 1664.61,306.723 1674.5,311C 1684.74,317.304 1690.57,326.47 1692,338.5C 1692.5,363.498 1692.67,388.498 1692.5,413.5C 1685.17,413.5 1677.83,413.5 1670.5,413.5C 1670.81,411.076 1670.47,408.743 1669.5,406.5C 1658.49,413.394 1646.49,415.894 1633.5,414C 1614.03,411.694 1603.03,400.861 1600.5,381.5C 1600.94,370.31 1605.6,361.476 1614.5,355C 1620.93,352.19 1627.6,350.19 1634.5,349C 1646.5,348.5 1658.5,348.333 1670.5,348.5C 1669.77,333.606 1661.94,325.939 1647,325.5C 1634.26,326.454 1623.1,331.12 1613.5,339.5C 1609.1,334.381 1605.43,328.714 1602.5,322.5C 1607.59,317.114 1613.59,312.947 1620.5,310C 1628.19,307.7 1635.86,305.866 1643.5,304.5 Z M 1643.5,367.5 C 1652.22,367.196 1660.89,367.529 1669.5,368.5C 1670.54,380.229 1665.54,388.396 1654.5,393C 1648.22,394.424 1641.89,394.758 1635.5,394C 1624.78,391.397 1621.28,384.897 1625,374.5C 1626.54,372.622 1628.38,371.122 1630.5,370C 1634.94,369.034 1639.27,368.201 1643.5,367.5 Z"/></g>
<g><path style="opacity:0.318" fill="#fefffe" d="M 217.5,305.5 C 211.234,309.261 204.567,312.261 197.5,314.5C 203.766,310.739 210.433,307.739 217.5,305.5 Z"/></g>
<g><path style="opacity:0.92" fill="#fefffe" d="M 582.5,305.5 C 589.211,305.287 595.877,305.62 602.5,306.5C 602.575,328.764 602.575,350.931 602.5,373C 605.266,386.597 613.599,393.431 627.5,393.5C 641.256,393.547 650.423,387.214 655,374.5C 656.447,351.878 656.947,329.211 656.5,306.5C 663.13,305.454 669.797,305.287 676.5,306C 677.416,306.374 678.25,306.874 679,307.5C 679.667,342.5 679.667,377.5 679,412.5C 671.921,413.48 664.755,413.813 657.5,413.5C 657.663,411.143 657.497,408.81 657,406.5C 656.586,406.043 656.086,405.709 655.5,405.5C 641.998,414.352 627.331,416.852 611.5,413C 593.113,407.269 582.613,394.769 580,375.5C 579.333,352.833 579.333,330.167 580,307.5C 580.995,306.934 581.828,306.267 582.5,305.5 Z"/></g>
<g><path style="opacity:0.9" fill="#fefffe" d="M 1721.5,305.5 C 1727.51,305.334 1733.51,305.501 1739.5,306C 1740.42,306.374 1741.25,306.874 1742,307.5C 1742.67,342.5 1742.67,377.5 1742,412.5C 1734.59,413.481 1727.09,413.814 1719.5,413.5C 1718.85,377.279 1719.52,341.279 1721.5,305.5 Z"/></g>
<g><path style="opacity:0.376" fill="#fefffe" d="M 136.5,310.5 C 136.59,313.152 135.924,315.485 134.5,317.5C 134.41,314.848 135.076,312.515 136.5,310.5 Z"/></g>
<g><path style="opacity:0.335" fill="#fefffe" d="M 197.5,314.5 C 194.912,316.625 191.912,317.958 188.5,318.5C 191.088,316.375 194.088,315.042 197.5,314.5 Z"/></g>
<g><path style="opacity:0.376" fill="#fefffe" d="M 134.5,317.5 C 134.59,320.152 133.924,322.485 132.5,324.5C 132.41,321.848 133.076,319.515 134.5,317.5 Z"/></g>
<g><path style="opacity:0.326" fill="#fefffe" d="M 188.5,318.5 C 185.249,320.957 181.582,322.624 177.5,323.5C 180.751,321.043 184.418,319.376 188.5,318.5 Z"/></g>
<g><path style="opacity:0.335" fill="#fefffe" d="M 216.5,320.5 C 213.912,322.625 210.912,323.958 207.5,324.5C 210.088,322.375 213.088,321.042 216.5,320.5 Z"/></g>
<g><path style="opacity:0.335" fill="#fefffe" d="M 177.5,323.5 C 174.912,325.625 171.912,326.958 168.5,327.5C 171.088,325.375 174.088,324.042 177.5,323.5 Z"/></g>
<g><path style="opacity:0.376" fill="#fefffe" d="M 132.5,324.5 C 132.59,327.152 131.924,329.485 130.5,331.5C 130.41,328.848 131.076,326.515 132.5,324.5 Z"/></g>
<g><path style="opacity:0.318" fill="#fefffe" d="M 207.5,324.5 C 201.234,328.261 194.567,331.261 187.5,333.5C 193.766,329.739 200.433,326.739 207.5,324.5 Z"/></g>
<g><path style="opacity:0.326" fill="#fefffe" d="M 168.5,327.5 C 165.249,329.957 161.582,331.624 157.5,332.5C 160.751,330.043 164.418,328.376 168.5,327.5 Z"/></g>
<g><path style="opacity:0.364" fill="#fefffe" d="M 130.5,331.5 C 130.053,335.787 129.053,339.953 127.5,344C 127.57,344.765 127.903,345.265 128.5,345.5C 127.828,346.267 126.995,346.934 126,347.5C 126.796,341.949 128.296,336.616 130.5,331.5 Z"/></g>
<g><path style="opacity:0.335" fill="#fefffe" d="M 157.5,332.5 C 154.912,334.625 151.912,335.958 148.5,336.5C 151.088,334.375 154.088,333.042 157.5,332.5 Z"/></g>
<g><path style="opacity:0.335" fill="#fefffe" d="M 187.5,333.5 C 184.912,335.625 181.912,336.958 178.5,337.5C 181.088,335.375 184.088,334.042 187.5,333.5 Z"/></g>
<g><path style="opacity:0.334" fill="#fefffe" d="M 148.5,336.5 C 145.249,338.957 141.582,340.624 137.5,341.5C 140.751,339.043 144.418,337.376 148.5,336.5 Z"/></g>
<g><path style="opacity:0.318" fill="#fefffe" d="M 178.5,337.5 C 175.249,339.957 171.582,341.624 167.5,342.5C 170.751,340.043 174.418,338.376 178.5,337.5 Z"/></g>
<g><path style="opacity:0.335" fill="#fefffe" d="M 137.5,341.5 C 134.912,343.625 131.912,344.958 128.5,345.5C 131.088,343.375 134.088,342.042 137.5,341.5 Z"/></g>
<g><path style="opacity:0.335" fill="#fefffe" d="M 167.5,342.5 C 164.912,344.625 161.912,345.958 158.5,346.5C 161.088,344.375 164.088,343.042 167.5,342.5 Z"/></g>
<g><path style="opacity:0.335" fill="#fefffe" d="M 158.5,346.5 C 155.249,348.957 151.582,350.624 147.5,351.5C 150.751,349.043 154.418,347.376 158.5,346.5 Z"/></g>
<g><path style="opacity:0.335" fill="#fefffe" d="M 147.5,351.5 C 144.912,353.625 141.912,354.958 138.5,355.5C 141.088,353.375 144.088,352.042 147.5,351.5 Z"/></g>
<g><path style="opacity:0.9" fill="#fefffe" d="M 1264.5,384.5 C 1277.61,386.434 1282.44,393.768 1279,406.5C 1273.97,414.066 1267.13,416.233 1258.5,413C 1250.66,406.135 1249.5,398.301 1255,389.5C 1257.91,387.132 1261.07,385.465 1264.5,384.5 Z"/></g>
<g><path style="opacity:0.972" fill="#fefffe" d="M 288.5,434.5 C 296.84,434.334 305.173,434.5 313.5,435C 349.54,440.785 385.54,446.785 421.5,453C 350.608,466.26 279.608,479.094 208.5,491.5C 204.432,489.968 200.432,488.135 196.5,486C 171.167,471 145.833,456 120.5,441C 176.655,438.776 232.655,436.609 288.5,434.5 Z"/></g>
</svg>
