<?xml version="1.0" encoding="UTF-8"?>
<!DOCTYPE svg PUBLIC "-//W3C//DTD SVG 1.1//EN" "http://www.w3.org/Graphics/SVG/1.1/DTD/svg11.dtd">
<svg xmlns="http://www.w3.org/2000/svg" version="1.1" width="905px" height="275px" style="shape-rendering:geometricPrecision; text-rendering:geometricPrecision; image-rendering:optimizeQuality; fill-rule:evenodd; clip-rule:evenodd" xmlns:xlink="http://www.w3.org/1999/xlink">
<g><path style="opacity:0.588" fill="#0f0f0f" d="M 153.5,80.5 C 153.167,80.5 152.833,80.5 152.5,80.5C 147.024,72.2319 141.524,63.8986 136,55.5C 135.801,65.8521 136.301,76.1855 137.5,86.5C 139.186,87.8569 140.852,89.1902 142.5,90.5C 142.167,91.5 141.5,92.1667 140.5,92.5C 140.167,92.5 139.833,92.5 139.5,92.5C 139.027,91.0937 138.027,90.427 136.5,90.5C 136.5,89.8333 136.167,89.5 135.5,89.5C 134.738,87.7376 133.404,86.7376 131.5,86.5C 131.5,85.8333 131.167,85.5 130.5,85.5C 129.738,83.7376 128.404,82.7376 126.5,82.5C 126.5,81.8333 126.167,81.5 125.5,81.5C 125.5,80.8333 125.167,80.5 124.5,80.5C 124.027,79.0937 123.027,78.427 121.5,78.5C 121.5,77.8333 121.167,77.5 120.5,77.5C 120.5,76.8333 120.167,76.5 119.5,76.5C 119.027,75.0937 118.027,74.427 116.5,74.5C 115.383,71.7209 114.217,71.3876 113,73.5C 111.39,84.16 109.89,94.8267 108.5,105.5C 107.833,104.833 107.167,104.167 106.5,103.5C 105.549,104.919 105.216,106.585 105.5,108.5C 105.167,108.5 104.833,108.5 104.5,108.5C 106.082,97.5146 107.249,86.5146 108,75.5C 96.9202,83.2902 85.7535,90.9568 74.5,98.5C 68.867,116.567 63.5336,134.734 58.5,153C 58.8333,153.5 59.1667,154 59.5,154.5C 63.9561,151.937 68.6227,149.937 73.5,148.5C 73.5,148.833 73.5,149.167 73.5,149.5C 72.1667,149.833 72.1667,150.167 73.5,150.5C 74.4916,150.328 75.1583,150.662 75.5,151.5C 69.6524,153.783 63.9857,156.449 58.5,159.5C 59,159.833 59.5,160.167 60,160.5C 62.7047,159.061 65.538,158.061 68.5,157.5C 68.5,157.833 68.5,158.167 68.5,158.5C 66.5767,158.795 64.9101,159.628 63.5,161C 88.1667,169 112.833,177 137.5,185C 142.981,185.13 148.314,184.297 153.5,182.5C 154.306,183.728 155.306,184.728 156.5,185.5C 150.445,187.743 144.112,188.91 137.5,189C 109.822,179.996 82.1557,170.996 54.5,162C 53.4216,161.326 52.7549,160.326 52.5,159C 58.0741,137.356 64.4074,116.022 71.5,95C 92.6877,80.4701 113.854,65.9701 135,51.5C 141.687,60.8843 147.854,70.551 153.5,80.5 Z M 133.5,54.5 C 134.658,63.9911 134.825,73.6578 134,83.5C 128.224,79.3588 122.724,74.8588 117.5,70C 123.31,65.3572 128.643,60.1905 133.5,54.5 Z M 116.5,74.5 C 118.027,74.427 119.027,75.0937 119.5,76.5C 117.973,76.573 116.973,75.9063 116.5,74.5 Z M 121.5,78.5 C 123.027,78.427 124.027,79.0937 124.5,80.5C 122.973,80.573 121.973,79.9063 121.5,78.5 Z M 136.5,90.5 C 138.027,90.427 139.027,91.0937 139.5,92.5C 137.973,92.573 136.973,91.9063 136.5,90.5 Z M 131.5,86.5 C 133.404,86.7376 134.738,87.7376 135.5,89.5C 134.833,89.5 134.167,89.5 133.5,89.5C 132.833,88.5 132.167,87.5 131.5,86.5 Z M 126.5,82.5 C 128.404,82.7376 129.738,83.7376 130.5,85.5C 128.596,85.2624 127.262,84.2624 126.5,82.5 Z"/></g>
<g><path style="opacity:0.766" fill="#040404" d="M 267.5,88.5 C 273.209,87.6779 274.543,89.5112 271.5,94C 266.728,94.8104 265.395,92.9771 267.5,88.5 Z"/></g>
<g><path style="opacity:0.794" fill="#131313" d="M 116.5,74.5 C 116.973,75.9063 117.973,76.573 119.5,76.5C 120.167,76.5 120.5,76.8333 120.5,77.5C 121.167,77.5 121.5,77.8333 121.5,78.5C 121.973,79.9063 122.973,80.573 124.5,80.5C 125.167,80.5 125.5,80.8333 125.5,81.5C 126.167,81.5 126.5,81.8333 126.5,82.5C 127.262,84.2624 128.596,85.2624 130.5,85.5C 131.167,85.5 131.5,85.8333 131.5,86.5C 132.167,87.5 132.833,88.5 133.5,89.5C 134.167,89.5 134.833,89.5 135.5,89.5C 136.167,89.5 136.5,89.8333 136.5,90.5C 136.973,91.9063 137.973,92.573 139.5,92.5C 139.833,93.8333 140.167,93.8333 140.5,92.5C 141.5,92.1667 142.167,91.5 142.5,90.5C 147.293,94.1212 151.96,97.9545 156.5,102C 159.244,101.981 161.911,101.314 164.5,100C 159.851,93.8618 155.851,87.3618 152.5,80.5C 152.833,80.5 153.167,80.5 153.5,80.5C 157.833,86.1873 161.833,92.1873 165.5,98.5C 176.287,98.6272 182.287,103.961 183.5,114.5C 182.413,118.763 181.746,123.097 181.5,127.5C 182.934,142.174 184.434,156.841 186,171.5C 188.558,173.138 191.391,174.304 194.5,175C 198.301,181.366 196.635,185.532 189.5,187.5C 185.876,187.041 183.709,185.041 183,181.5C 182.275,180.941 181.442,180.608 180.5,180.5C 172.553,182.487 164.553,184.154 156.5,185.5C 155.306,184.728 154.306,183.728 153.5,182.5C 160.818,181.005 168.151,179.505 175.5,178C 151.712,166.939 128.045,155.606 104.5,144C 101.351,143.726 98.3513,144.392 95.5,146C 86.4738,150.181 77.4738,154.347 68.5,158.5C 68.5,158.167 68.5,157.833 68.5,157.5C 79.5009,151.669 90.8343,146.335 102.5,141.5C 128.006,153.376 153.173,165.71 178,178.5C 178.75,177.874 179.584,177.374 180.5,177C 154.678,164.257 128.678,151.757 102.5,139.5C 93.3612,143.237 84.3612,147.237 75.5,151.5C 75.1583,150.662 74.4916,150.328 73.5,150.5C 73.5,150.167 73.5,149.833 73.5,149.5C 73.5,149.167 73.5,148.833 73.5,148.5C 81.8058,144.018 90.4725,140.018 99.5,136.5C 101.333,127.155 102.999,117.822 104.5,108.5C 104.833,108.5 105.167,108.5 105.5,108.5C 106.518,107.708 106.851,106.041 106.5,103.5C 107.167,104.167 107.833,104.833 108.5,105.5C 106.292,116.328 104.959,127.161 104.5,138C 130.316,150.74 156.316,163.24 182.5,175.5C 181.935,159.175 180.435,142.842 178,126.5C 179.293,142.141 180.293,157.807 181,173.5C 156.031,161.182 131.031,148.849 106,136.5C 108.329,117.516 110.996,98.5157 114,79.5C 114.05,77.256 114.883,75.5893 116.5,74.5 Z M 136.5,90.5 C 138.027,90.427 139.027,91.0937 139.5,92.5C 137.973,92.573 136.973,91.9063 136.5,90.5 Z M 131.5,86.5 C 133.404,86.7376 134.738,87.7376 135.5,89.5C 134.833,89.5 134.167,89.5 133.5,89.5C 132.833,88.5 132.167,87.5 131.5,86.5 Z M 126.5,82.5 C 128.404,82.7376 129.738,83.7376 130.5,85.5C 128.596,85.2624 127.262,84.2624 126.5,82.5 Z M 133.5,89.5 C 139.724,95.623 146.39,101.29 153.5,106.5C 153.563,110.713 153.729,115.046 154,119.5C 158.529,129.566 165.862,132.233 176,127.5C 178.023,141.85 179.19,156.183 179.5,170.5C 155.712,159.439 132.045,148.106 108.5,136.5C 107.345,133.554 107.179,130.554 108,127.5C 110.422,110.457 113.089,93.4568 116,76.5C 121.729,81.075 127.563,85.4083 133.5,89.5 Z M 142.5,95.5 C 144.027,95.427 145.027,96.0937 145.5,97.5C 143.973,97.573 142.973,96.9063 142.5,95.5 Z M 133.5,103.5 C 143.6,106.034 146.433,112.034 142,121.5C 137.64,126.127 132.807,126.627 127.5,123C 121.653,114.059 123.653,107.559 133.5,103.5 Z M 152.5,103.5 C 153.756,103.461 154.756,103.961 155.5,105C 154.002,105.585 153.002,105.085 152.5,103.5 Z M 163.5,104.5 C 164.978,104.238 166.311,104.571 167.5,105.5C 170.124,108.567 171.958,111.9 173,115.5C 169.407,112.618 165.907,109.618 162.5,106.5C 162.863,105.817 163.196,105.15 163.5,104.5 Z M 169.5,104.5 C 176.785,105.803 179.619,110.136 178,117.5C 174.944,113.284 172.111,108.951 169.5,104.5 Z M 158.5,110.5 C 163.801,114.466 168.801,118.8 173.5,123.5C 167.099,126.533 162.265,124.866 159,118.5C 158.503,115.854 158.336,113.187 158.5,110.5 Z M 161.5,110.5 C 163.404,110.738 164.738,111.738 165.5,113.5C 163.596,113.262 162.262,112.262 161.5,110.5 Z M 167.5,115.5 C 169.027,115.427 170.027,116.094 170.5,117.5C 168.973,117.573 167.973,116.906 167.5,115.5 Z M 172.5,119.5 C 173.756,119.461 174.756,119.961 175.5,121C 174.002,121.585 173.002,121.085 172.5,119.5 Z"/></g>
<g><path style="opacity:0.784" fill="#050505" d="M 213.5,93.5 C 215.167,93.5 216.833,93.5 218.5,93.5C 218.5,95.5 218.5,97.5 218.5,99.5C 221.187,99.3359 223.854,99.5026 226.5,100C 227.833,101.333 227.833,102.667 226.5,104C 223.854,104.497 221.187,104.664 218.5,104.5C 218.334,110.509 218.501,116.509 219,122.5C 220.848,125.504 223.348,126.17 226.5,124.5C 229.567,125.656 229.9,127.156 227.5,129C 224.167,129.667 220.833,129.667 217.5,129C 215.951,127.786 214.785,126.286 214,124.5C 213.5,117.842 213.334,111.175 213.5,104.5C 211.833,104.5 210.167,104.5 208.5,104.5C 208.5,102.833 208.5,101.167 208.5,99.5C 210.167,99.5 211.833,99.5 213.5,99.5C 213.5,97.5 213.5,95.5 213.5,93.5 Z"/></g>
<g><path style="opacity:0.834" fill="#060506" d="M 119.5,99.5 C 120.833,99.5 122.167,99.5 123.5,99.5C 123.008,104.208 124.341,104.708 127.5,101C 140.104,97.1285 147.437,101.628 149.5,114.5C 148.045,126.402 141.379,131.236 129.5,129C 127.919,128.293 126.419,127.46 125,126.5C 124.667,130.833 124.333,135.167 124,139.5C 122.644,140.38 121.144,140.714 119.5,140.5C 119.5,126.833 119.5,113.167 119.5,99.5 Z M 133.5,103.5 C 123.653,107.559 121.653,114.059 127.5,123C 132.807,126.627 137.64,126.127 142,121.5C 146.433,112.034 143.6,106.034 133.5,103.5 Z"/></g>
<g><path style="opacity:0.796" fill="#020202" d="M 190.5,99.5 C 193.238,98.9648 195.072,99.9648 196,102.5C 198.877,100.596 202.044,99.5965 205.5,99.5C 205.5,101.167 205.5,102.833 205.5,104.5C 201.112,103.943 197.945,105.61 196,109.5C 195.5,116.158 195.334,122.825 195.5,129.5C 193.833,129.5 192.167,129.5 190.5,129.5C 190.5,119.5 190.5,109.5 190.5,99.5 Z"/></g>
<g><path style="opacity:0.804" fill="#080808" d="M 241.5,99.5 C 246.951,98.779 251.785,100.112 256,103.5C 257.441,112.058 257.941,120.724 257.5,129.5C 256.167,129.5 254.833,129.5 253.5,129.5C 253.372,126.226 252.039,126.059 249.5,129C 245.833,129.667 242.167,129.667 238.5,129C 230.515,123.616 230.515,118.282 238.5,113C 243.155,112.501 247.821,112.334 252.5,112.5C 253.186,107.183 250.853,104.183 245.5,103.5C 241.911,103.912 238.744,105.245 236,107.5C 233.048,105.807 232.882,103.974 235.5,102C 237.611,101.155 239.611,100.322 241.5,99.5 Z M 239.5,116.5 C 243.833,116.5 248.167,116.5 252.5,116.5C 252.699,121.971 250.033,124.971 244.5,125.5C 237.922,124.963 236.256,121.963 239.5,116.5 Z"/></g>
<g><path style="opacity:0.761" fill="#010101" d="M 267.5,99.5 C 269.144,99.2865 270.644,99.6198 272,100.5C 272.5,110.161 272.666,119.828 272.5,129.5C 270.833,129.5 269.167,129.5 267.5,129.5C 267.5,119.5 267.5,109.5 267.5,99.5 Z"/></g>
<g><path style="opacity:0.779" fill="#040404" d="M 282.5,99.5 C 283.833,99.5 285.167,99.5 286.5,99.5C 286.343,100.873 286.51,102.207 287,103.5C 293.667,98.1667 300.333,98.1667 307,103.5C 307.667,104.833 308.333,106.167 309,107.5C 309.5,114.826 309.666,122.159 309.5,129.5C 307.833,129.5 306.167,129.5 304.5,129.5C 304.666,122.825 304.5,116.158 304,109.5C 301.565,104.776 297.731,103.276 292.5,105C 290.714,105.785 289.214,106.951 288,108.5C 286.616,115.411 286.116,122.411 286.5,129.5C 284.833,129.5 283.167,129.5 281.5,129.5C 281.193,119.418 281.526,109.418 282.5,99.5 Z"/></g>
<g><path style="opacity:0.781" fill="#060606" d="M 326.5,99.5 C 339.001,98.401 345.001,104.068 344.5,116.5C 336.833,116.5 329.167,116.5 321.5,116.5C 322.238,122.226 325.571,125.226 331.5,125.5C 334.862,124.937 337.862,123.603 340.5,121.5C 343.123,123.875 342.789,126.041 339.5,128C 322.272,132.43 314.772,125.93 317,108.5C 318.871,104.006 322.038,101.006 326.5,99.5 Z M 329.5,103.5 C 335.422,103.76 338.756,106.76 339.5,112.5C 333.5,112.5 327.5,112.5 321.5,112.5C 322.121,107.552 324.788,104.552 329.5,103.5 Z"/></g>
<g><path style="opacity:0.763" fill="#030303" d="M 352.5,99.5 C 353.833,99.5 355.167,99.5 356.5,99.5C 356.03,103.97 357.03,104.47 359.5,101C 362.063,99.9207 364.729,99.4207 367.5,99.5C 367.5,101.167 367.5,102.833 367.5,104.5C 363.574,104.047 360.408,105.38 358,108.5C 356.616,115.411 356.116,122.411 356.5,129.5C 354.833,129.5 353.167,129.5 351.5,129.5C 351.193,119.418 351.526,109.418 352.5,99.5 Z"/></g>
<g><path style="opacity:0.899" fill="#040404" d="M 840.5,111.5 C 844.226,111.177 847.893,111.511 851.5,112.5C 841.905,139.451 832.405,166.451 823,193.5C 819.851,195.362 816.351,196.029 812.5,195.5C 821.641,167.409 830.975,139.409 840.5,111.5 Z"/></g>
<g><path style="opacity:0.89" fill="#010101" d="M 366.5,119.5 C 370.167,119.5 373.833,119.5 377.5,119.5C 377.334,126.841 377.5,134.174 378,141.5C 386.652,136.338 395.485,136.171 404.5,141C 409.242,144.649 411.742,149.482 412,155.5C 412.5,165.828 412.666,176.161 412.5,186.5C 408.833,186.5 405.167,186.5 401.5,186.5C 401.667,175.828 401.5,165.161 401,154.5C 399.008,149.664 395.341,147.331 390,147.5C 384.128,147.431 380.128,150.098 378,155.5C 377.5,165.828 377.334,176.161 377.5,186.5C 373.833,186.5 370.167,186.5 366.5,186.5C 366.5,164.167 366.5,141.833 366.5,119.5 Z"/></g>
<g><path style="opacity:0.94" fill="#000000" d="M 474.5,119.5 C 477.833,119.5 481.167,119.5 484.5,119.5C 484.5,141.833 484.5,164.167 484.5,186.5C 481.167,186.5 477.833,186.5 474.5,186.5C 474.5,164.167 474.5,141.833 474.5,119.5 Z"/></g>
<g><path style="opacity:0.861" fill="#000000" d="M 496.5,119.5 C 500.167,119.5 503.833,119.5 507.5,119.5C 507.5,141.833 507.5,164.167 507.5,186.5C 503.833,186.5 500.167,186.5 496.5,186.5C 496.5,164.167 496.5,141.833 496.5,119.5 Z"/></g>
<g><path style="opacity:0.85" fill="#040404" d="M 779.5,119.5 C 788.868,119.006 791.535,122.839 787.5,131C 779.243,133.96 775.743,131.127 777,122.5C 778.045,121.627 778.878,120.627 779.5,119.5 Z"/></g>
<g><path style="opacity:0.937" fill="#000000" d="M 800.5,119.5 C 803.833,119.5 807.167,119.5 810.5,119.5C 810.5,141.833 810.5,164.167 810.5,186.5C 807.167,186.5 803.833,186.5 800.5,186.5C 800.5,164.167 800.5,141.833 800.5,119.5 Z"/></g>
<g><path style="opacity:0.904" fill="#030303" d="M 204.5,137.5 C 208.167,137.5 211.833,137.5 215.5,137.5C 215.238,138.978 215.571,140.311 216.5,141.5C 224.839,136.744 233.506,136.244 242.5,140C 254.581,148.924 257.747,160.424 252,174.5C 245.011,185.404 235.178,189.238 222.5,186C 220.099,185.205 217.932,184.038 216,182.5C 215.5,189.492 215.334,196.492 215.5,203.5C 211.833,203.5 208.167,203.5 204.5,203.5C 204.5,181.5 204.5,159.5 204.5,137.5 Z M 224.5,147.5 C 240.915,146.973 246.749,154.64 242,170.5C 236.374,177.599 229.541,179.099 221.5,175C 212.739,164.678 213.739,155.511 224.5,147.5 Z"/></g>
<g><path style="opacity:0.903" fill="#010101" d="M 262.5,137.5 C 265.833,137.5 269.167,137.5 272.5,137.5C 272.333,148.172 272.5,158.839 273,169.5C 274.609,174.605 278.109,177.271 283.5,177.5C 290.215,177.28 294.381,173.947 296,167.5C 296.5,157.506 296.666,147.506 296.5,137.5C 300.167,137.5 303.833,137.5 307.5,137.5C 307.5,153.833 307.5,170.167 307.5,186.5C 303.833,186.5 300.167,186.5 296.5,186.5C 296.719,185.325 296.386,184.325 295.5,183.5C 285.61,188.731 276.11,188.065 267,181.5C 265.414,179.33 264.08,176.996 263,174.5C 262.5,162.171 262.333,149.838 262.5,137.5 Z"/></g>
<g><path style="opacity:0.908" fill="#040404" d="M 333.5,137.5 C 340.031,136.988 346.364,137.822 352.5,140C 356.026,142.026 358.693,144.859 360.5,148.5C 358.313,150.85 355.813,152.85 353,154.5C 344.892,145.651 336.559,145.318 328,153.5C 322.534,166.361 326.534,174.361 340,177.5C 342.185,177.079 344.351,176.579 346.5,176C 348.385,173.778 350.551,171.944 353,170.5C 355.741,171.789 358.241,173.455 360.5,175.5C 353.524,186.11 343.858,189.61 331.5,186C 320.8,181.624 315.133,173.624 314.5,162C 315.498,149.522 321.831,141.355 333.5,137.5 Z"/></g>
<g><path style="opacity:0.902" fill="#020202" d="M 434.5,137.5 C 443.952,135.738 452.119,138.071 459,144.5C 460.75,147.246 461.75,150.246 462,153.5C 462.5,164.495 462.667,175.495 462.5,186.5C 458.833,186.5 455.167,186.5 451.5,186.5C 451.649,185.448 451.483,184.448 451,183.5C 441.273,188.907 431.94,188.241 423,181.5C 419.728,175.194 419.728,168.861 423,162.5C 425.251,160.623 427.751,159.123 430.5,158C 437.492,157.5 444.492,157.334 451.5,157.5C 451.78,153.287 450.113,150.12 446.5,148C 438.632,146.181 431.799,148.014 426,153.5C 423.793,150.922 421.96,148.089 420.5,145C 424.815,141.678 429.482,139.178 434.5,137.5 Z M 433.5,166.5 C 439.5,166.5 445.5,166.5 451.5,166.5C 450.902,173.809 446.902,177.476 439.5,177.5C 430.857,177.21 428.857,173.543 433.5,166.5 Z"/></g>
<g><path style="opacity:0.915" fill="#020202" d="M 530.5,137.5 C 539.341,136.006 547.174,138.006 554,143.5C 555,145.5 556,147.5 557,149.5C 557.5,161.829 557.667,174.162 557.5,186.5C 554.167,186.5 550.833,186.5 547.5,186.5C 547.649,185.448 547.483,184.448 547,183.5C 539.448,188.009 531.615,188.509 523.5,185C 516.466,180.203 514.3,173.703 517,165.5C 518.5,162.667 520.667,160.5 523.5,159C 531.415,157.599 539.415,157.099 547.5,157.5C 545.784,147.866 540.118,144.7 530.5,148C 527.166,149.331 524.166,151.165 521.5,153.5C 519.399,150.632 517.899,147.632 517,144.5C 520.985,140.978 525.485,138.645 530.5,137.5 Z M 529.5,166.5 C 535.5,166.5 541.5,166.5 547.5,166.5C 545.781,176.038 540.115,179.538 530.5,177C 525.539,174.008 525.205,170.508 529.5,166.5 Z"/></g>
<g><path style="opacity:0.911" fill="#030303" d="M 599.5,137.5 C 612.434,135.384 621.934,140.051 628,151.5C 629.325,156.401 629.825,161.401 629.5,166.5C 617.162,166.333 604.829,166.5 592.5,167C 597.311,176.05 604.645,179.05 614.5,176C 616.792,174.71 618.792,173.043 620.5,171C 621.167,170.333 621.833,170.333 622.5,171C 623.975,173.309 625.642,175.476 627.5,177.5C 622.341,184.162 615.508,187.496 607,187.5C 587.192,184.561 579.192,173.228 583,153.5C 586.026,145.578 591.526,140.245 599.5,137.5 Z M 600.5,147.5 C 607.016,146.237 612.516,147.904 617,152.5C 618.009,154.025 618.509,155.692 618.5,157.5C 609.827,157.666 601.16,157.5 592.5,157C 594.31,153.031 596.976,149.864 600.5,147.5 Z"/></g>
<g><path style="opacity:0.912" fill="#010101" d="M 637.5,137.5 C 640.833,137.5 644.167,137.5 647.5,137.5C 647.238,138.978 647.571,140.311 648.5,141.5C 656.501,136.751 664.834,136.251 673.5,140C 675,141.5 676.5,143 678,144.5C 687.324,136.652 697.491,135.485 708.5,141C 711.807,143.778 713.974,147.278 715,151.5C 715.5,163.162 715.667,174.829 715.5,186.5C 712.167,186.5 708.833,186.5 705.5,186.5C 705.883,175.112 705.383,163.779 704,152.5C 699.037,146.796 693.203,145.962 686.5,150C 684.959,151.579 683.792,153.413 683,155.5C 681.662,165.784 681.162,176.117 681.5,186.5C 678.167,186.5 674.833,186.5 671.5,186.5C 671.666,176.161 671.5,165.828 671,155.5C 669.763,150.215 666.43,147.548 661,147.5C 655.128,147.431 651.128,150.098 649,155.5C 648.5,165.828 648.334,176.161 648.5,186.5C 644.833,186.5 641.167,186.5 637.5,186.5C 637.5,170.167 637.5,153.833 637.5,137.5 Z"/></g>
<g><path style="opacity:0.915" fill="#030303" d="M 738.5,137.5 C 747.952,135.738 756.119,138.071 763,144.5C 763.973,146.392 764.64,148.392 765,150.5C 765.5,162.495 765.667,174.495 765.5,186.5C 762.167,186.5 758.833,186.5 755.5,186.5C 755.649,185.448 755.483,184.448 755,183.5C 744.65,189.053 734.983,188.053 726,180.5C 721.313,170.048 724.146,162.548 734.5,158C 741.492,157.5 748.492,157.334 755.5,157.5C 753.784,147.866 748.118,144.7 738.5,148C 735.397,149.439 732.564,151.273 730,153.5C 727.342,150.894 725.676,147.894 725,144.5C 728.985,140.978 733.485,138.645 738.5,137.5 Z M 737.5,166.5 C 743.5,166.5 749.5,166.5 755.5,166.5C 753.781,176.038 748.115,179.538 738.5,177C 733.539,174.008 733.205,170.508 737.5,166.5 Z"/></g>
<g><path style="opacity:0.863" fill="#010101" d="M 777.5,137.5 C 781.167,137.5 784.833,137.5 788.5,137.5C 788.5,153.833 788.5,170.167 788.5,186.5C 784.833,186.5 781.167,186.5 777.5,186.5C 777.5,170.167 777.5,153.833 777.5,137.5 Z"/></g>
<g><path style="opacity:0.881" fill="#040404" d="M 569.5,173.5 C 575.37,172.422 578.703,174.755 579.5,180.5C 578.838,184.495 576.505,186.829 572.5,187.5C 564.578,184.22 563.578,179.553 569.5,173.5 Z"/></g>
<g><path style="opacity:0.943" fill="#020202" d="M 125.5,195.5 C 147.463,196.439 169.13,199.439 190.5,204.5C 158.164,210.501 125.83,216.501 93.5,222.5C 80.3311,214.415 66.9978,206.581 53.5,199C 77.6473,197.64 101.647,196.473 125.5,195.5 Z"/></g>
</svg>
