<?xml version="1.0" encoding="UTF-8"?>
<!DOCTYPE svg PUBLIC "-//W3C//DTD SVG 1.1//EN" "http://www.w3.org/Graphics/SVG/1.1/DTD/svg11.dtd">
<svg xmlns="http://www.w3.org/2000/svg" version="1.1" width="5000px" height="1523px" style="shape-rendering:geometricPrecision; text-rendering:geometricPrecision; image-rendering:optimizeQuality; fill-rule:evenodd; clip-rule:evenodd" xmlns:xlink="http://www.w3.org/1999/xlink">
<g><path style="opacity:0.88" fill="#fefffe" d="M 748.5,291.5 C 805.308,379.096 861.641,467.096 917.5,555.5C 945.958,552.485 970.791,560.485 992,579.5C 1014.5,607.148 1019.5,637.815 1007,671.5C 1004.59,676.218 1002.09,680.884 999.5,685.5C 1009.96,780.453 1019.96,875.453 1029.5,970.5C 1036.16,967.417 1043.16,965.417 1050.5,964.5C 1079.14,969.418 1089.97,986.084 1083,1014.5C 1073.21,1033.22 1058.04,1039.72 1037.5,1034C 1021.96,1025.74 1014.63,1012.91 1015.5,995.5C 935.278,1013.97 854.944,1031.97 774.5,1049.5C 625.422,1001.64 476.422,953.474 327.5,905C 315.721,901.409 304.221,897.242 293,892.5C 292.39,888.764 292.723,885.097 294,881.5C 326.667,766.833 359.333,652.167 392,537.5C 469.398,483.216 547.232,429.55 625.5,376.5C 626.768,377.428 628.101,377.595 629.5,377C 669.348,348.637 709.014,320.137 748.5,291.5 Z M 746.5,296.5 C 747.167,324.998 747.5,353.665 747.5,382.5C 747.651,412.546 747.151,442.546 746,472.5C 712.742,445.787 679.575,418.953 646.5,392C 680.335,360.665 713.668,328.831 746.5,296.5 Z M 750.5,299.5 C 805.059,384.933 859.392,470.6 913.5,556.5C 899.746,560.376 887.413,566.876 876.5,576C 875.833,576.667 875.167,576.667 874.5,576C 833.689,543.356 793.022,510.523 752.5,477.5C 751.381,418.171 750.714,358.838 750.5,299.5 Z M 723.5,314.5 C 696.573,338.65 669.573,362.816 642.5,387C 641.092,387.315 639.759,386.982 638.5,386C 636.957,384.122 635.124,382.622 633,381.5C 632.383,380.551 632.549,379.718 633.5,379C 663.382,357.236 693.382,335.736 723.5,314.5 Z M 626.5,390.5 C 707.128,455.128 787.462,520.128 867.5,585.5C 865.527,588.64 863.36,591.64 861,594.5C 787.285,534.084 713.118,474.584 638.5,416C 620.974,529.685 604.474,643.518 589,757.5C 727.423,824.628 865.923,891.628 1004.5,958.5C 1004.83,957 1005.17,955.5 1005.5,954C 996.724,872.178 988.057,790.345 979.5,708.5C 979.833,706.833 980.167,705.167 980.5,703.5C 983.77,701.733 986.603,699.4 989,696.5C 999.657,789.9 1009.82,883.4 1019.5,977C 1019.17,978.5 1018.83,980 1018.5,981.5C 869.468,909.901 720.635,837.901 572,765.5C 590.109,640.568 608.276,515.568 626.5,390.5 Z M 619.5,392.5 C 620.693,392.97 621.36,393.97 621.5,395.5C 603.723,518.942 585.389,642.275 566.5,765.5C 479.833,804.5 393.167,843.5 306.5,882.5C 306.167,882 305.833,881.5 305.5,881C 337.436,768.421 369.603,655.921 402,543.5C 474.828,493.514 547.328,443.181 619.5,392.5 Z M 606.5,410.5 C 607.497,410.47 608.164,410.97 608.5,412C 591.649,527.605 574.315,643.105 556.5,758.5C 476.957,794.611 397.291,830.111 317.5,865C 347.859,759.586 378.026,654.086 408,548.5C 474.622,503.027 540.788,457.027 606.5,410.5 Z M 639.5,418.5 C 713.148,477.81 786.814,537.143 860.5,596.5C 847.401,623.089 847.234,649.755 860,676.5C 878.948,707.724 906.781,721.557 943.5,718C 955.721,716.465 966.888,712.298 977,705.5C 986.427,788.834 994.927,872.167 1002.5,955.5C 865.622,888.894 728.622,822.561 591.5,756.5C 591.167,755.333 590.833,754.167 590.5,753C 606.789,641.48 623.122,529.98 639.5,418.5 Z M 738.5,575.5 C 766.832,574.913 786.665,587.58 798,613.5C 805.701,638.638 801.367,661.305 785,681.5C 765.223,698.6 743.056,702.433 718.5,693C 696.375,681.272 685.041,662.772 684.5,637.5C 685.884,602.129 703.884,581.462 738.5,575.5 Z M 930.5,576.5 C 961.293,576.426 980.793,591.426 989,621.5C 989.667,631.5 989.667,641.5 989,651.5C 988.327,655.02 987.16,658.353 985.5,661.5C 966.893,633.272 948.56,604.939 930.5,576.5 Z M 976.5,657.5 C 949.708,636.547 923.042,615.381 896.5,594C 894.671,592.887 893.837,591.387 894,589.5C 903.327,581.073 914.161,577.073 926.5,577.5C 943.616,603.936 960.282,630.602 976.5,657.5 Z M 884.5,599.5 C 916.537,623.695 947.871,648.862 978.5,675C 976.854,679.338 973.854,681.671 969.5,682C 939.621,657.281 909.621,632.781 879.5,608.5C 881.445,605.607 883.111,602.607 884.5,599.5 Z M 878.5,611.5 C 908.77,635.097 938.77,659.097 968.5,683.5C 969.521,684.002 969.688,684.668 969,685.5C 944.726,702.664 920.226,702.831 895.5,686C 881.129,672.918 873.796,656.585 873.5,637C 874.291,628.279 875.958,619.779 878.5,611.5 Z M 567.5,769.5 C 716.531,840.515 865.198,912.348 1013.5,985C 933.819,1002.77 854.152,1020.6 774.5,1038.5C 619.198,987.899 463.864,937.399 308.5,887C 394.893,847.801 481.226,808.634 567.5,769.5 Z M 567.5,791.5 C 703.742,856.621 839.742,922.287 975.5,988.5C 911.582,1003.31 847.582,1017.81 783.5,1032C 779.551,1033.18 775.551,1033.52 771.5,1033C 628.427,986.531 485.427,939.864 342.5,893C 417.59,859.117 492.59,825.284 567.5,791.5 Z"/></g>
<g><path style="opacity:0.56" fill="#fefffe" d="M 607.5,407.5 C 608.5,407.5 609.5,407.5 610.5,407.5C 593.816,524.936 576.483,642.269 558.5,759.5C 477.833,795.833 397.167,832.167 316.5,868.5C 316.167,868 315.833,867.5 315.5,867C 345.601,760.427 375.935,653.927 406.5,547.5C 473.741,501.057 540.741,454.391 607.5,407.5 Z M 606.5,410.5 C 540.788,457.027 474.622,503.027 408,548.5C 378.026,654.086 347.859,759.586 317.5,865C 397.291,830.111 476.957,794.611 556.5,758.5C 574.315,643.105 591.649,527.605 608.5,412C 608.164,410.97 607.497,410.47 606.5,410.5 Z"/></g>
<g><path style="opacity:0.918" fill="#fefffe" d="M 1486.5,492.5 C 1498.75,490.282 1506.42,495.115 1509.5,507C 1506.55,522.144 1497.88,526.811 1483.5,521C 1476.78,515.495 1474.94,508.661 1478,500.5C 1480.07,496.923 1482.91,494.256 1486.5,492.5 Z"/></g>
<g><path style="opacity:0.92" fill="#fefffe" d="M 1185.5,522.5 C 1192.75,522.187 1199.92,522.52 1207,523.5C 1207.19,534.546 1207.69,545.546 1208.5,556.5C 1224.15,557.499 1239.82,557.833 1255.5,557.5C 1255.5,563.833 1255.5,570.167 1255.5,576.5C 1239.55,577.479 1223.71,577.812 1208,577.5C 1207.33,608.5 1207.33,639.5 1208,670.5C 1208.83,691.978 1219.99,701.144 1241.5,698C 1247.39,696.152 1253.05,694.152 1258.5,692C 1261.1,696.527 1263.43,701.194 1265.5,706C 1264.9,707.605 1263.9,708.938 1262.5,710C 1245.15,719.651 1227.15,720.984 1208.5,714C 1194.62,706.775 1186.79,695.275 1185,679.5C 1184.67,645.167 1184.33,610.833 1184,576.5C 1174.88,577.736 1165.72,577.736 1156.5,576.5C 1156.19,570.242 1156.52,564.076 1157.5,558C 1166.49,557.5 1175.49,557.334 1184.5,557.5C 1184.19,545.753 1184.52,534.086 1185.5,522.5 Z"/></g>
<g><path style="opacity:0.933" fill="#fefffe" d="M 735.5,555.5 C 781.516,553.401 810.683,574.401 823,618.5C 829.149,651.047 820.316,678.547 796.5,701C 770.945,719.964 743.278,723.63 713.5,712C 702.639,707.228 693.639,700.061 686.5,690.5C 685.667,718.494 685.167,746.494 685,774.5C 677.914,775.646 670.747,775.812 663.5,775C 662.335,702.904 662.169,630.737 663,558.5C 670,557.167 677,557.167 684,558.5C 684.333,567.5 684.667,576.5 685,585.5C 697.695,568.407 714.529,558.407 735.5,555.5 Z M 738.5,575.5 C 703.884,581.462 685.884,602.129 684.5,637.5C 685.041,662.772 696.375,681.272 718.5,693C 743.056,702.433 765.223,698.6 785,681.5C 801.367,661.305 805.701,638.638 798,613.5C 786.665,587.58 766.832,574.913 738.5,575.5 Z"/></g>
<g><path style="opacity:0.915" fill="#fefffe" d="M 1125.5,555.5 C 1129.11,555.211 1132.61,555.544 1136,556.5C 1136.5,563.492 1136.67,570.492 1136.5,577.5C 1105.63,575.656 1086.79,589.656 1080,619.5C 1079.81,651.863 1079.31,684.196 1078.5,716.5C 1070.91,716.814 1063.41,716.481 1056,715.5C 1055.33,663.167 1055.33,610.833 1056,558.5C 1063,557.167 1070,557.167 1077,558.5C 1077.33,567.167 1077.67,575.833 1078,584.5C 1089.46,567.525 1105.3,557.858 1125.5,555.5 Z"/></g>
<g><path style="opacity:0.927" fill="#fefffe" d="M 1348.5,555.5 C 1364.01,554.298 1379.01,556.465 1393.5,562C 1412.89,571.758 1423.06,587.592 1424,609.5C 1424.83,645.071 1424.66,680.571 1423.5,716C 1416.83,716.667 1410.17,716.667 1403.5,716C 1402.69,709.247 1402.19,702.414 1402,695.5C 1388.09,711.2 1370.59,718.866 1349.5,718.5C 1333.73,719.074 1319.4,714.907 1306.5,706C 1289.58,690.332 1285.74,671.832 1295,650.5C 1304.2,636.973 1317.03,629.139 1333.5,627C 1356.07,626.828 1378.57,626.328 1401,625.5C 1404.14,593.47 1389.64,576.803 1357.5,575.5C 1337.8,576.008 1320.3,582.342 1305,594.5C 1301.13,589.254 1297.63,583.754 1294.5,578C 1302.38,570.89 1311.38,565.557 1321.5,562C 1330.44,559.064 1339.44,556.897 1348.5,555.5 Z M 1345.5,643.5 C 1363.84,643.333 1382.17,643.5 1400.5,644C 1406.02,671.625 1395.36,689.625 1368.5,698C 1353.67,701.834 1339.34,700.5 1325.5,694C 1311.48,683.086 1308.98,669.919 1318,654.5C 1325.78,647.187 1334.95,643.52 1345.5,643.5 Z"/></g>
<g><path style="opacity:0.932" fill="#fefffe" d="M 1633.5,555.5 C 1649.58,554.524 1664.92,557.357 1679.5,564C 1698.18,575.506 1708.01,592.339 1709,614.5C 1709.67,648.167 1709.67,681.833 1709,715.5C 1701.67,716.833 1694.33,716.833 1687,715.5C 1686.67,682.167 1686.33,648.833 1686,615.5C 1681.69,589.249 1666.19,576.582 1639.5,577.5C 1609.64,576.864 1591.8,591.197 1586,620.5C 1585.67,652.167 1585.33,683.833 1585,715.5C 1577.59,716.481 1570.09,716.814 1562.5,716.5C 1562.5,663.5 1562.5,610.5 1562.5,557.5C 1569.75,557.187 1576.92,557.52 1584,558.5C 1584.33,566.5 1584.67,574.5 1585,582.5C 1597.54,566.834 1613.7,557.834 1633.5,555.5 Z"/></g>
<g><path style="opacity:0.923" fill="#fefffe" d="M 1818.5,555.5 C 1859.6,553.284 1887.43,571.284 1902,609.5C 1905.23,620.66 1906.06,631.993 1904.5,643.5C 1860.54,644.495 1816.54,644.828 1772.5,644.5C 1776.54,673.376 1792.87,690.876 1821.5,697C 1845.49,701.017 1865.99,694.517 1883,677.5C 1888.3,681.762 1892.3,686.762 1895,692.5C 1881.79,707.188 1865.29,715.688 1845.5,718C 1807.85,721.921 1779.02,708.088 1759,676.5C 1744.8,644.321 1747.47,613.654 1767,584.5C 1780.63,568.437 1797.8,558.771 1818.5,555.5 Z M 1820.5,575.5 C 1847.53,573.534 1867.03,584.534 1879,608.5C 1881.2,614.332 1882.7,620.332 1883.5,626.5C 1846.5,626.5 1809.5,626.5 1772.5,626.5C 1776.55,597.971 1792.55,580.971 1820.5,575.5 Z"/></g>
<g><path style="opacity:0.912" fill="#fefffe" d="M 2017.5,555.5 C 2027.26,552.93 2031.26,556.597 2029.5,566.5C 2029.37,570.201 2029.04,573.868 2028.5,577.5C 1998.07,576.122 1979.23,590.122 1972,619.5C 1971.67,651.167 1971.33,682.833 1971,714.5C 1963.78,716.444 1956.28,717.111 1948.5,716.5C 1947.17,663.5 1947.17,610.5 1948.5,557.5C 1955.5,557.5 1962.5,557.5 1969.5,557.5C 1969.33,566.839 1969.5,576.173 1970,585.5C 1976.82,573.018 1986.98,564.518 2000.5,560C 2006.25,558.359 2011.91,556.859 2017.5,555.5 Z"/></g>
<g><path style="opacity:0.937" fill="#fefffe" d="M 1481.5,557.5 C 1489.09,557.186 1496.59,557.519 1504,558.5C 1504.67,610.833 1504.67,663.167 1504,715.5C 1496.59,716.481 1489.09,716.814 1481.5,716.5C 1481.5,663.5 1481.5,610.5 1481.5,557.5 Z"/></g>
<g><path style="opacity:0.985" fill="#fefffe" d="M 4652.5,619.5 C 4669.85,619.167 4687.18,619.5 4704.5,620.5C 4650.7,773.054 4597.2,925.72 4544,1078.5C 4535.4,1079.82 4526.56,1080.49 4517.5,1080.5C 4508.83,1080.17 4500.17,1079.83 4491.5,1079.5C 4545.57,926.294 4599.24,772.96 4652.5,619.5 Z"/></g>
<g><path style="opacity:0.979" fill="#fefffe" d="M 2029.5,665.5 C 2047.41,665.174 2065.24,665.508 2083,666.5C 2083.33,708.5 2083.67,750.5 2084,792.5C 2103.31,776.834 2125.48,768.001 2150.5,766C 2180.21,762.94 2207.87,768.94 2233.5,784C 2259.84,804.169 2274.01,831.002 2276,864.5C 2276.67,920.833 2276.67,977.167 2276,1033.5C 2258.58,1034.49 2241.08,1034.83 2223.5,1034.5C 2223.67,982.832 2223.5,931.166 2223,879.5C 2221.63,838.127 2200.29,816.793 2159,815.5C 2134.18,814.753 2113.84,823.753 2098,842.5C 2089.98,853.889 2085.31,866.555 2084,880.5C 2083.67,931.5 2083.33,982.5 2083,1033.5C 2065.24,1034.49 2047.41,1034.83 2029.5,1034.5C 2029.5,911.5 2029.5,788.5 2029.5,665.5 Z"/></g>
<g><path style="opacity:0.97" fill="#fefffe" d="M 2622.5,665.5 C 2640.84,665.333 2659.17,665.5 2677.5,666C 2676.17,788.667 2676.17,911.333 2677.5,1034C 2659.17,1034.5 2640.84,1034.67 2622.5,1034.5C 2622.5,911.5 2622.5,788.5 2622.5,665.5 Z"/></g>
<g><path style="opacity:0.988" fill="#fefffe" d="M 2748.5,666.5 C 2766.66,665.338 2785,665.171 2803.5,666C 2802.17,788.667 2802.17,911.333 2803.5,1034C 2785.17,1034.67 2766.83,1034.67 2748.5,1034C 2749.83,911.402 2749.83,788.902 2748.5,666.5 Z"/></g>
<g><path style="opacity:0.975" fill="#fefffe" d="M 4327.5,665.5 C 4355.54,669.365 4366.38,685.031 4360,712.5C 4350.07,731.152 4334.9,737.319 4314.5,731C 4296.42,721.666 4290.25,707.166 4296,687.5C 4302.3,674.016 4312.8,666.683 4327.5,665.5 Z"/></g>
<g><path style="opacity:0.988" fill="#fefffe" d="M 4426.5,666.5 C 4444.66,665.338 4463,665.171 4481.5,666C 4480.17,788.667 4480.17,911.333 4481.5,1034C 4463.17,1034.67 4444.83,1034.67 4426.5,1034C 4427.83,911.402 4427.83,788.902 4426.5,666.5 Z"/></g>
<g><path style="opacity:0.982" fill="#fefffe" d="M 1259.5,765.5 C 1305.79,761.753 1344.62,776.753 1376,810.5C 1403.27,846.485 1412.6,886.818 1404,931.5C 1390.06,990.435 1353.23,1024.94 1293.5,1035C 1261.13,1039.53 1231.13,1033.19 1203.5,1016C 1199.24,1012.62 1195.07,1009.12 1191,1005.5C 1190.5,1045.17 1190.33,1084.83 1190.5,1124.5C 1172.5,1124.5 1154.5,1124.5 1136.5,1124.5C 1136.5,1005.5 1136.5,886.5 1136.5,767.5C 1153.83,767.5 1171.17,767.5 1188.5,767.5C 1188.33,777.506 1188.5,787.506 1189,797.5C 1209.11,779.364 1232.61,768.697 1259.5,765.5 Z M 1265.5,814.5 C 1304,813.656 1331.17,830.656 1347,865.5C 1355.67,889.167 1355.67,912.833 1347,936.5C 1332.37,968.943 1307.21,985.609 1271.5,986.5C 1229.01,984.829 1202.51,963.496 1192,922.5C 1185.88,893.206 1191.54,866.54 1209,842.5C 1224.26,825.788 1243.09,816.455 1265.5,814.5 Z"/></g>
<g><path style="opacity:0.981" fill="#fefffe" d="M 1866.5,765.5 C 1892.55,763.62 1917.55,767.786 1941.5,778C 1962.92,789.256 1979.59,805.422 1991.5,826.5C 1978.43,836.401 1964.93,845.734 1951,854.5C 1945.28,847.1 1939.11,839.934 1932.5,833C 1911.19,816.329 1887.19,810.996 1860.5,817C 1828.9,825.6 1809.07,845.767 1801,877.5C 1794.93,906.069 1799.93,932.403 1816,956.5C 1839.36,982.226 1868.19,991.393 1902.5,984C 1919.02,979.822 1932.52,970.989 1943,957.5C 1945.42,953.656 1948.09,949.99 1951,946.5C 1964.59,955.71 1978.09,965.043 1991.5,974.5C 1966.66,1016.94 1929.32,1037.6 1879.5,1036.5C 1829.29,1035.32 1790.46,1013.99 1763,972.5C 1740.69,929.456 1738.69,885.456 1757,840.5C 1774.39,805.449 1801.89,782.282 1839.5,771C 1848.55,768.719 1857.55,766.885 1866.5,765.5 Z"/></g>
<g><path style="opacity:0.984" fill="#fefffe" d="M 2426.5,765.5 C 2451.68,763.482 2476.01,766.982 2499.5,776C 2532.04,791.913 2549.54,818.08 2552,854.5C 2552.5,914.499 2552.67,974.499 2552.5,1034.5C 2535.17,1034.5 2517.83,1034.5 2500.5,1034.5C 2500.67,1027.16 2500.5,1019.83 2500,1012.5C 2478.62,1029.07 2454.29,1037.07 2427,1036.5C 2398.46,1037.32 2372.96,1029.15 2350.5,1012C 2328.29,989.683 2321.13,963.183 2329,932.5C 2335.7,910.461 2349.54,894.627 2370.5,885C 2384.89,878.989 2399.89,875.656 2415.5,875C 2443.5,874.5 2471.5,874.333 2499.5,874.5C 2499.87,834.203 2479.87,814.203 2439.5,814.5C 2407.41,815.022 2379.75,826.188 2356.5,848C 2355.55,848.617 2354.72,848.451 2354,847.5C 2345.83,834 2337.67,820.5 2329.5,807C 2357.29,782.57 2389.62,768.737 2426.5,765.5 Z M 2422.5,919.5 C 2448.17,919.5 2473.83,919.5 2499.5,919.5C 2499.67,928.173 2499.5,936.84 2499,945.5C 2493.44,957.392 2485.94,967.892 2476.5,977C 2456.31,988.902 2434.64,992.569 2411.5,988C 2385.03,981.52 2375.2,965.353 2382,939.5C 2386.47,931.03 2393.3,925.53 2402.5,923C 2409.23,921.384 2415.9,920.218 2422.5,919.5 Z"/></g>
<g><path style="opacity:0.983" fill="#fefffe" d="M 2955.5,765.5 C 2983.1,762.923 3009.43,767.423 3034.5,779C 3063.64,796.416 3079.14,822.25 3081,856.5C 3081.67,915.5 3081.67,974.5 3081,1033.5C 3063.91,1034.49 3046.74,1034.83 3029.5,1034.5C 3029.67,1027.16 3029.5,1019.83 3029,1012.5C 3007.54,1028.79 2983.2,1036.79 2956,1036.5C 2928.58,1037.11 2903.75,1029.61 2881.5,1014C 2858.11,992.312 2849.95,965.812 2857,934.5C 2862.92,910.913 2877.09,894.413 2899.5,885C 2913.59,879.146 2928.25,875.812 2943.5,875C 2971.83,874.5 3000.16,874.333 3028.5,874.5C 3028.89,834.225 3008.89,814.225 2968.5,814.5C 2936.25,814.632 2908.59,825.799 2885.5,848C 2884.36,848.749 2883.36,848.583 2882.5,847.5C 2874.67,834.5 2866.83,821.5 2859,808.5C 2858.25,807.365 2858.42,806.365 2859.5,805.5C 2887.32,782.224 2919.32,768.891 2955.5,765.5 Z M 2950.5,919.5 C 2976.5,919.5 3002.5,919.5 3028.5,919.5C 3028.67,928.173 3028.5,936.84 3028,945.5C 3021.78,958.452 3013.28,969.618 3002.5,979C 2980.1,990.223 2956.76,992.556 2932.5,986C 2909.09,975.765 2902.59,958.932 2913,935.5C 2918.29,928.1 2925.46,923.6 2934.5,922C 2939.99,921.226 2945.32,920.393 2950.5,919.5 Z"/></g>
<g><path style="opacity:0.978" fill="#fefffe" d="M 3335.5,765.5 C 3391.65,761.155 3434.15,782.822 3463,830.5C 3470.54,844.634 3475.38,859.634 3477.5,875.5C 3478.68,875.281 3479.68,875.614 3480.5,876.5C 3479.36,878.117 3478.69,879.95 3478.5,882C 3479.76,895.06 3479.76,908.06 3478.5,921C 3410.17,921.333 3341.83,921.667 3273.5,922C 3286.23,964.697 3315.07,986.197 3360,986.5C 3379.15,986.674 3396.65,981.507 3412.5,971C 3420.14,964.365 3427.47,957.365 3434.5,950C 3435.17,949.333 3435.83,949.333 3436.5,950C 3446.31,961.98 3456.31,973.813 3466.5,985.5C 3444.47,1014.69 3415.13,1031.19 3378.5,1035C 3337.14,1040.33 3299.81,1030.66 3266.5,1006C 3228.15,971.298 3212.98,928.132 3221,876.5C 3230.45,822.386 3261.28,786.886 3313.5,770C 3320.91,768.16 3328.24,766.66 3335.5,765.5 Z M 3337.5,814.5 C 3375,810.992 3402.5,825.659 3420,858.5C 3421.97,864.056 3423.47,869.722 3424.5,875.5C 3374.5,875.5 3324.5,875.5 3274.5,875.5C 3282.1,841.233 3303.1,820.899 3337.5,814.5 Z"/></g>
<g><path style="opacity:0.983" fill="#fefffe" d="M 3645.5,765.5 C 3676.18,762.67 3704.18,769.837 3729.5,787C 3737.18,793.337 3743.34,800.837 3748,809.5C 3769.18,783.323 3796.68,768.823 3830.5,766C 3860.46,762.742 3888.13,769.075 3913.5,785C 3936.99,803.798 3950.15,828.298 3953,858.5C 3954.63,916.813 3954.96,975.146 3954,1033.5C 3936.24,1034.49 3918.41,1034.83 3900.5,1034.5C 3900.67,979.832 3900.5,925.166 3900,870.5C 3896.33,834.668 3876.5,816.334 3840.5,815.5C 3802.18,815.719 3778.68,834.385 3770,871.5C 3769,878.467 3768.34,885.467 3768,892.5C 3767.5,939.832 3767.33,987.165 3767.5,1034.5C 3749.83,1034.5 3732.17,1034.5 3714.5,1034.5C 3714.67,981.832 3714.5,929.166 3714,876.5C 3712.35,837.685 3692.18,817.351 3653.5,815.5C 3607,818.169 3582.83,842.835 3581,889.5C 3580.67,937.5 3580.33,985.5 3580,1033.5C 3562.58,1034.49 3545.08,1034.83 3527.5,1034.5C 3527.5,945.5 3527.5,856.5 3527.5,767.5C 3544.83,767.5 3562.17,767.5 3579.5,767.5C 3579.33,776.173 3579.5,784.84 3580,793.5C 3598.9,777.256 3620.74,767.923 3645.5,765.5 Z"/></g>
<g><path style="opacity:0.98" fill="#fefffe" d="M 4104.5,765.5 C 4133.72,762.778 4161.38,767.945 4187.5,781C 4207.98,793.823 4221.15,811.99 4227,835.5C 4229.57,847.022 4230.9,858.689 4231,870.5C 4231.67,924.833 4231.67,979.167 4231,1033.5C 4213.58,1034.49 4196.08,1034.83 4178.5,1034.5C 4178.67,1027.16 4178.5,1019.83 4178,1012.5C 4162.27,1025.61 4144.1,1033.11 4123.5,1035C 4098.39,1038.21 4074.05,1035.21 4050.5,1026C 4011.99,1006.19 3997.49,975.023 4007,932.5C 4014.56,908.609 4030.06,892.109 4053.5,883C 4066.47,878.539 4079.8,875.873 4093.5,875C 4121.5,874.5 4149.5,874.333 4177.5,874.5C 4177.91,834.239 4157.91,814.239 4117.5,814.5C 4085.41,815.022 4057.75,826.188 4034.5,848C 4033.55,848.617 4032.72,848.451 4032,847.5C 4023.96,833.917 4015.79,820.417 4007.5,807C 4035.27,782.573 4067.61,768.74 4104.5,765.5 Z M 4100.5,919.5 C 4126.17,919.5 4151.83,919.5 4177.5,919.5C 4177.67,928.173 4177.5,936.84 4177,945.5C 4164.57,976.144 4141.73,990.811 4108.5,989.5C 4090.52,991.012 4075.36,985.345 4063,972.5C 4056.91,962.026 4055.91,951.026 4060,939.5C 4064.47,931.03 4071.3,925.53 4080.5,923C 4087.23,921.384 4093.9,920.218 4100.5,919.5 Z"/></g>
<g><path style="opacity:0.987" fill="#fefffe" d="M 1452.5,767.5 C 1470.17,767.5 1487.83,767.5 1505.5,767.5C 1505.33,820.168 1505.5,872.834 1506,925.5C 1508.6,965.271 1529.77,985.271 1569.5,985.5C 1616.18,984.318 1640.68,960.318 1643,913.5C 1643.5,864.834 1643.67,816.168 1643.5,767.5C 1661.17,767.5 1678.83,767.5 1696.5,767.5C 1696.5,856.5 1696.5,945.5 1696.5,1034.5C 1679.17,1034.5 1661.83,1034.5 1644.5,1034.5C 1644.67,1025.49 1644.5,1016.49 1644,1007.5C 1627.19,1022.99 1607.36,1032.15 1584.5,1035C 1549.85,1039.95 1518.18,1032.62 1489.5,1013C 1467.37,993.569 1455.2,969.069 1453,939.5C 1452.5,882.168 1452.33,824.834 1452.5,767.5 Z"/></g>
<g><path style="opacity:0.987" fill="#fefffe" d="M 4301.5,767.5 C 4319.17,767.5 4336.83,767.5 4354.5,767.5C 4354.67,856.167 4354.5,944.834 4354,1033.5C 4336.58,1034.49 4319.08,1034.83 4301.5,1034.5C 4301.5,945.5 4301.5,856.5 4301.5,767.5 Z"/></g>
<g><path style="opacity:0.528" fill="#fefffe" d="M 566.5,789.5 C 571.67,790.746 576.67,792.58 581.5,795C 714.531,859.516 847.531,924.016 980.5,988.5C 980.291,989.086 979.957,989.586 979.5,990C 912.5,1005 845.5,1020 778.5,1035C 776.167,1035.67 773.833,1035.67 771.5,1035C 627.048,988.127 482.714,940.96 338.5,893.5C 341.005,891.747 343.671,890.247 346.5,889C 420.145,856.295 493.478,823.128 566.5,789.5 Z M 567.5,791.5 C 492.59,825.284 417.59,859.117 342.5,893C 485.427,939.864 628.427,986.531 771.5,1033C 775.551,1033.52 779.551,1033.18 783.5,1032C 847.582,1017.81 911.582,1003.31 975.5,988.5C 839.742,922.287 703.742,856.621 567.5,791.5 Z"/></g>
<g><path style="opacity:0.976" fill="#fefffe" d="M 3164.5,964.5 C 3186.14,966.806 3198.14,978.806 3200.5,1000.5C 3198.16,1022.17 3186.16,1034.17 3164.5,1036.5C 3143.17,1033.84 3131.84,1021.84 3130.5,1000.5C 3131.94,979.064 3143.27,967.064 3164.5,964.5 Z"/></g>
<g><path style="opacity:0.988" fill="#fefffe" d="M 760.5,1087.5 C 766.176,1087.33 771.843,1087.5 777.5,1088C 870.566,1103.01 963.566,1118.34 1056.5,1134C 877.892,1166.16 699.226,1197.99 520.5,1229.5C 516.675,1228.59 513.008,1227.09 509.5,1225C 440.348,1184.66 371.348,1144.16 302.5,1103.5C 455.32,1098.05 607.987,1092.72 760.5,1087.5 Z"/></g>
</svg>
