<?xml version="1.0" encoding="UTF-8"?>
<!DOCTYPE svg PUBLIC "-//W3C//DTD SVG 1.1//EN" "http://www.w3.org/Graphics/SVG/1.1/DTD/svg11.dtd">
<svg xmlns="http://www.w3.org/2000/svg" version="1.1" width="2000px" height="1074px" style="shape-rendering:geometricPrecision; text-rendering:geometricPrecision; image-rendering:optimizeQuality; fill-rule:evenodd; clip-rule:evenodd" xmlns:xlink="http://www.w3.org/1999/xlink">
<g><path style="opacity:0.967" fill="#fefffe" d="M 994.5,145.5 C 1015.94,145.772 1024.78,156.439 1021,177.5C 1017.42,184.755 1011.75,189.422 1004,191.5C 1003.5,219.498 1003.33,247.498 1003.5,275.5C 1051.88,279.723 1084.05,304.723 1100,350.5C 1102.04,358.417 1103.54,366.417 1104.5,374.5C 1132.49,375.5 1160.49,375.833 1188.5,375.5C 1192.89,360.137 1202.89,354.304 1218.5,358C 1233.76,366.125 1237.6,377.958 1230,393.5C 1216.61,407.085 1203.61,406.751 1191,392.5C 1189.66,389.978 1188.83,387.311 1188.5,384.5C 1160.5,384.5 1132.5,384.5 1104.5,384.5C 1100.1,429.05 1077.44,460.216 1036.5,478C 1025.84,481.888 1014.84,484.055 1003.5,484.5C 1003.17,512.508 1003.5,540.508 1004.5,568.5C 1022.36,575.911 1026.86,588.244 1018,605.5C 1004.98,617.793 992.312,617.459 980,604.5C 972.425,587.447 977.258,575.447 994.5,568.5C 995.5,540.508 995.833,512.508 995.5,484.5C 943.746,479.914 910.912,452.58 897,402.5C 896.056,396.502 895.223,390.502 894.5,384.5C 866.5,384.5 838.5,384.5 810.5,384.5C 807.482,396.01 799.982,402.344 788,403.5C 774.167,401.667 766.333,393.833 764.5,380C 766.345,366.155 774.178,358.322 788,356.5C 799.971,357.645 807.471,363.978 810.5,375.5C 838.5,375.5 866.5,375.5 894.5,375.5C 899.01,329.953 922.343,298.453 964.5,281C 974.57,277.655 984.904,275.822 995.5,275.5C 995.833,247.492 995.5,219.492 994.5,191.5C 980.821,187.154 974.988,177.821 977,163.5C 979.692,154.309 985.525,148.309 994.5,145.5 Z M 994.5,307.5 C 1013.48,306.998 1025.98,315.664 1032,333.5C 1032.5,341.159 1032.67,348.826 1032.5,356.5C 1037.18,356.334 1041.85,356.501 1046.5,357C 1047,357.5 1047.5,358 1048,358.5C 1048.67,385.833 1048.67,413.167 1048,440.5C 1047.5,441 1047,441.5 1046.5,442C 1015.17,442.667 983.833,442.667 952.5,442C 952,441.5 951.5,441 951,440.5C 950.333,412.833 950.333,385.167 951,357.5C 956.072,356.529 961.238,356.195 966.5,356.5C 966.334,348.826 966.5,341.159 967,333.5C 971.234,319.428 980.401,310.761 994.5,307.5 Z M 996.5,375.5 C 1007.3,375.365 1013.3,380.531 1014.5,391C 1014.56,398.776 1010.9,403.943 1003.5,406.5C 1002.67,411.467 1002.17,416.467 1002,421.5C 1000.52,423.781 998.851,423.781 997,421.5C 996.667,416.5 996.333,411.5 996,406.5C 988.525,404.022 984.358,398.856 983.5,391C 984.69,383.081 989.023,377.914 996.5,375.5 Z"/></g>
<g><path style="opacity:0.9" fill="#fefffe" d="M 950.5,169.5 C 952.857,169.337 955.19,169.503 957.5,170C 960.08,172.12 960.08,174.287 957.5,176.5C 896.771,190.422 850.605,224.088 819,277.5C 808.908,295.776 801.574,315.109 797,335.5C 794.005,340.806 791.172,340.806 788.5,335.5C 810.534,248.801 864.534,193.468 950.5,169.5 Z"/></g>
<g><path style="opacity:0.876" fill="#fefffe" d="M 1041.5,169.5 C 1113.89,185.057 1165.72,226.39 1197,293.5C 1202.6,307.138 1207.1,321.138 1210.5,335.5C 1209.51,339.147 1207.18,340.314 1203.5,339C 1181.47,252.973 1127.47,198.973 1041.5,177C 1038.91,174.506 1038.91,172.006 1041.5,169.5 Z"/></g>
<g><path style="opacity:0.955" fill="#fefffe" d="M 993.5,314.5 C 1011.35,312.49 1022.18,320.157 1026,337.5C 1026.5,343.825 1026.67,350.158 1026.5,356.5C 1008.5,356.5 990.5,356.5 972.5,356.5C 971.954,347.348 972.788,338.348 975,329.5C 979.058,321.743 985.225,316.743 993.5,314.5 Z"/></g>
<g><path style="opacity:0.949" fill="#fefffe" d="M 957.5,362.5 C 985.833,362.5 1014.17,362.5 1042.5,362.5C 1042.83,386.741 1042.49,410.908 1041.5,435C 1013.17,435.5 984.835,435.667 956.5,435.5C 956.177,411.092 956.51,386.759 957.5,362.5 Z M 996.5,375.5 C 989.023,377.914 984.69,383.081 983.5,391C 984.358,398.856 988.525,404.022 996,406.5C 996.333,411.5 996.667,416.5 997,421.5C 998.851,423.781 1000.52,423.781 1002,421.5C 1002.17,416.467 1002.67,411.467 1003.5,406.5C 1010.9,403.943 1014.56,398.776 1014.5,391C 1013.3,380.531 1007.3,375.365 996.5,375.5 Z"/></g>
<g><path style="opacity:0.896" fill="#fefffe" d="M 995.5,382.5 C 1007.29,382.435 1010.63,387.602 1005.5,398C 996.363,402.352 991.529,399.518 991,389.5C 991.904,386.767 993.404,384.433 995.5,382.5 Z"/></g>
<g><path style="opacity:0.879" fill="#fefffe" d="M 790.5,420.5 C 792.467,420.261 794.301,420.594 796,421.5C 817.842,507.342 871.675,561.175 957.5,583C 960.167,585.333 960.167,587.667 957.5,590C 935.622,586.818 914.956,579.818 895.5,569C 838.692,536.665 803.025,488.498 788.5,424.5C 788.752,422.927 789.418,421.594 790.5,420.5 Z"/></g>
<g><path style="opacity:0.903" fill="#fefffe" d="M 1203.5,420.5 C 1207.2,419.68 1209.53,421.013 1210.5,424.5C 1192.16,500.342 1146.82,552.842 1074.5,582C 1063.78,586.097 1052.78,588.764 1041.5,590C 1039.01,587.756 1039.01,585.423 1041.5,583C 1127.72,560.949 1181.72,506.782 1203.5,420.5 Z"/></g>
<g><path style="opacity:0.9" fill="#fefffe" d="M 615.5,654.5 C 620.844,654.334 626.177,654.501 631.5,655C 632.126,655.75 632.626,656.584 633,657.5C 633.472,679.676 633.639,701.676 633.5,723.5C 652.192,704.924 674.192,699.757 699.5,708C 718.627,716.06 728.46,730.56 729,751.5C 729.667,777.167 729.667,802.833 729,828.5C 723.259,829.475 717.425,829.808 711.5,829.5C 711.667,803.831 711.5,778.165 711,752.5C 708.414,731.21 696.414,720.877 675,721.5C 652.798,720.749 639.131,731.082 634,752.5C 633.667,777.5 633.333,802.5 633,827.5C 627.126,829.43 620.96,830.097 614.5,829.5C 614.171,771.095 614.504,712.762 615.5,654.5 Z"/></g>
<g><path style="opacity:0.931" fill="#fefffe" d="M 912.5,654.5 C 918.093,654.193 923.593,654.527 929,655.5C 929.5,713.499 929.667,771.499 929.5,829.5C 923.5,829.5 917.5,829.5 911.5,829.5C 911.171,771.095 911.504,712.762 912.5,654.5 Z"/></g>
<g><path style="opacity:0.932" fill="#fefffe" d="M 975.5,654.5 C 981.093,654.193 986.593,654.527 992,655.5C 992.5,713.499 992.667,771.499 992.5,829.5C 986.5,829.5 980.5,829.5 974.5,829.5C 974.171,771.095 974.504,712.762 975.5,654.5 Z"/></g>
<g><path style="opacity:0.888" fill="#fefffe" d="M 1757.5,654.5 C 1769.52,655.685 1773.69,662.018 1770,673.5C 1768.75,676.381 1766.58,678.214 1763.5,679C 1751.88,681.038 1746.04,676.204 1746,664.5C 1748.25,659.071 1752.08,655.738 1757.5,654.5 Z"/></g>
<g><path style="opacity:0.877" fill="#fefffe" d="M 1813.5,654.5 C 1818.84,654.334 1824.18,654.501 1829.5,655C 1830.13,655.75 1830.63,656.584 1831,657.5C 1831.67,714.167 1831.67,770.833 1831,827.5C 1825.13,829.43 1818.96,830.097 1812.5,829.5C 1812.17,771.095 1812.5,712.762 1813.5,654.5 Z"/></g>
<g><path style="opacity:0.918" fill="#fefffe" d="M 222.5,704.5 C 253.762,701.336 276.262,713.669 290,741.5C 297.311,762.969 295.644,783.635 285,803.5C 266.527,828.167 242.36,836.334 212.5,828C 202.623,823.798 194.123,817.631 187,809.5C 186.667,831.167 186.333,852.833 186,874.5C 180.584,875.639 175.084,875.806 169.5,875C 168.336,818.904 168.169,762.737 169,706.5C 174.333,705.167 179.667,705.167 185,706.5C 185.169,713.191 185.669,719.858 186.5,726.5C 195.756,714.558 207.756,707.225 222.5,704.5 Z M 225.5,720.5 C 250.694,719.336 267.194,730.669 275,754.5C 279.946,776.334 273.779,794.168 256.5,808C 238.412,818.078 220.745,817.411 203.5,806C 189.274,792.951 183.774,776.784 187,757.5C 191.623,736.373 204.456,724.039 225.5,720.5 Z"/></g>
<g><path style="opacity:0.906" fill="#fefffe" d="M 526.5,704.5 C 546.197,702.125 563.53,707.291 578.5,720C 580.907,722.738 582.907,725.738 584.5,729C 581.142,732.862 577.142,736.028 572.5,738.5C 559.691,723.036 543.357,717.536 523.5,722C 501.644,729.188 490.644,744.355 490.5,767.5C 491.749,796.415 506.749,812.415 535.5,815.5C 550.539,815.23 562.706,809.23 572,797.5C 576.723,799.563 580.889,802.396 584.5,806C 578.474,816.863 569.474,824.197 557.5,828C 529.048,836.014 504.881,829.181 485,807.5C 467.082,780.884 467.082,754.217 485,727.5C 496.227,714.973 510.061,707.306 526.5,704.5 Z"/></g>
<g><path style="opacity:0.906" fill="#fefffe" d="M 805.5,704.5 C 821.982,702.54 837.315,705.706 851.5,714C 861.852,722.704 867.018,733.87 867,747.5C 867.828,774.739 867.661,801.905 866.5,829C 861.167,829.667 855.833,829.667 850.5,829C 849.693,823.917 849.193,818.75 849,813.5C 836.041,827.795 819.875,833.628 800.5,831C 774.233,828.083 761.733,813.583 763,787.5C 767.903,771.615 778.736,762.448 795.5,760C 813.407,759.826 831.24,759.326 849,758.5C 851.054,734.059 839.887,721.392 815.5,720.5C 800.297,720.789 786.631,725.456 774.5,734.5C 773.522,734.023 772.689,733.357 772,732.5C 769.777,729.221 767.943,725.721 766.5,722C 766.759,720.739 767.426,719.739 768.5,719C 779.834,711.502 792.167,706.669 805.5,704.5 Z M 810.5,772.5 C 823.217,772.186 835.883,772.519 848.5,773.5C 852.469,792.729 845.469,806.229 827.5,814C 816.486,817.28 805.486,817.28 794.5,814C 781.322,807.5 777.489,797.333 783,783.5C 790.473,775.511 799.64,771.844 810.5,772.5 Z"/></g>
<g><path style="opacity:0.909" fill="#fefffe" d="M 1069.5,704.5 C 1086,702.414 1101.33,705.58 1115.5,714C 1125.33,722.168 1130.5,732.668 1131,745.5C 1131.5,773.498 1131.67,801.498 1131.5,829.5C 1125.82,829.666 1120.16,829.499 1114.5,829C 1113.57,823.646 1113.23,818.48 1113.5,813.5C 1105.24,823.547 1094.57,829.38 1081.5,831C 1068.62,832.362 1056.28,830.362 1044.5,825C 1028.57,814.467 1023.4,799.967 1029,781.5C 1035.54,769.302 1045.71,762.136 1059.5,760C 1077.41,759.826 1095.24,759.326 1113,758.5C 1115.47,733.763 1104.3,721.096 1079.5,720.5C 1064.3,720.789 1050.63,725.456 1038.5,734.5C 1035.52,731.217 1033.02,727.551 1031,723.5C 1030.25,722.365 1030.42,721.365 1031.5,720.5C 1035.45,717.046 1039.78,714.213 1044.5,712C 1052.72,708.7 1061.06,706.2 1069.5,704.5 Z M 1075.5,772.5 C 1087.88,772.187 1100.22,772.52 1112.5,773.5C 1116.66,792.825 1109.66,806.325 1091.5,814C 1080.5,817.333 1069.5,817.333 1058.5,814C 1046.63,808.394 1042.46,799.227 1046,786.5C 1048.56,780.939 1052.73,777.106 1058.5,775C 1064.29,774.039 1069.95,773.205 1075.5,772.5 Z"/></g>
<g><path style="opacity:0.906" fill="#fefffe" d="M 1260.5,704.5 C 1296.57,701.929 1319.4,717.929 1329,752.5C 1330.12,759.141 1330.45,765.808 1330,772.5C 1295.57,773.163 1261.07,773.83 1226.5,774.5C 1231.97,800.135 1247.8,813.802 1274,815.5C 1288.58,815.199 1301.08,810.032 1311.5,800C 1315.98,802.133 1319.65,805.466 1322.5,810C 1312.05,822.228 1298.72,829.228 1282.5,831C 1249.04,833.7 1225.54,819.867 1212,789.5C 1203.81,759.731 1211.31,734.898 1234.5,715C 1242.58,709.813 1251.24,706.313 1260.5,704.5 Z M 1262.5,720.5 C 1290.98,718.67 1307.65,731.67 1312.5,759.5C 1283.83,759.667 1255.16,759.5 1226.5,759C 1229.83,737.84 1241.83,725.007 1262.5,720.5 Z"/></g>
<g><path style="opacity:0.911" fill="#fefffe" d="M 1414.5,704.5 C 1437.85,701.269 1456.02,709.269 1469,728.5C 1487.37,705.937 1510.54,699.104 1538.5,708C 1553.03,714.2 1562.19,725.033 1566,740.5C 1567.43,770.137 1567.93,799.804 1567.5,829.5C 1561.5,829.5 1555.5,829.5 1549.5,829.5C 1549.96,801.458 1549.46,773.458 1548,745.5C 1543.39,728.399 1532.23,720.399 1514.5,721.5C 1490.71,721.783 1477.55,733.783 1475,757.5C 1474.5,781.498 1474.33,805.498 1474.5,829.5C 1468.5,829.5 1462.5,829.5 1456.5,829.5C 1456.67,804.831 1456.5,780.164 1456,755.5C 1455.19,733.193 1443.69,721.86 1421.5,721.5C 1400.01,721.169 1386.84,731.502 1382,752.5C 1381.67,777.833 1381.33,803.167 1381,828.5C 1378.09,829.145 1375.09,829.478 1372,829.5C 1368.72,829.442 1365.72,828.776 1363,827.5C 1362.33,787.5 1362.33,747.5 1363,707.5C 1365.55,706.229 1368.39,705.562 1371.5,705.5C 1374.17,705.667 1376.83,705.833 1379.5,706C 1380.31,712.085 1380.81,718.252 1381,724.5C 1389.76,713.548 1400.92,706.881 1414.5,704.5 Z"/></g>
<g><path style="opacity:0.913" fill="#fefffe" d="M 1644.5,704.5 C 1660.71,702.53 1675.71,705.697 1689.5,714C 1698.38,720.607 1703.55,729.44 1705,740.5C 1705.5,770.165 1705.67,799.831 1705.5,829.5C 1699.83,829.5 1694.17,829.5 1688.5,829.5C 1688.67,824.156 1688.5,818.823 1688,813.5C 1674.57,827.659 1658.07,833.493 1638.5,831C 1609.94,826.803 1598.1,810.636 1603,782.5C 1609.3,769.214 1619.8,761.714 1634.5,760C 1652.07,759.826 1669.57,759.326 1687,758.5C 1689.85,733.691 1678.85,721.024 1654,720.5C 1639.16,720.347 1625.99,724.847 1614.5,734C 1613.22,734.684 1612.05,734.517 1611,733.5C 1609,730.167 1607,726.833 1605,723.5C 1604.25,722.365 1604.42,721.365 1605.5,720.5C 1617.3,712.016 1630.3,706.682 1644.5,704.5 Z M 1649.5,772.5 C 1662.08,772.178 1674.58,772.511 1687,773.5C 1689.71,801.133 1677.05,815.467 1649,816.5C 1638.19,817.122 1629.19,813.455 1622,805.5C 1615.76,791.957 1619.26,781.79 1632.5,775C 1638.29,774.039 1643.95,773.205 1649.5,772.5 Z"/></g>
<g><path style="opacity:0.912" fill="#fefffe" d="M 326.5,705.5 C 332.425,705.192 338.259,705.525 344,706.5C 344.333,733.167 344.667,759.833 345,786.5C 349.117,805.489 360.95,814.822 380.5,814.5C 403.722,814.113 417.222,802.446 421,779.5C 421.333,755.167 421.667,730.833 422,706.5C 427.667,705.167 433.333,705.167 439,706.5C 439.5,747.499 439.667,788.499 439.5,829.5C 433.833,829.5 428.167,829.5 422.5,829.5C 422.916,823.048 422.416,816.715 421,810.5C 410.311,824.261 396.144,831.261 378.5,831.5C 348.558,830.807 331.058,815.807 326,786.5C 325.184,759.458 325.351,732.458 326.5,705.5 Z"/></g>
<g><path style="opacity:0.876" fill="#fefffe" d="M 1750.5,705.5 C 1755.84,705.334 1761.18,705.501 1766.5,706C 1767.13,706.75 1767.63,707.584 1768,708.5C 1768.67,748.167 1768.67,787.833 1768,827.5C 1762.13,829.43 1755.96,830.097 1749.5,829.5C 1749.17,788.094 1749.51,746.761 1750.5,705.5 Z"/></g>
<g><path style="opacity:0.896" fill="#fefffe" d="M 1173.5,804.5 C 1187.48,804.314 1192.65,810.98 1189,824.5C 1181.38,833.821 1173.71,833.821 1166,824.5C 1162.75,815.435 1165.25,808.768 1173.5,804.5 Z"/></g>
</svg>
