<?xml version="1.0" encoding="UTF-8"?>
<!DOCTYPE svg PUBLIC "-//W3C//DTD SVG 1.1//EN" "http://www.w3.org/Graphics/SVG/1.1/DTD/svg11.dtd">
<svg xmlns="http://www.w3.org/2000/svg" version="1.1" width="5000px" height="2686px" style="shape-rendering:geometricPrecision; text-rendering:geometricPrecision; image-rendering:optimizeQuality; fill-rule:evenodd; clip-rule:evenodd" xmlns:xlink="http://www.w3.org/1999/xlink">
<g><path style="opacity:0.988" fill="#000000" d="M 2488.5,365.5 C 2524.58,362.764 2547.08,378.764 2556,413.5C 2558.09,447.892 2542.59,469.558 2509.5,478.5C 2509.5,548.833 2509.5,619.167 2509.5,689.5C 2606.02,696.302 2678.85,740.969 2728,823.5C 2748.19,860.245 2759.02,899.578 2760.5,941.5C 2830.84,941.833 2901.17,941.5 2971.5,940.5C 2979.3,911.376 2998.3,895.709 3028.5,893.5C 3063.64,896.971 3082.64,916.304 3085.5,951.5C 3081.95,985.549 3063.12,1004.55 3029,1008.5C 2998.59,1006.59 2979.42,990.923 2971.5,961.5C 2901.17,960.5 2830.84,960.167 2760.5,960.5C 2754.22,1055.95 2710.55,1128.45 2629.5,1178C 2592.25,1198.91 2552.25,1210.41 2509.5,1212.5C 2509.5,1282.83 2509.5,1353.17 2509.5,1423.5C 2534.42,1429.25 2549.92,1444.58 2556,1469.5C 2558.97,1500.51 2546.14,1522.01 2517.5,1534C 2488.19,1541.41 2465.35,1532.58 2449,1507.5C 2439,1485.53 2440.66,1464.53 2454,1444.5C 2463.26,1433.06 2475.09,1426.06 2489.5,1423.5C 2489.5,1353.17 2489.5,1282.83 2489.5,1212.5C 2397.3,1206.02 2326.14,1164.35 2276,1087.5C 2252.49,1048.47 2239.99,1006.14 2238.5,960.5C 2168.16,960.167 2097.83,960.5 2027.5,961.5C 2019.52,991.139 2000.19,1006.81 1969.5,1008.5C 1935.35,1004.69 1916.69,985.688 1913.5,951.5C 1916.23,916.77 1934.9,897.437 1969.5,893.5C 2000.18,895.183 2019.51,910.849 2027.5,940.5C 2097.83,941.5 2168.16,941.833 2238.5,941.5C 2244.27,847.742 2286.61,775.909 2365.5,726C 2403.79,703.628 2445.12,691.461 2489.5,689.5C 2489.5,619.167 2489.5,548.833 2489.5,478.5C 2460.15,471.692 2444.15,453.192 2441.5,423C 2444.09,392.932 2459.75,373.765 2488.5,365.5 Z M 2487.5,769.5 C 2527.79,766.72 2557.29,783.053 2576,818.5C 2578.6,824.639 2580.6,830.972 2582,837.5C 2583.4,855.463 2583.9,873.463 2583.5,891.5C 2594.51,891.333 2605.51,891.5 2616.5,892C 2620.23,893.629 2622.4,896.462 2623,900.5C 2623.99,967.878 2623.65,1035.21 2622,1102.5C 2621.07,1104.55 2619.57,1106.05 2617.5,1107C 2538.83,1107.67 2460.17,1107.67 2381.5,1107C 2379.33,1106.17 2377.83,1104.67 2377,1102.5C 2375.34,1035.22 2375.01,967.891 2376,900.5C 2376.21,896.562 2378.05,893.728 2381.5,892C 2392.83,891.5 2404.16,891.333 2415.5,891.5C 2415.33,875.497 2415.5,859.497 2416,843.5C 2423.15,802.519 2446.98,777.853 2487.5,769.5 Z M 2496.5,939.5 C 2528.01,942.854 2541.51,960.187 2537,991.5C 2532.23,1004.77 2523.06,1013.44 2509.5,1017.5C 2508.67,1029.15 2508.17,1040.82 2508,1052.5C 2505.25,1058.63 2500.75,1060.46 2494.5,1058C 2492.51,1056.68 2491.35,1054.85 2491,1052.5C 2490.83,1040.82 2490.33,1029.15 2489.5,1017.5C 2464.72,1007.94 2455.89,990.272 2463,964.5C 2469.51,949.813 2480.68,941.48 2496.5,939.5 Z"/></g>
<g><path style="opacity:0.958" fill="#000000" d="M 2383.5,424.5 C 2391.83,422.655 2396.83,425.821 2398.5,434C 2397.86,439.975 2394.53,443.308 2388.5,444C 2236.12,480.108 2121.28,565.942 2044,701.5C 2019.47,747.414 2001.47,795.748 1990,846.5C 1984.39,850.716 1979.06,850.383 1974,845.5C 1973.4,843.863 1972.9,842.197 1972.5,840.5C 2009.41,680.034 2099.08,559.201 2241.5,478C 2286.56,453.928 2333.89,436.095 2383.5,424.5 Z"/></g>
<g><path style="opacity:0.947" fill="#000000" d="M 2606.5,424.5 C 2681.29,438.902 2749.62,468.068 2811.5,512C 2924.04,593.824 2995.37,702.991 3025.5,839.5C 3024.76,847.393 3020.43,850.56 3012.5,849C 3010,847.833 3008.17,846 3007,843.5C 2971.03,689.264 2884.53,573.098 2747.5,495C 2702.18,471.005 2654.51,453.338 2604.5,442C 2598.9,435.435 2599.57,429.602 2606.5,424.5 Z"/></g>
<g><path style="opacity:0.987" fill="#000000" d="M 2496.5,786.5 C 2533.72,788.225 2556.56,807.225 2565,843.5C 2565.5,859.497 2565.67,875.497 2565.5,891.5C 2521.5,891.5 2477.5,891.5 2433.5,891.5C 2433.33,875.497 2433.5,859.497 2434,843.5C 2439.45,815.748 2455.62,797.581 2482.5,789C 2487.31,788.197 2491.98,787.363 2496.5,786.5 Z"/></g>
<g><path style="opacity:0.983" fill="#000000" d="M 2393.5,909.5 C 2464.17,909.5 2534.83,909.5 2605.5,909.5C 2605.83,969.738 2605.5,1029.9 2604.5,1090C 2534.17,1090.5 2463.83,1090.67 2393.5,1090.5C 2393.5,1030.17 2393.5,969.833 2393.5,909.5 Z M 2496.5,939.5 C 2480.68,941.48 2469.51,949.813 2463,964.5C 2455.89,990.272 2464.72,1007.94 2489.5,1017.5C 2490.33,1029.15 2490.83,1040.82 2491,1052.5C 2491.35,1054.85 2492.51,1056.68 2494.5,1058C 2500.75,1060.46 2505.25,1058.63 2508,1052.5C 2508.17,1040.82 2508.67,1029.15 2509.5,1017.5C 2523.06,1013.44 2532.23,1004.77 2537,991.5C 2541.51,960.187 2528.01,942.854 2496.5,939.5 Z"/></g>
<g><path style="opacity:0.96" fill="#000000" d="M 2495.5,957.5 C 2510.37,957.211 2519.04,964.378 2521.5,979C 2517.84,997.98 2506.84,1004.31 2488.5,998C 2477.75,989.914 2475.25,979.747 2481,967.5C 2484.66,962.324 2489.49,958.991 2495.5,957.5 Z"/></g>
<g><path style="opacity:0.949" fill="#000000" d="M 1978.5,1052.5 C 1985.08,1051.04 1989.58,1053.37 1992,1059.5C 2024.41,1201.15 2101.24,1311.31 2222.5,1390C 2275.93,1422.71 2333.26,1446.04 2394.5,1460C 2400.95,1468.61 2398.95,1474.45 2388.5,1477.5C 2233.29,1442.06 2114.79,1356.39 2033,1220.5C 2004.75,1170.99 1984.59,1118.33 1972.5,1062.5C 1973,1058.14 1975,1054.81 1978.5,1052.5 Z"/></g>
<g><path style="opacity:0.957" fill="#000000" d="M 3011.5,1052.5 C 3022.66,1050.83 3027.16,1055.49 3025,1066.5C 2990.54,1212.38 2910.7,1325.88 2785.5,1407C 2731.33,1441.06 2672.83,1464.56 2610,1477.5C 2601.31,1475.8 2598.65,1470.8 2602,1462.5C 2603.21,1460.95 2604.71,1459.78 2606.5,1459C 2759.14,1423.5 2874.64,1338.33 2953,1203.5C 2978.1,1158.21 2996.1,1110.21 3007,1059.5C 3007.9,1056.77 3009.4,1054.43 3011.5,1052.5 Z"/></g>
<g><path style="opacity:0.98" fill="#000000" d="M 1538.5,1639.5 C 1552.5,1639.5 1566.5,1639.5 1580.5,1639.5C 1580.33,1699.17 1580.5,1758.83 1581,1818.5C 1599.46,1791.84 1624.63,1775 1656.5,1768C 1689.08,1760.92 1721.08,1762.92 1752.5,1774C 1788.6,1790.12 1810.77,1817.62 1819,1856.5C 1820.28,1863.8 1821.28,1871.13 1822,1878.5C 1822.67,1943.83 1822.67,2009.17 1822,2074.5C 1808.25,2075.49 1794.41,2075.82 1780.5,2075.5C 1780.67,2014.5 1780.5,1953.5 1780,1892.5C 1776.8,1833.63 1745.8,1803.63 1687,1802.5C 1626.56,1803.61 1591.56,1833.94 1582,1893.5C 1580.72,1953.82 1580.06,2014.15 1580,2074.5C 1566.25,2075.49 1552.41,2075.82 1538.5,2075.5C 1538.5,1930.17 1538.5,1784.83 1538.5,1639.5 Z"/></g>
<g><path style="opacity:0.961" fill="#000000" d="M 2279.5,1639.5 C 2293.83,1639.5 2308.17,1639.5 2322.5,1639.5C 2322.5,1784.83 2322.5,1930.17 2322.5,2075.5C 2308.17,2075.5 2293.83,2075.5 2279.5,2075.5C 2279.5,1930.17 2279.5,1784.83 2279.5,1639.5 Z"/></g>
<g><path style="opacity:0.983" fill="#000000" d="M 2436.5,1640.5 C 2450.66,1639.5 2464.99,1639.17 2479.5,1639.5C 2479.17,1784.74 2479.5,1929.9 2480.5,2075C 2465.83,2075.67 2451.17,2075.67 2436.5,2075C 2437.83,1930.07 2437.83,1785.24 2436.5,1640.5 Z"/></g>
<g><path style="opacity:0.97" fill="#000000" d="M 4394.5,1639.5 C 4417.03,1639.86 4428.2,1651.2 4428,1673.5C 4423.15,1692.99 4410.65,1701.49 4390.5,1699C 4371.86,1693.23 4364.36,1680.73 4368,1661.5C 4372.49,1648.83 4381.33,1641.5 4394.5,1639.5 Z"/></g>
<g><path style="opacity:0.983" fill="#000000" d="M 4532.5,1640.5 C 4546.66,1639.5 4560.99,1639.17 4575.5,1639.5C 4575.5,1784.83 4575.5,1930.17 4575.5,2075.5C 4561.5,2075.5 4547.5,2075.5 4533.5,2075.5C 4533.83,1930.33 4533.5,1785.33 4532.5,1640.5 Z"/></g>
<g><path style="opacity:0.982" fill="#000000" d="M 576.5,1763.5 C 628.806,1762.41 671.639,1781.75 705,1821.5C 731.495,1859.97 741.161,1902.3 734,1948.5C 721.801,2017.36 681.634,2059.53 613.5,2075C 569.055,2083.58 528.722,2074.58 492.5,2048C 482.398,2039.29 473.564,2029.45 466,2018.5C 465.5,2075.17 465.333,2131.83 465.5,2188.5C 451.5,2188.5 437.5,2188.5 423.5,2188.5C 423.5,2047.83 423.5,1907.17 423.5,1766.5C 436.833,1766.5 450.167,1766.5 463.5,1766.5C 463.333,1786.17 463.5,1805.84 464,1825.5C 481.564,1797.95 506.064,1779.45 537.5,1770C 550.437,1766.56 563.437,1764.39 576.5,1763.5 Z M 562.5,1801.5 C 613.747,1796.54 652.58,1815.87 679,1859.5C 696.763,1897.23 698.096,1935.57 683,1974.5C 661.824,2017.44 627.157,2039.44 579,2040.5C 528.551,2038.97 493.218,2015.3 473,1969.5C 461.668,1937.16 461.668,1904.83 473,1872.5C 489.738,1832.26 519.571,1808.59 562.5,1801.5 Z"/></g>
<g><path style="opacity:0.976" fill="#000000" d="M 1335.5,1763.5 C 1373.37,1762.07 1407.37,1772.57 1437.5,1795C 1447.72,1803.54 1456.05,1813.54 1462.5,1825C 1452.17,1832.17 1441.83,1839.33 1431.5,1846.5C 1404.42,1811.73 1368.76,1796.9 1324.5,1802C 1272.34,1810.83 1240.17,1840.99 1228,1892.5C 1221.74,1925.52 1226.41,1956.85 1242,1986.5C 1269.76,2027.12 1308.26,2044.62 1357.5,2039C 1388.48,2035.02 1413.15,2020.52 1431.5,1995.5C 1442.01,2002.25 1452.34,2009.25 1462.5,2016.5C 1445.61,2043.87 1421.61,2062.04 1390.5,2071C 1340.69,2084.57 1293.69,2078.23 1249.5,2052C 1209.13,2023.79 1186.97,1984.96 1183,1935.5C 1178.18,1877.34 1198.35,1830.17 1243.5,1794C 1271.28,1774.91 1301.94,1764.74 1335.5,1763.5 Z"/></g>
<g><path style="opacity:0.977" fill="#000000" d="M 2037.5,1763.5 C 2066.51,1762.5 2093.84,1768.66 2119.5,1782C 2142.07,1796.25 2156.57,1816.42 2163,1842.5C 2164.87,1850.75 2166.21,1859.08 2167,1867.5C 2167.67,1936.5 2167.67,2005.5 2167,2074.5C 2153.58,2075.49 2140.08,2075.82 2126.5,2075.5C 2126.67,2060.16 2126.5,2044.83 2126,2029.5C 2104.65,2058.43 2075.82,2074.27 2039.5,2077C 2012.67,2079.83 1986.67,2076.5 1961.5,2067C 1917.81,2045.77 1901.31,2011.27 1912,1963.5C 1920.22,1937.61 1937.06,1919.78 1962.5,1910C 1976.77,1905.08 1991.44,1902.08 2006.5,1901C 2046.17,1900.5 2085.83,1900.33 2125.5,1900.5C 2125.69,1888.8 2125.19,1877.14 2124,1865.5C 2116.8,1826.97 2093.64,1805.81 2054.5,1802C 2010.32,1797.95 1970.82,1809.45 1936,1836.5C 1929.08,1826.99 1922.91,1816.99 1917.5,1806.5C 1917.61,1805.56 1917.94,1804.72 1918.5,1804C 1953.83,1777.83 1993.5,1764.33 2037.5,1763.5 Z M 2011.5,1932.5 C 2049.5,1932.5 2087.5,1932.5 2125.5,1932.5C 2134.81,1980.72 2117.48,2015.22 2073.5,2036C 2045.05,2046.43 2016.38,2047.1 1987.5,2038C 1954.62,2023.38 1943.78,1998.88 1955,1964.5C 1962.56,1949.13 1974.72,1939.63 1991.5,1936C 1998.29,1934.7 2004.96,1933.54 2011.5,1932.5 Z"/></g>
<g><path style="opacity:0.974" fill="#000000" d="M 2698.5,1763.5 C 2726.68,1762.63 2753.34,1768.47 2778.5,1781C 2805.74,1797.96 2821.58,1822.46 2826,1854.5C 2826.96,1862.81 2827.62,1871.14 2828,1879.5C 2828.67,1944.5 2828.67,2009.5 2828,2074.5C 2814.58,2075.49 2801.08,2075.82 2787.5,2075.5C 2787.67,2059.83 2787.5,2044.16 2787,2028.5C 2765.78,2058.54 2736.61,2074.71 2699.5,2077C 2667.33,2080.79 2637,2075.12 2608.5,2060C 2582.93,2042.86 2569.6,2018.86 2568.5,1988C 2571.25,1942.57 2594.92,1914.91 2639.5,1905C 2648.43,1903.2 2657.43,1901.87 2666.5,1901C 2706.17,1900.5 2745.83,1900.33 2785.5,1900.5C 2787.12,1881.35 2784.95,1862.69 2779,1844.5C 2766.25,1818.13 2745.08,1803.96 2715.5,1802C 2670.75,1797.92 2630.92,1809.76 2596,1837.5C 2589.83,1827.17 2583.67,1816.83 2577.5,1806.5C 2593.32,1791.92 2611.65,1781.42 2632.5,1775C 2654.14,1768.24 2676.14,1764.4 2698.5,1763.5 Z M 2671.5,1932.5 C 2709.5,1932.5 2747.5,1932.5 2785.5,1932.5C 2795.28,1982.11 2777.28,2016.95 2731.5,2037C 2699.58,2048.06 2668.24,2046.72 2637.5,2033C 2614.86,2018.43 2606.69,1997.93 2613,1971.5C 2619.19,1951.98 2632.36,1940.14 2652.5,1936C 2658.94,1934.61 2665.27,1933.44 2671.5,1932.5 Z"/></g>
<g><path style="opacity:0.981" fill="#000000" d="M 3169.5,1763.5 C 3216.58,1762.01 3256.08,1778.35 3288,1812.5C 3316.17,1847.87 3328.34,1888.2 3324.5,1933.5C 3238.5,1933.5 3152.5,1933.5 3066.5,1933.5C 3070.6,1979.87 3093.93,2012.37 3136.5,2031C 3175.65,2044.63 3213.98,2042.63 3251.5,2025C 3263.18,2018.32 3273.34,2009.82 3282,1999.5C 3289.29,2008.46 3296.96,2017.13 3305,2025.5C 3305.67,2026.5 3305.67,2027.5 3305,2028.5C 3277.91,2057.62 3244.41,2073.79 3204.5,2077C 3149.78,2082.88 3102.95,2066.71 3064,2028.5C 3032.16,1990.62 3019.49,1946.95 3026,1897.5C 3033.27,1843.08 3061.1,1803.24 3109.5,1778C 3128.72,1769.39 3148.72,1764.56 3169.5,1763.5 Z M 3163.5,1800.5 C 3219.72,1797.94 3258.22,1822.61 3279,1874.5C 3281.93,1883.63 3283.76,1892.96 3284.5,1902.5C 3211.83,1902.5 3139.17,1902.5 3066.5,1902.5C 3070.76,1855.44 3094.76,1823.27 3138.5,1806C 3146.87,1803.7 3155.2,1801.86 3163.5,1800.5 Z"/></g>
<g><path style="opacity:0.975" fill="#000000" d="M 3556.5,1763.5 C 3589.57,1762.14 3619.24,1771.31 3645.5,1791C 3657.32,1801.15 3666.32,1813.32 3672.5,1827.5C 3692.97,1794.74 3722.31,1774.57 3760.5,1767C 3796.83,1759.71 3831.49,1764.37 3864.5,1781C 3893.91,1800.62 3911.08,1828.12 3916,1863.5C 3916.85,1869.81 3917.51,1876.15 3918,1882.5C 3918.67,1946.5 3918.67,2010.5 3918,2074.5C 3903.91,2075.49 3889.75,2075.82 3875.5,2075.5C 3875.67,2011.17 3875.5,1946.83 3875,1882.5C 3869.12,1829.95 3839.78,1803.28 3787,1802.5C 3725.8,1805.36 3692.13,1837.36 3686,1898.5C 3685.67,1957.17 3685.33,2015.83 3685,2074.5C 3670.91,2075.49 3656.75,2075.82 3642.5,2075.5C 3642.67,2011.5 3642.5,1947.5 3642,1883.5C 3636.44,1829.94 3606.77,1802.94 3553,1802.5C 3489.93,1805.9 3456.26,1839.24 3452,1902.5C 3451.67,1959.83 3451.33,2017.17 3451,2074.5C 3437.25,2075.49 3423.41,2075.82 3409.5,2075.5C 3409.5,1972.5 3409.5,1869.5 3409.5,1766.5C 3422.83,1766.5 3436.17,1766.5 3449.5,1766.5C 3449.33,1784.84 3449.5,1803.17 3450,1821.5C 3465.87,1795.8 3488.37,1778.63 3517.5,1770C 3530.44,1766.56 3543.44,1764.39 3556.5,1763.5 Z"/></g>
<g><path style="opacity:0.979" fill="#000000" d="M 4134.5,1763.5 C 4161.84,1762.89 4187.84,1768.39 4212.5,1780C 4244.05,1799.56 4260.88,1828.06 4263,1865.5C 4263.5,1935.5 4263.67,2005.5 4263.5,2075.5C 4250.17,2075.5 4236.83,2075.5 4223.5,2075.5C 4223.67,2059.5 4223.5,2043.5 4223,2027.5C 4206.72,2052.41 4183.89,2067.91 4154.5,2074C 4122.59,2080.28 4091.26,2078.28 4060.5,2068C 4015.53,2047.56 3998.03,2013.06 4008,1964.5C 4015.39,1938.77 4031.56,1920.94 4056.5,1911C 4071.32,1905.37 4086.65,1902.04 4102.5,1901C 4142.17,1900.5 4181.83,1900.33 4221.5,1900.5C 4223.56,1878.97 4220.39,1858.3 4212,1838.5C 4198.29,1816.04 4178.12,1803.88 4151.5,1802C 4106.75,1797.92 4066.92,1809.75 4032,1837.5C 4025.42,1827.25 4019.25,1816.75 4013.5,1806C 4038.68,1784.92 4067.68,1771.92 4100.5,1767C 4111.95,1765.43 4123.28,1764.26 4134.5,1763.5 Z M 4107.5,1932.5 C 4145.5,1932.5 4183.5,1932.5 4221.5,1932.5C 4231.16,1980.9 4213.83,2015.4 4169.5,2036C 4144.68,2045.11 4119.35,2046.78 4093.5,2041C 4056.73,2031.29 4041.9,2007.79 4049,1970.5C 4054.01,1955.49 4063.84,1944.99 4078.5,1939C 4088.07,1935.75 4097.73,1933.58 4107.5,1932.5 Z"/></g>
<g><path style="opacity:0.976" fill="#000000" d="M 817.5,1766.5 C 831.5,1766.5 845.5,1766.5 859.5,1766.5C 859.333,1828.83 859.5,1891.17 860,1953.5C 864.632,2009.32 894.965,2037.99 951,2039.5C 1012.46,2038.37 1047.12,2007.37 1055,1946.5C 1055.33,1886.83 1055.67,1827.17 1056,1767.5C 1070.09,1766.51 1084.25,1766.18 1098.5,1766.5C 1098.67,1869.17 1098.5,1971.83 1098,2074.5C 1084.58,2075.49 1071.08,2075.82 1057.5,2075.5C 1057.67,2057.5 1057.5,2039.5 1057,2021.5C 1034.81,2054.7 1003.64,2073.2 963.5,2077C 926.455,2081.2 892.455,2073.2 861.5,2053C 834.697,2030.56 820.197,2001.73 818,1966.5C 817.5,1899.83 817.333,1833.17 817.5,1766.5 Z"/></g>
<g><path style="opacity:0.983" fill="#000000" d="M 4376.5,1766.5 C 4390.5,1766.5 4404.5,1766.5 4418.5,1766.5C 4418.67,1869.17 4418.5,1971.83 4418,2074.5C 4404.25,2075.49 4390.41,2075.82 4376.5,2075.5C 4376.5,1972.5 4376.5,1869.5 4376.5,1766.5 Z"/></g>
<g><path style="opacity:0.972" fill="#000000" d="M 2937.5,2013.5 C 2960.54,2011.72 2973.54,2022.22 2976.5,2045C 2975,2065 2964.33,2075.84 2944.5,2077.5C 2930.07,2076.89 2920.23,2069.89 2915,2056.5C 2909.93,2035.29 2917.43,2020.96 2937.5,2013.5 Z"/></g>
</svg>
